if (_typeface_js && _typeface_js.loadFace) _typeface_js.loadFace({"glyphs":{"0":{"ha":1001,"x_min":-3,"x_max":907,"o":"m 903 575 q 831 356 903 549 l 825 551 q 838 591 825 564 q 865 618 851 618 q 892 603 881 618 q 903 575 903 589 m 907 506 q 900 403 907 440 q 839 372 894 372 l 835 415 l 835 424 q 839 466 835 439 q 843 506 843 493 l 907 506 m 907 275 q 903 189 907 251 l 901 168 l 881 75 l 836 160 l 835 178 l 835 185 q 839 232 835 201 q 843 275 843 263 l 907 275 m 903 139 q 831 76 903 111 l 825 133 q 863 178 825 178 q 888 165 874 178 q 903 139 903 151 m 903 76 q 833 -21 903 56 l 825 68 q 838 99 825 83 q 865 115 850 115 q 903 76 903 115 m 903 6 q 832 -56 903 -22 l 825 0 q 863 44 825 44 q 888 31 874 44 q 903 6 903 18 m 789 278 q 779 230 789 260 q 769 186 769 200 q 778 135 769 169 q 788 82 788 100 q 743 -60 788 13 q 653 -178 724 -90 q 625 -182 635 -182 q 613 -208 621 -197 l 597 -217 l 597 -240 q 519 -251 557 -258 l 519 -256 q 465 -261 478 -264 l 464 -261 l 457 -275 q 411 -281 424 -281 q 340 -265 385 -281 q 265 -249 294 -250 q 206 -236 236 -247 l 199 -219 q 163 -212 178 -219 q 105 -160 149 -206 q 56 -99 61 -115 q 43 -49 51 -83 l 24 -40 q 6 61 6 11 q 8 110 6 76 q 10 165 10 143 q 5 356 10 229 q 0 546 0 483 l 0 956 l 64 706 l 3 710 l 7 722 q 1 775 -3 746 l 19 794 q 28 864 22 829 q 68 918 33 899 q 79 942 75 922 q 92 974 83 963 q 143 1006 107 994 q 165 1014 160 1011 q 181 1032 176 1019 l 182 1038 q 224 1074 186 1068 q 285 1074 226 1074 l 290 1075 l 293 1076 l 293 1100 q 347 1104 346 1104 q 399 1086 376 1103 q 443 1117 403 1088 q 536 1047 483 1094 q 572 1054 554 1054 q 631 1007 619 1054 q 694 963 663 985 q 726 892 718 939 l 729 890 q 765 865 756 883 q 778 758 775 847 q 778 589 781 696 q 776 464 776 451 q 783 372 776 433 q 789 278 789 310 m 885 -46 q 815 -112 885 -72 l 807 -50 q 844 -8 807 -8 q 870 -21 856 -8 q 885 -46 885 -33 m 611 678 l 576 646 l 576 664 q 592 638 592 661 q 581 640 592 638 q 556 644 569 642 q 506 804 535 758 q 399 863 469 863 q 338 856 372 863 l 332 843 q 288 818 310 831 q 251 783 258 803 q 226 533 226 721 q 230 342 226 469 q 233 151 233 215 q 249 53 233 99 l 269 40 q 269 -7 272 8 l 246 -7 q 275 1 263 1 l 293 -1 l 329 -29 q 397 -33 361 -33 q 450 -26 440 -33 q 489 13 469 -7 l 513 22 q 540 100 526 42 q 554 189 554 158 q 553 208 554 203 l 533 238 q 542 341 532 274 q 553 442 553 408 q 549 532 553 461 q 549 621 546 586 l 546 678 q 579 681 563 681 q 611 678 596 681 m 360 6 q 322 44 360 44 q 295 27 308 44 q 282 -3 282 10 l 290 -92 q 360 6 360 -15 m 503 675 q 486 428 486 529 q 429 457 451 428 q 411 496 411 479 q 503 675 411 524 m 368 594 q 300 467 368 574 l 292 583 q 301 617 290 597 q 329 636 313 636 q 368 594 368 636 m 481 449 q 410 381 481 421 l 403 442 q 440 488 403 488 q 481 449 481 488 m 488 367 q 418 236 488 317 l 422 417 l 486 417 q 488 396 486 414 q 488 367 488 379 m 478 301 q 474 225 478 294 q 457 190 472 211 q 438 169 442 169 q 418 185 432 169 q 404 214 404 200 q 408 258 404 229 q 413 303 413 288 l 478 301 m 357 278 q 282 332 282 278 q 357 429 282 360 l 357 278 m 351 289 q 282 192 351 268 l 274 279 q 287 310 274 292 q 313 328 300 328 q 351 289 351 328 m 486 178 q 482 114 486 156 q 478 53 478 72 l 413 56 q 422 181 413 35 l 486 178 m 499 4 q 428 -57 499 -21 l 421 3 q 457 44 421 44 q 499 4 499 44 m 357 31 q 297 51 318 31 q 282 86 282 67 q 357 185 282 111 l 357 31 m 353 42 q 279 -21 353 14 l 274 36 q 311 81 274 81 q 338 67 322 81 q 353 42 353 54 m 369 -29 q 300 -97 369 -53 l 292 -32 q 328 11 292 11 q 369 -29 369 11 m 271 -7 l 265 -26 q 269 -7 269 -6 l 271 -7 z "},"1":{"ha":613,"x_min":0,"x_max":493,"o":"m 85 844 q 0 804 57 807 q 4 896 0 849 q 8 964 8 953 l 69 961 l 69 881 l 54 879 q 85 844 82 875 m 213 653 q 147 556 213 632 l 139 643 q 151 674 139 656 q 176 692 164 692 q 213 653 213 692 m 204 608 q 138 510 204 586 l 131 599 q 142 629 129 611 q 168 647 156 647 q 204 608 204 647 m 493 831 q 483 724 493 792 q 472 631 472 656 q 477 534 472 599 q 482 438 482 469 q 476 387 482 419 q 469 338 469 354 l 469 325 l 488 304 q 482 158 490 218 q 472 57 472 86 q 481 6 472 40 q 489 -47 489 -29 q 475 -146 489 -81 q 465 -256 463 -206 q 388 -269 450 -257 q 308 -278 340 -279 q 254 -250 279 -258 l 254 281 q 263 810 254 546 l 254 822 q 257 814 257 818 q 235 790 257 803 q 210 774 213 778 q 201 676 201 761 l 140 674 q 135 731 139 693 q 83 707 131 729 q 80 812 83 758 q 76 879 76 865 q 88 956 76 924 l 281 1110 q 313 1113 296 1113 q 397 1107 338 1113 q 489 1104 447 1101 l 488 1028 q 490 929 488 993 q 493 831 493 861 m 201 419 q 136 288 201 367 l 140 472 l 201 471 l 201 419 m 204 340 q 138 243 204 319 l 131 332 q 142 361 129 343 q 168 379 156 379 q 204 340 204 379 m 196 293 q 104 44 196 268 q 122 275 122 243 q 160 335 122 335 q 196 293 196 335 m 201 229 q 197 157 201 201 q 192 85 193 97 l 132 86 q 140 231 132 85 l 201 229 m 350 1040 q 213 1111 249 1111 l 172 1111 l 171 1044 l 190 1044 l 350 1040 z "},"2":{"ha":1026,"x_min":-7,"x_max":951,"o":"m 951 793 q 882 664 951 772 l 874 782 q 885 815 872 793 q 913 836 899 836 q 951 793 951 836 m 947 625 q 889 646 910 625 q 872 681 872 663 q 947 779 872 706 l 947 625 m 824 885 q 817 651 817 753 q 758 682 782 653 q 742 721 742 704 q 824 885 742 749 m 410 824 q 339 758 410 796 l 331 818 q 369 863 331 863 q 395 850 381 863 q 410 824 410 838 m 392 760 q 321 694 392 735 l 313 757 q 351 800 313 800 q 392 760 392 800 m 951 101 q 881 -83 951 78 l 874 92 q 888 124 874 101 q 913 146 903 146 q 951 101 951 146 m 806 101 l 672 107 q 639 140 639 107 q 675 174 639 174 l 678 174 q 806 101 733 174 m 804 -128 q 788 -253 804 -132 q 685 -268 738 -265 q 589 -269 647 -271 q 486 -268 496 -268 q 452 -273 475 -268 q 418 -278 429 -278 l 432 -229 q 400 -247 422 -247 q 386 -243 392 -247 l 410 -275 l 392 -269 q 347 -278 364 -278 q 185 -273 299 -278 q 0 -268 72 -268 q -3 -182 0 -229 q -7 -119 -7 -135 q 3 -49 -7 -83 q 72 36 10 -42 q 149 114 113 89 l 149 132 q 182 185 165 158 q 233 222 207 218 l 233 222 q 264 281 244 265 q 285 292 274 286 q 329 350 286 339 l 332 351 l 332 356 q 372 407 339 400 l 376 407 l 376 410 q 406 461 381 447 q 435 474 421 468 q 451 521 436 496 l 461 521 q 507 563 472 561 q 543 622 513 576 q 567 694 567 657 q 512 811 567 760 q 389 863 457 863 q 379 863 386 863 q 368 861 372 861 l 360 847 q 276 788 300 824 q 232 669 253 753 q -4 682 133 669 q 128 992 21 878 q 408 1111 238 1111 q 493 1100 444 1111 q 573 1067 553 1086 q 592 1049 593 1049 q 615 1051 606 1051 q 668 1031 631 1051 l 657 1006 q 763 879 732 933 q 800 718 804 806 l 782 692 q 787 656 782 681 q 792 618 792 632 q 736 476 792 547 q 636 361 686 419 q 599 293 631 343 l 581 293 l 519 225 q 501 174 501 174 q 460 140 490 153 q 433 101 447 135 q 388 43 414 53 q 385 -19 394 19 q 340 -11 354 -17 q 336 -29 338 -22 l 336 -31 q 310 -78 328 -67 q 415 -36 325 -72 l 436 -28 l 303 -32 q 429 -37 347 -31 q 556 -44 517 -44 q 586 -43 575 -44 l 606 -24 q 669 -43 640 -24 q 721 -44 685 -47 q 771 -42 771 -42 q 794 -69 778 -61 q 804 -128 804 -104 m 706 101 l 576 107 q 543 140 543 107 q 579 174 543 174 l 582 174 q 706 101 638 174 m 592 233 q 574 135 589 175 q 546 96 560 96 q 511 133 511 96 q 592 233 511 174 m 585 39 l 583 -28 l 261 -28 l 346 39 l 350 21 l 354 47 q 389 49 349 49 q 488 44 426 49 q 585 39 568 40 z "},"3":{"ha":1058,"x_min":-4,"x_max":976,"o":"m 974 610 q 903 486 974 589 q 893 572 893 535 q 933 650 893 650 q 974 610 974 650 m 961 486 q 903 507 924 485 q 886 542 886 524 q 961 640 886 568 l 961 486 m 825 558 q 756 461 825 538 l 747 550 q 760 580 747 563 q 786 597 772 597 q 825 558 825 597 m 964 238 q 894 175 964 211 l 886 236 q 924 278 886 278 q 964 238 964 278 m 976 283 q 969 50 969 151 q 913 79 935 50 q 894 119 894 103 q 976 283 894 147 m 489 640 l 485 574 q 411 579 447 574 l 393 582 l 363 590 q 369 635 363 621 q 404 650 376 650 q 489 640 392 650 m 839 113 q 781 135 801 113 q 764 168 764 150 q 839 267 764 194 l 839 113 m 806 64 q 801 19 806 60 l 781 7 q 750 -69 760 -49 q 707 -137 732 -108 q 708 -142 708 -139 q 660 -181 708 -182 q 650 -179 656 -181 q 643 -178 644 -178 q 607 -218 629 -194 q 544 -247 581 -242 q 475 -258 508 -253 l 456 -276 q 401 -281 432 -281 q 279 -267 335 -281 l 247 -242 q 226 -244 233 -244 q 156 -194 224 -244 q 74 -129 88 -144 q 79 -110 76 -122 q 39 -54 44 -90 q 24 -56 32 -56 q -4 104 11 -4 q 78 119 7 106 q 161 129 129 129 q 224 122 181 129 l 235 83 q 279 11 268 53 l 304 8 q 361 -35 329 -35 q 381 -35 365 -35 q 406 -33 396 -33 q 475 -31 464 -33 l 476 -28 q 518 11 486 1 l 525 10 q 553 63 529 31 q 574 121 574 90 q 506 285 574 239 q 303 325 444 325 q 296 368 294 361 l 286 379 q 296 506 289 422 l 319 533 q 349 553 338 550 q 397 542 375 553 q 510 590 463 543 q 557 700 557 636 q 396 856 557 856 q 324 849 342 856 q 301 825 313 843 q 264 785 286 803 q 267 768 267 774 q 258 733 267 760 l 235 722 l 215 701 q 172 696 193 696 q 69 704 100 696 q 3 769 3 719 q 35 864 3 803 l 51 872 q 168 1033 89 964 q 351 1113 258 1113 q 397 1107 365 1113 q 442 1101 425 1100 q 508 1111 464 1111 l 529 1089 q 721 938 642 1040 q 806 706 806 826 q 790 604 806 669 q 756 510 774 539 q 686 453 744 492 l 686 438 q 772 332 729 385 q 803 189 803 281 q 796 149 803 164 q 801 107 796 135 q 806 64 806 79 m 408 71 q 338 4 408 46 l 329 64 q 367 110 329 110 q 394 98 381 110 q 408 71 408 86 m 972 203 q 935 242 972 242 q 908 224 921 242 q 894 193 894 206 l 903 106 q 972 203 972 182 z "},"4":{"ha":1033,"x_min":-1,"x_max":950,"o":"m 383 931 q 310 865 383 903 l 304 925 q 342 969 304 969 q 383 931 383 969 m 347 860 q 276 792 347 832 l 269 853 q 307 899 269 899 q 347 860 347 899 m 619 457 q 550 390 619 432 l 540 451 q 579 496 540 496 q 619 457 619 496 m 950 -46 q 924 -64 939 -54 q 926 -56 924 -58 l 901 -81 q 842 -92 878 -83 q 822 -286 836 -144 q 711 -271 775 -274 q 599 -264 631 -268 q 611 -135 611 -168 q 613 -106 611 -129 q 611 -97 614 -99 q 596 -89 604 -94 q 239 -81 417 -81 l 239 -94 q 121 -93 229 -93 q 110 -92 118 -93 q 99 -90 103 -90 l 72 -69 q 78 -71 75 -69 l 53 -39 q 53 132 53 -39 l 68 140 q 53 181 63 154 l 111 215 q 136 288 110 261 l 142 293 q 155 335 150 301 q 194 401 160 369 q 213 419 203 407 q 208 450 208 444 q 240 517 214 483 q 271 572 265 551 q 294 647 285 629 q 333 711 297 653 q 349 764 349 736 q 373 816 349 792 q 397 867 397 840 q 411 914 397 888 q 442 933 424 922 q 444 935 443 935 q 446 936 446 936 l 446 961 q 473 1043 446 992 q 531 1111 500 1094 q 607 1094 560 1113 q 778 1090 608 1093 q 697 918 738 1017 q 625 788 661 828 q 581 661 608 735 l 564 651 q 539 571 557 625 l 521 563 q 476 354 508 528 l 446 404 q 349 193 383 279 l 501 160 q 328 122 350 122 q 315 124 324 124 q 303 125 307 125 l 321 185 q 338 163 328 181 q 354 146 349 146 l 379 163 l 404 165 q 428 163 421 165 l 428 174 l 501 174 l 501 149 l 513 146 q 542 143 535 143 q 554 143 556 143 q 561 154 558 149 q 638 207 571 171 l 632 133 q 615 141 625 133 q 604 153 604 149 q 588 138 604 138 q 586 152 588 143 q 585 165 585 161 l 592 200 l 603 200 l 603 258 l 554 258 q 601 317 574 285 l 601 358 q 617 532 601 426 q 682 524 668 528 q 701 521 696 521 q 824 549 725 521 q 824 322 824 549 q 831 247 824 293 q 842 171 840 190 l 851 165 l 858 151 q 926 156 856 151 q 950 -46 933 90 m 501 435 q 499 357 501 394 q 482 319 497 339 q 463 300 467 300 q 444 314 457 300 q 428 344 428 331 q 438 439 428 361 l 501 435 m 200 536 q 129 471 200 513 l 121 533 q 158 576 121 576 q 200 536 200 576 m 78 275 q 4 83 78 253 l -1 254 q 11 292 -1 268 q 39 317 24 317 q 67 303 56 317 q 78 275 78 289 m 639 519 q 557 354 557 382 q 575 315 557 338 q 633 286 599 286 q 639 519 632 379 z "},"5":{"ha":1031,"x_min":-3,"x_max":974,"o":"m 951 1174 q 936 929 936 1032 q 878 960 901 931 q 860 999 860 982 q 951 1174 860 1025 m 974 1004 l 843 1008 q 810 1042 810 1008 q 846 1075 810 1075 l 849 1075 q 974 1004 906 1075 m 869 925 l 868 858 q 794 864 861 858 l 778 865 l 746 872 q 781 933 746 935 q 824 929 794 933 q 869 925 854 925 m 939 547 q 869 450 939 526 l 861 539 q 874 569 861 551 q 900 586 886 586 q 939 547 939 586 m 947 501 q 878 407 947 482 l 869 494 q 881 526 869 511 q 910 542 893 542 q 947 501 947 542 m 739 685 l 618 689 q 583 753 583 689 l 622 756 q 688 732 650 757 q 739 685 718 710 m 535 751 q 460 807 460 751 q 535 906 460 835 l 535 751 m 947 360 q 878 296 947 335 l 869 358 q 907 401 869 401 q 947 360 947 401 m 538 733 q 476 646 538 710 q 460 729 460 718 q 472 760 460 746 q 500 774 483 774 q 538 733 538 774 m 947 293 q 878 99 947 271 l 869 281 q 882 316 869 294 q 910 338 894 338 q 947 293 947 338 m 814 438 q 810 350 814 382 l 807 329 l 786 244 l 742 321 l 740 339 l 740 347 q 750 440 740 333 l 814 438 m 807 885 q 561 843 708 843 q 454 845 519 843 q 374 847 389 847 q 338 849 360 847 q 306 849 314 849 q 256 835 265 849 q 246 781 246 822 q 249 714 246 768 q 249 647 251 674 q 254 640 253 643 l 256 640 q 258 640 257 640 q 261 639 260 639 q 272 661 264 646 q 328 675 304 672 l 338 676 l 338 693 l 363 996 l 394 781 q 408 686 406 704 l 428 686 q 631 638 504 686 l 631 628 q 683 597 650 625 l 674 579 q 772 401 754 507 q 779 197 779 361 q 788 50 779 156 q 650 -190 733 -115 q 385 -278 553 -278 q 128 -177 236 -278 q -3 89 21 -76 q 22 106 8 97 q 19 96 22 101 l 47 124 q 106 135 64 124 l 142 117 q 204 138 163 125 q 240 83 222 111 q 265 25 264 46 q 307 -15 285 18 q 392 -39 324 -39 q 496 -10 458 -39 l 496 8 q 521 42 506 31 l 526 46 q 533 51 529 47 q 544 276 544 76 q 519 357 544 299 q 464 422 490 426 q 454 422 461 422 q 444 421 449 421 q 401 433 426 421 q 365 444 375 444 l 365 444 l 351 419 q 293 410 328 410 q 278 385 289 410 q 243 339 264 354 q 163 314 213 314 q 36 346 103 314 l 38 404 q 21 381 38 388 q 28 285 28 378 l 8 396 q 19 458 8 417 q 31 522 31 500 q 23 631 31 558 q 15 740 15 703 q 33 956 15 793 q 46 947 39 954 q 72 974 51 974 q 89 969 81 974 q 88 986 85 975 l 26 971 l 26 989 l 90 988 l 88 986 q 42 968 58 968 q 25 992 22 968 l 25 1036 l 26 1101 q 124 1093 69 1101 q 199 1085 179 1085 q 258 1098 218 1085 q 319 1111 297 1111 q 375 1094 325 1111 q 758 1101 493 1107 q 761 1007 761 1067 q 772 908 761 982 l 807 885 m 547 246 q 475 183 547 218 l 469 240 q 507 285 469 285 q 533 272 518 285 q 547 246 547 258 m 400 264 q 326 197 400 236 l 321 258 q 332 288 321 274 q 360 303 343 303 q 385 290 371 303 q 400 264 400 278 m 408 226 q 339 163 408 201 l 329 224 q 367 268 329 268 q 394 258 379 268 q 408 226 408 247 m 547 868 q 508 907 547 907 q 481 890 494 907 q 468 860 468 872 l 476 771 q 547 868 547 849 m 419 940 q 338 775 338 803 q 356 736 338 758 q 413 707 378 707 q 419 940 413 806 z "},"6":{"ha":993,"x_min":-4,"x_max":911,"o":"m 788 847 q 718 725 788 822 q 708 808 708 743 q 749 888 708 888 q 788 847 788 888 m 893 297 q 825 203 893 278 l 815 290 q 827 322 815 307 q 856 338 839 338 q 893 297 893 338 m 542 622 q 472 557 542 597 l 464 619 q 501 663 464 663 q 542 622 542 663 m 903 254 q 829 189 903 226 l 824 249 q 861 293 824 293 q 903 254 903 293 m 903 164 q 829 99 903 136 l 824 158 q 861 203 824 203 q 903 164 903 203 m 911 128 q 840 32 911 104 l 832 118 q 842 150 831 132 q 871 168 854 168 q 911 128 911 168 m 876 1 q 807 -62 876 -24 l 797 -3 q 835 42 797 42 q 876 1 876 42 m 785 193 q 776 155 785 176 q 767 124 767 133 q 772 98 767 115 q 776 71 776 81 q 751 11 776 46 l 751 11 q 758 -17 760 -8 l 757 -33 l 732 -67 q 733 -75 732 -69 q 733 -82 733 -81 q 707 -129 733 -106 q 710 -142 710 -137 q 692 -168 710 -154 q 665 -182 675 -182 l 663 -182 l 663 -178 l 661 -182 q 614 -212 654 -210 q 525 -269 569 -240 q 413 -289 488 -289 q 323 -280 382 -289 q 235 -271 264 -271 q 206 -264 224 -271 q 174 -224 183 -233 q 132 -189 153 -206 q -4 146 -4 -67 q 14 263 -4 165 q 41 378 32 367 q 75 399 50 390 q 76 407 76 407 q 83 453 76 440 q 114 494 89 467 q 139 572 124 526 l 154 579 l 154 589 q 164 633 154 606 l 179 642 q 202 696 179 676 q 228 731 225 715 q 240 796 235 764 q 281 847 249 824 q 292 857 286 850 q 288 875 288 874 q 304 918 288 890 q 331 957 318 938 l 333 957 q 364 1038 336 990 q 408 1114 408 1114 q 515 1099 497 1103 q 622 1075 575 1089 q 529 808 603 951 q 411 561 429 610 q 426 563 413 561 q 456 563 439 563 l 465 543 q 494 546 472 543 q 522 549 511 549 q 575 540 542 549 l 601 514 l 619 514 q 669 493 639 514 l 669 472 q 721 408 692 450 q 756 350 750 365 q 757 290 757 346 q 771 251 757 285 q 785 193 785 218 m 824 -61 q 753 -126 824 -86 l 744 -67 q 782 -21 744 -21 q 809 -34 794 -21 q 824 -61 824 -47 m 547 174 l 547 193 q 525 233 525 221 q 521 264 526 253 q 456 321 500 310 q 367 325 436 325 q 344 329 353 325 l 342 319 q 268 274 301 290 l 260 269 l 260 267 q 246 188 257 238 l 228 171 q 226 146 226 163 q 243 57 226 103 l 258 49 q 279 -21 268 18 q 326 -39 304 -21 q 326 -53 326 -39 q 494 1 442 -51 q 547 174 547 53 m 507 244 q 436 150 507 224 l 428 236 q 441 266 428 249 q 468 283 454 283 q 507 244 507 283 m 490 178 q 418 -46 490 157 l 413 153 q 426 194 413 167 q 453 221 439 221 q 479 206 468 221 q 490 178 490 192 m 353 204 q 350 117 353 139 l 347 94 l 328 0 l 282 86 l 281 104 l 281 113 q 285 158 281 128 q 289 206 289 189 l 353 204 m 383 36 q 314 -97 383 15 l 306 22 q 316 58 304 38 q 344 78 328 78 q 383 36 383 78 m 499 100 q 482 132 499 119 q 457 140 469 140 q 421 97 421 140 l 428 40 q 499 100 499 72 z "},"7":{"ha":942,"x_min":0,"x_max":868,"o":"m 856 750 q 781 806 781 750 q 856 906 781 832 l 856 750 m 868 761 q 799 694 868 736 l 789 757 q 828 801 789 801 q 856 790 844 801 q 868 761 868 778 m 867 715 q 797 614 867 693 l 790 707 q 802 736 789 718 q 829 754 815 754 q 867 715 867 754 m 781 483 q 710 389 781 461 l 703 474 q 715 504 701 486 q 742 522 728 522 q 781 483 781 522 m 332 954 q 317 706 317 810 q 258 735 282 706 q 242 774 242 757 q 332 954 242 801 m 747 413 q 744 390 747 399 q 739 349 742 382 q 668 390 668 347 q 688 443 668 410 l 707 451 q 747 413 747 451 m 703 279 q 632 214 703 251 l 624 272 q 661 318 624 318 q 688 305 672 318 q 703 279 703 292 m 311 713 q 214 465 311 689 q 235 706 235 682 q 247 736 235 718 q 272 754 258 754 q 311 713 311 754 m 799 804 l 750 804 q 696 640 722 722 q 628 486 660 536 q 631 467 631 475 l 624 429 l 607 429 q 586 349 603 379 l 568 336 q 569 318 569 331 l 567 297 l 542 263 q 543 240 543 256 l 538 204 l 524 204 q 522 182 524 190 l 503 171 q 499 125 500 131 q 472 83 493 106 l 467 79 l 464 76 q 465 40 465 64 l 464 21 q 435 -23 450 0 q 421 -69 421 -46 q 385 -164 421 -92 q 331 -262 353 -228 q 232 -279 294 -279 q 96 -279 96 -279 l 96 -167 q 139 -117 107 -135 q 139 -97 139 -117 q 174 -37 139 -75 q 190 50 175 -33 q 233 117 200 103 q 240 167 235 119 q 263 219 243 194 q 276 256 276 238 q 285 289 276 268 l 301 297 q 309 349 306 324 q 339 410 313 375 q 339 418 339 413 q 338 426 338 425 q 357 472 338 449 q 385 511 382 503 q 403 578 394 533 q 419 643 413 624 q 463 732 429 668 q 501 821 492 786 q 493 853 493 840 q 486 849 492 851 q 419 857 456 847 l 414 857 q 228 844 340 857 q 239 785 228 824 q 228 753 236 765 q 229 724 228 746 q 229 686 229 703 q 161 651 182 651 q 110 660 133 651 l 100 657 q 110 661 103 660 q 93 689 93 672 q 106 714 93 703 q 88 718 94 711 l 85 653 q 49 654 71 657 q 11 651 15 651 q 0 1057 0 821 q 53 1079 26 1068 q 108 1093 86 1093 q 149 1085 121 1093 l 149 1086 q 181 1110 160 1104 q 308 1111 185 1111 l 325 1092 q 353 1092 335 1092 q 379 1090 371 1090 q 411 1092 401 1090 l 438 1110 q 529 1117 483 1117 q 683 1099 603 1117 l 689 1111 q 746 1094 733 1111 l 738 1094 l 768 1071 q 779 988 769 1047 q 786 900 788 936 l 768 865 q 799 804 769 863 m 624 71 q 556 -25 624 50 l 546 64 q 558 95 546 81 q 586 110 569 110 q 624 71 624 110 m 599 10 q 525 -56 599 -18 l 519 4 q 557 49 519 49 q 599 10 599 49 m 564 -79 q 490 -142 564 -108 l 485 -85 q 522 -40 485 -40 q 549 -53 535 -40 q 564 -79 564 -67 m 439 526 l 439 676 q 363 583 363 610 q 378 547 363 564 q 439 526 399 526 m 319 643 q 281 683 319 683 q 255 665 268 683 q 242 635 242 647 l 250 546 q 319 643 319 622 z "},"8":{"ha":1046,"x_min":0,"x_max":951,"o":"m 935 588 q 867 436 935 536 l 869 638 l 935 638 l 935 588 m 931 290 q 860 224 931 265 l 851 283 q 890 329 851 329 q 917 317 903 329 q 931 290 931 306 m 947 246 q 876 183 947 218 l 868 240 q 907 285 868 285 q 932 272 917 285 q 947 246 947 258 m 951 165 q 883 33 951 114 l 886 217 l 951 215 l 951 165 m 835 163 q 822 31 835 72 q 765 -89 813 -4 q 774 -106 774 -97 q 711 -143 774 -153 q 717 -146 714 -146 q 685 -192 699 -183 q 632 -207 678 -196 q 626 -210 629 -207 q 590 -246 597 -243 q 536 -249 582 -249 q 482 -263 521 -249 q 418 -278 443 -278 q 207 -221 326 -278 q 57 -71 67 -156 q 56 -65 57 -74 q 19 -17 42 -54 q 7 51 10 10 q 0 121 1 115 q 8 146 1 128 q 6 206 6 185 q 24 269 6 243 q 42 317 42 294 q 81 365 42 347 q 133 432 97 389 l 133 439 q 115 460 133 449 q 83 486 92 474 q 40 582 60 521 q 21 685 21 643 q 40 801 21 733 q 75 915 58 858 q 126 918 111 918 q 108 911 124 911 l 107 911 q 108 911 108 903 l 108 925 q 113 953 108 932 q 118 975 118 974 q 156 982 153 981 q 169 1006 158 983 q 226 1057 181 1029 q 294 1085 272 1085 l 296 1085 l 300 1100 q 350 1101 340 1103 q 394 1085 354 1100 l 397 1085 q 407 1099 392 1089 q 443 1113 422 1110 q 515 1090 483 1090 q 573 1070 547 1090 q 604 1050 599 1050 q 647 1010 643 1050 l 647 1007 q 740 919 694 963 q 788 793 786 869 l 801 778 q 814 661 814 733 q 711 449 814 581 q 701 443 707 447 q 703 429 701 433 l 703 425 q 769 368 764 381 q 793 294 782 332 l 819 268 q 835 163 835 224 m 611 721 l 586 749 l 588 746 q 574 706 586 733 q 561 664 561 679 q 564 642 561 649 q 556 624 561 635 q 493 564 540 579 q 403 544 447 554 l 390 532 q 369 546 385 533 q 337 558 354 558 q 303 582 319 558 q 289 643 288 606 l 257 656 q 253 681 253 668 q 303 799 253 743 q 413 854 354 854 q 492 835 450 854 q 544 792 533 817 q 550 758 547 767 q 568 731 554 743 l 611 721 m 594 142 q 544 253 594 194 q 440 322 493 313 l 428 308 q 358 307 422 307 l 354 307 l 256 236 q 240 139 240 204 q 263 63 240 83 l 274 49 q 271 24 274 38 q 340 -7 288 25 l 356 -32 q 443 -44 392 -44 l 453 -44 l 467 -25 q 514 -11 489 -11 q 575 68 529 21 q 594 142 594 88 m 517 599 q 443 532 517 571 l 438 593 q 449 623 438 608 q 476 638 460 638 q 502 625 488 638 q 517 599 517 613 m 432 650 q 401 629 419 638 l 389 629 l 369 635 q 335 690 335 669 q 374 725 335 725 l 392 721 q 421 690 414 700 q 432 650 431 675 m 517 244 q 444 122 517 222 l 438 229 q 449 264 436 244 q 478 283 461 283 q 517 244 517 283 m 499 183 q 429 88 499 163 l 421 175 q 434 205 421 188 q 460 222 447 222 q 499 183 499 222 m 508 139 q 438 74 508 115 l 429 138 q 467 179 429 179 q 508 139 508 179 m 382 304 q 367 60 367 163 q 308 89 332 60 q 290 128 290 111 q 382 304 290 153 m 379 79 q 308 15 379 51 l 300 74 q 339 118 300 118 q 365 105 350 118 q 379 79 379 92 m 371 211 q 356 238 371 225 q 329 250 340 250 q 292 206 292 250 l 299 146 q 371 211 371 183 z "},"9":{"ha":943,"x_min":-1,"x_max":860,"o":"m 860 675 q 831 519 853 624 l 813 510 q 788 422 800 467 q 744 347 772 372 q 722 309 728 332 q 713 266 717 286 q 699 224 710 246 l 682 214 q 583 -1 633 76 l 569 -10 q 546 -81 557 -44 q 501 -146 533 -111 q 479 -173 482 -167 q 471 -210 476 -179 q 425 -272 463 -256 q 346 -282 400 -282 q 288 -280 333 -282 q 197 -278 242 -278 q 276 -85 228 -171 q 339 39 319 -8 l 339 42 q 338 54 338 46 q 355 94 338 74 q 372 135 372 114 q 392 179 372 156 q 419 217 417 210 q 431 253 422 224 q 392 249 413 249 q 261 293 350 249 q 146 369 172 338 q 117 428 131 389 q 93 482 104 468 q 60 549 60 524 q 75 603 60 563 l 64 614 q 56 665 56 647 q 73 738 56 690 q 88 811 90 785 q 85 846 85 836 q 92 885 85 861 l 118 901 q 258 1056 126 988 q 461 1115 372 1115 q 633 1079 583 1115 q 660 1043 642 1068 q 696 1026 667 1038 q 738 996 721 1018 l 753 946 q 794 926 768 944 l 794 872 l 801 858 l 800 851 l 828 851 q 811 779 822 828 q 851 742 833 767 q 824 694 840 724 l 860 675 m 90 633 q 15 689 15 633 q 90 789 15 715 l 90 633 m 86 646 q 14 578 86 619 l 8 639 q 19 669 8 654 q 46 683 29 683 q 72 671 57 683 q 86 646 86 658 m 419 246 l 240 250 l 242 315 q 419 246 317 321 m 76 492 q 7 394 76 471 l -1 483 q 12 513 -1 496 q 38 531 25 531 q 76 492 76 531 m 244 -106 l 240 -171 q 171 -165 199 -171 l 157 -162 q 126 -129 126 -157 q 163 -96 126 -94 q 244 -106 183 -96 m 608 667 q 600 736 608 681 q 585 804 590 797 q 513 839 550 821 l 504 854 q 447 861 483 861 q 426 860 433 861 q 367 842 393 836 l 361 842 q 364 836 364 839 q 336 800 364 822 l 333 799 q 328 776 329 794 q 422 726 342 772 q 313 703 332 703 q 303 618 303 638 l 303 600 l 317 593 q 329 549 322 572 q 384 506 342 524 q 464 488 426 488 q 571 537 533 488 q 608 667 608 586 m 476 483 q 461 510 476 497 q 435 522 446 522 q 397 481 397 522 l 407 421 q 476 483 476 457 m 606 672 q 536 604 606 644 l 528 665 q 565 711 528 711 q 606 672 606 711 m 483 660 q 415 565 483 639 l 407 654 q 419 685 407 671 q 447 700 431 700 q 483 660 483 700 m 489 622 q 485 544 489 593 q 469 509 483 529 q 450 489 454 489 q 431 503 444 489 q 417 532 417 518 q 421 586 417 551 q 425 622 425 617 l 489 622 z "}," ":{"ha":504,"x_min":0,"x_max":0,"o":""},"!":{"ha":429,"x_min":-25,"x_max":325,"o":"m 76 832 q 14 765 76 806 l 6 826 q 40 871 6 871 q 76 832 76 871 m 68 801 q 6 672 68 783 l -1 788 q 8 822 -3 803 q 33 842 18 842 q 68 801 68 842 m 325 1094 q 318 1017 318 1049 q 319 990 318 999 q 318 999 318 999 q 292 968 306 968 q 267 1000 279 968 q 264 992 265 994 l 271 990 l 321 983 q 310 856 321 942 l 240 769 l 240 850 q 219 872 219 858 q 253 904 219 890 l 249 872 l 249 868 l 258 894 q 269 869 267 885 l 294 869 l 299 833 l 299 826 q 315 744 315 768 q 274 631 315 682 q 292 621 285 625 q 292 519 288 564 q 296 457 296 476 q 286 383 296 422 l 283 382 q 267 258 279 338 q 275 225 275 238 q 267 183 275 203 q 274 117 274 146 l 274 67 q 250 99 253 86 l 240 57 q 157 43 221 54 q 132 132 133 121 q 124 222 124 168 q 111 301 124 254 l 129 315 q 131 313 135 319 l 124 306 q 149 296 136 300 q 131 313 142 299 l 129 315 q 100 379 122 328 q 108 431 100 401 q 117 472 117 460 q 103 540 117 494 q 90 610 90 585 q 100 781 90 647 l 86 796 q 83 851 83 814 q 85 869 83 863 l 85 874 q 86 888 85 879 q 86 900 86 896 l 88 900 l 71 925 q 90 954 76 947 q 85 1053 88 989 q 122 1090 104 1064 l 144 1094 q 174 1085 160 1094 q 202 1098 174 1085 q 246 1111 231 1111 q 325 1094 265 1111 m 68 740 q 6 642 68 719 l -1 732 q 10 761 -3 743 q 33 779 22 779 q 68 740 68 779 m 72 710 q 69 638 72 683 q 65 564 65 583 l 8 567 q 11 640 8 593 q 15 713 15 693 l 72 710 m 83 542 q 21 478 83 518 l 14 540 q 47 582 14 582 q 83 542 83 582 m 83 496 q 29 408 83 476 q 14 493 14 483 q 50 536 14 536 q 83 496 83 536 m 92 453 q 26 392 92 425 l 22 449 q 56 492 19 492 q 78 478 65 492 q 92 453 92 465 m 83 415 q 29 328 83 396 q 14 411 14 401 q 50 456 14 456 q 83 415 83 456 m 161 229 q 97 164 161 203 l 92 224 q 100 253 90 239 q 125 268 110 268 q 161 229 161 268 m 99 264 q 36 142 99 242 q 29 225 29 192 q 64 304 29 304 q 99 264 99 304 m 194 176 q 182 -60 182 49 q 129 -31 150 -60 q 114 10 114 -8 q 194 176 114 38 m 72 -104 q 19 -83 38 -104 q 6 -49 6 -68 q 72 46 6 -21 l 72 -104 m 68 19 q 6 -110 68 1 l -1 7 q 8 42 -3 22 q 33 61 18 61 q 68 19 68 61 m 303 -174 q 204 -278 303 -278 q 111 -281 126 -278 q 94 -119 106 -222 q -25 -61 83 -115 q 119 -47 46 -51 q 182 -10 131 -28 l 182 -29 q 221 -26 207 -26 q 299 -32 239 -26 q 301 -115 299 -69 q 303 -174 303 -160 m 169 338 q 156 363 169 350 q 133 376 143 376 q 100 332 97 376 l 104 275 q 169 338 169 308 m 165 218 l 165 374 q 99 274 99 300 q 165 218 99 218 z "},"\"":{"ha":422,"x_min":4,"x_max":347,"o":"m 324 1271 q 314 1093 314 1161 q 265 1114 283 1093 q 250 1142 250 1129 q 324 1271 250 1160 m 200 1175 q 140 1126 200 1154 l 135 1172 q 167 1207 135 1207 q 188 1197 176 1207 q 200 1175 200 1186 m 347 1011 l 254 1011 l 282 1038 q 283 1025 282 1033 q 283 1011 283 1017 q 278 986 283 997 l 296 960 q 208 939 257 942 l 210 949 q 176 932 193 935 l 150 956 q 143 990 143 976 q 147 1032 143 1001 q 151 1088 151 1063 q 176 1101 176 1100 q 149 1100 174 1104 q 188 1068 185 1075 q 158 1090 183 1071 q 167 1101 161 1093 q 187 1142 176 1122 q 235 1172 197 1161 l 288 1151 q 285 1061 288 1111 q 347 1011 304 1047 m 193 1132 q 190 1085 193 1103 l 157 871 l 131 1078 q 136 1138 129 1088 l 193 1132 m 143 953 q 63 928 75 928 q 8 944 51 933 q 4 1104 8 929 l 10 1107 l 8 1117 q 10 1135 8 1129 q 42 1168 33 1163 q 85 1181 58 1181 q 115 1176 94 1181 q 143 1172 136 1172 q 135 1054 135 1104 q 143 953 135 1011 m 311 1104 q 268 1146 311 1128 q 246 1092 244 1108 l 253 933 q 311 1104 311 1089 m 142 1171 q 131 1193 142 1183 q 110 1203 119 1203 q 78 1167 78 1203 l 83 1115 q 142 1171 142 1151 m 153 1150 q 119 1182 153 1182 q 88 1147 88 1182 l 94 1100 q 153 1150 153 1131 z "},"#":{"ha":492,"x_min":-25,"x_max":617,"o":"m 382 492 q 347 453 388 453 l 317 458 l 317 483 q 313 519 313 496 l 336 529 q 382 492 382 529 m 617 333 l 332 333 l 326 314 q 286 324 289 324 l 285 325 l 276 317 l 271 317 l 254 272 l 221 332 l 275 346 l 274 322 l 269 261 q 226 269 226 261 q 239 292 226 278 q 240 321 232 318 q 264 324 247 324 l 265 304 l 267 293 l 267 283 l 265 257 q 258 208 265 242 l 253 201 l 253 171 l 165 171 l 147 203 q 164 326 153 243 l 168 331 l 168 343 l 226 342 l 207 144 l 165 318 l 157 318 q 150 317 151 318 q 151 308 149 315 q 154 294 154 301 q 149 267 154 286 q 140 238 142 243 q 138 193 140 225 q 96 169 114 169 q 65 179 94 169 q 63 179 63 181 l 71 179 q 35 236 35 190 q 47 315 35 236 l 49 321 l 44 321 q -25 317 35 321 l 6 368 l 0 378 l 0 421 q 58 418 49 418 q 68 468 63 435 q 33 474 54 468 l 10 499 q 6 569 10 539 q 82 567 64 569 q 83 571 83 568 q 82 586 83 575 q 82 603 82 597 l 83 622 l 92 631 q 89 686 96 643 l 157 686 l 131 658 l 165 632 q 106 628 151 628 q 113 726 104 674 q 214 729 179 726 q 197 625 210 711 l 193 619 l 193 607 l 190 585 l 185 582 q 189 542 185 583 l 171 558 l 153 539 l 153 781 l 207 579 q 210 569 208 574 l 217 569 l 213 565 l 211 565 l 225 535 q 197 571 197 546 q 197 604 197 604 l 208 606 l 203 607 l 207 618 l 204 622 l 214 658 q 228 711 215 674 l 232 711 l 232 736 q 282 722 281 722 q 313 683 313 708 q 310 663 313 676 l 281 699 q 306 653 299 672 l 314 653 q 300 579 313 626 q 301 574 301 576 q 374 572 317 572 l 361 546 q 346 508 360 542 l 292 532 l 304 556 l 361 556 l 361 511 l 346 528 l 350 481 q 321 473 340 479 q 290 465 301 467 q 286 404 290 450 l 288 401 l 258 425 l 278 425 l 285 415 l 286 414 l 286 419 q 331 431 290 419 q 333 396 333 403 l 617 333 m 317 344 l 269 160 q 258 282 258 236 q 283 353 258 353 l 317 344 m 343 625 q 324 645 343 632 q 288 661 306 658 l 246 588 q 318 604 286 589 q 343 625 343 617 m 356 626 l 321 636 q 294 581 294 636 q 307 471 294 542 l 356 626 m 267 624 q 256 646 267 635 q 235 657 244 657 q 203 619 203 657 l 208 567 q 267 624 267 603 m 244 600 q 210 633 244 632 q 183 621 200 633 q 167 596 167 608 q 181 573 167 583 q 203 563 194 563 q 228 574 213 563 q 244 600 244 586 m 318 593 l 288 606 q 263 540 263 606 q 276 418 263 493 l 318 593 m 342 499 l 306 510 q 268 451 268 510 q 274 390 268 431 q 281 328 279 342 l 342 499 m 324 413 q 292 446 324 446 q 260 410 260 446 l 267 354 q 324 413 324 394 m 199 385 l 199 597 q 138 426 139 438 q 149 394 135 406 q 199 385 164 383 m 313 343 l 254 351 l 251 332 l 310 324 l 313 343 m 197 406 q 164 439 197 439 q 133 403 133 439 l 140 356 q 197 406 197 383 m 271 281 l 263 282 l 244 282 q 211 222 211 286 l 240 219 l 268 219 l 271 281 m 217 306 l 160 317 l 157 303 l 214 292 l 217 306 m 186 338 l 128 344 l 125 325 l 183 318 l 186 338 m 215 288 l 157 296 l 153 274 l 211 264 l 215 288 m 179 299 l 121 310 l 118 290 l 176 279 l 179 299 m 192 256 q 158 289 192 289 q 126 253 126 289 l 131 215 q 192 256 192 225 m 181 267 q 169 289 181 278 q 149 300 158 300 q 117 263 117 300 l 124 210 q 181 267 181 247 m 351 613 l 313 503 q 274 578 274 567 q 351 613 274 613 m 331 460 q 271 411 331 436 l 267 457 q 297 493 267 493 q 331 460 331 493 m 325 436 l 321 415 l 264 426 l 267 447 l 325 436 m 235 447 l 169 447 q 167 417 167 428 l 167 415 q 192 431 172 421 q 211 397 201 415 l 189 411 l 174 401 l 172 411 l 168 456 l 172 456 l 154 556 l 233 457 l 197 443 l 181 436 l 181 467 l 171 467 q 179 481 169 481 q 235 447 194 481 m 201 454 l 199 431 l 140 440 l 143 464 l 201 454 m 342 567 l 283 578 l 281 557 l 338 546 l 342 567 z "},"$":{"ha":763,"x_min":-4,"x_max":664,"o":"m 485 731 q 418 668 485 706 l 411 728 q 447 769 411 769 q 485 731 485 769 m 654 210 q 635 132 650 188 q 610 60 617 71 q 576 31 604 49 q 565 1 569 10 q 546 -24 558 -12 l 526 -29 q 468 -81 483 -72 q 396 -106 453 -90 q 401 -132 397 -114 q 379 -161 394 -143 q 385 -160 382 -160 q 378 -143 385 -160 l 406 -169 q 392 -212 403 -186 l 411 -262 q 350 -264 378 -264 q 324 -265 329 -265 q 258 -176 258 -265 q 265 -114 258 -167 q 151 -74 208 -94 q 44 -12 90 -50 l 39 8 l 35 8 q 1 86 -4 13 q 90 204 40 122 q 157 156 111 188 q 213 117 188 139 l 217 103 q 239 101 222 101 q 268 103 258 101 q 267 176 269 129 q 264 250 264 229 q 271 297 264 267 q 278 342 278 326 q 213 381 278 354 q 67 522 107 424 q 46 603 40 561 l 39 606 q 28 669 28 638 q 74 846 28 756 q 199 968 125 949 q 269 989 232 975 q 271 1033 271 992 q 276 1074 271 1054 l 313 1113 q 379 1094 361 1107 q 400 1038 404 1078 q 400 1026 400 1035 q 399 1013 399 1018 q 443 986 399 994 q 508 954 488 978 l 508 954 q 529 960 519 960 q 560 950 539 960 l 579 914 q 629 892 592 910 q 542 728 606 826 q 408 783 431 783 q 399 764 399 783 q 403 722 399 750 q 407 681 407 694 q 396 624 407 658 l 360 613 l 375 635 l 336 660 l 347 664 q 389 633 383 664 l 390 631 q 393 544 392 590 q 407 542 397 544 l 414 539 q 461 568 428 556 q 475 507 479 522 l 475 507 q 515 489 506 496 q 539 451 535 475 l 539 449 q 543 454 543 453 q 576 446 558 454 l 583 421 q 611 399 607 415 q 614 358 614 390 l 615 360 q 644 238 644 306 l 644 233 q 632 229 639 229 l 654 210 m 664 146 q 597 -67 664 126 l 592 125 q 617 200 592 149 q 664 150 664 171 l 664 146 m 658 44 q 592 -12 658 18 l 585 43 q 619 83 585 83 q 658 44 658 83 m 644 10 q 578 -79 644 -10 l 571 4 q 608 49 567 49 q 644 10 644 49 m 251 386 q 188 265 251 368 l 178 388 l 204 433 q 251 386 251 413 m 471 -151 q 464 -179 471 -165 q 404 -275 464 -181 q 397 -194 397 -228 q 436 -112 397 -112 q 471 -151 471 -112 m 471 -228 q 404 -322 471 -247 l 397 -236 q 407 -206 396 -222 q 433 -189 418 -189 q 471 -228 471 -189 m 429 667 l 429 813 q 358 718 358 743 q 429 667 358 667 m 304 786 l 285 786 q 261 769 274 778 q 225 758 249 760 q 236 742 236 758 q 222 682 236 744 q 219 656 219 669 q 242 601 219 635 q 271 568 264 568 q 274 579 275 568 q 271 601 269 596 q 275 678 275 638 q 274 749 275 696 q 272 821 271 794 l 304 786 m 432 542 q 394 581 432 581 q 369 565 381 581 q 358 536 358 549 l 367 449 q 432 542 432 524 m 457 214 q 453 163 457 176 q 424 124 446 140 l 418 119 l 415 136 q 351 85 351 124 q 353 75 351 82 q 353 65 353 69 q 393 94 365 75 l 392 96 q 389 101 389 99 l 389 140 q 396 174 389 151 q 403 210 403 197 q 396 256 403 226 q 389 301 389 286 q 390 310 389 304 q 390 317 390 315 q 449 279 438 299 q 457 214 457 265 m 425 200 q 388 238 425 238 q 351 196 351 238 l 358 136 q 425 200 425 176 m 422 93 l 422 239 q 351 143 351 167 q 422 93 351 93 m 472 176 q 428 226 472 199 q 399 156 397 181 l 404 1 q 472 176 472 157 m 418 -179 q 381 -140 418 -140 q 356 -156 367 -140 q 344 -185 344 -172 l 353 -272 q 418 -179 418 -197 z "},"%":{"ha":878,"x_min":-8,"x_max":788,"o":"m 735 832 q 665 768 735 807 l 658 831 q 694 874 658 874 q 735 832 735 874 m 717 810 q 706 781 717 792 q 700 774 701 776 l 688 761 l 674 760 q 645 769 658 758 q 632 799 632 781 q 681 846 632 846 q 717 810 717 846 m 650 638 q 582 576 650 611 l 572 635 q 608 678 572 678 q 650 638 650 678 m 599 533 q 526 464 599 507 l 521 525 q 530 556 519 542 q 558 571 540 571 q 585 559 571 571 q 599 533 599 547 m 444 646 q 375 581 444 622 l 367 643 q 404 686 367 686 q 444 646 444 686 m 388 868 q 351 676 388 761 q 218 568 304 568 l 208 568 l 208 550 q 142 565 153 546 q 8 679 40 565 q -8 872 -8 736 q 29 1015 -8 969 q 33 1044 33 1021 q 89 1072 56 1072 q 115 1090 94 1072 q 142 1111 129 1100 l 225 1111 q 260 1081 251 1081 q 324 1017 310 1081 q 354 985 329 1008 q 379 946 374 965 q 388 868 388 915 m 582 488 q 513 424 582 463 l 503 485 q 540 526 503 526 q 567 514 551 526 q 582 488 582 501 m 376 679 q 304 489 376 657 l 299 660 q 311 697 299 674 q 339 721 324 721 q 365 707 354 721 q 376 679 376 693 m 768 1053 q 725 1013 754 1013 l 719 1013 q 738 1036 719 1035 q 731 1033 732 1036 q 731 1013 731 1031 l 731 1000 q 742 1008 733 1004 q 731 964 738 983 l 717 965 l 743 911 l 703 911 q 649 779 685 872 l 639 774 q 640 767 639 772 q 640 760 640 763 q 618 713 640 733 q 592 690 604 701 q 588 663 589 664 q 575 636 585 650 l 574 635 q 582 619 575 632 q 533 568 564 572 q 539 566 533 568 q 544 557 544 564 q 506 503 544 538 q 485 422 501 476 l 468 414 q 451 360 460 386 q 422 314 443 335 q 404 272 410 301 q 390 221 399 236 l 363 200 l 363 197 q 364 185 364 193 q 344 131 364 171 q 318 76 332 104 l 313 76 q 296 41 313 58 q 279 1 279 24 q 253 -58 279 -29 l 242 -71 q 219 -115 219 -96 q 202 -149 219 -135 q 185 -182 185 -164 q 119 -249 185 -226 q 21 -271 69 -260 l 25 -228 l 24 -225 q 14 -189 14 -206 l 19 -158 l 43 -150 l 43 -114 q 113 -94 67 -108 q 138 -64 124 -71 l 125 -99 q 142 -112 135 -100 q 94 -99 131 -112 l 94 -42 q 106 -6 94 -31 q 118 38 118 18 q 142 89 118 64 q 165 138 165 114 q 197 213 165 176 q 229 281 229 250 q 246 321 229 304 q 268 346 267 343 q 324 489 283 394 l 349 506 q 371 569 356 526 l 375 569 q 408 639 378 597 q 436 715 438 681 q 479 750 451 739 q 481 747 479 749 q 482 744 482 746 q 513 829 493 774 q 504 861 504 844 l 508 885 l 531 900 q 531 910 531 904 q 529 919 529 917 q 553 972 529 944 q 579 1017 578 999 q 603 1085 585 1064 q 667 1106 622 1106 q 699 1103 674 1106 q 746 1101 724 1101 l 768 1053 m 475 499 q 82 454 276 469 l 235 532 q 222 507 235 515 q 242 494 236 507 l 247 542 q 278 543 242 543 q 313 542 299 543 l 475 499 m 478 275 q 406 211 478 247 l 401 269 q 410 300 400 286 q 438 314 421 314 q 478 275 478 314 m 788 -47 l 747 -58 q 749 -61 749 -60 l 726 -36 l 783 -54 q 740 -179 769 -104 q 672 -242 732 -193 l 651 -274 q 608 -281 629 -281 q 571 -279 606 -281 q 519 -279 544 -278 q 500 -236 507 -258 l 497 -236 q 431 -208 443 -224 q 413 -137 414 -192 l 397 -119 q 382 6 382 -61 q 433 172 382 133 q 460 201 457 190 q 469 228 465 221 q 531 247 483 247 l 533 247 q 583 268 551 268 q 647 256 610 268 q 708 235 678 246 q 717 206 715 208 q 733 185 721 194 q 764 124 761 164 l 782 114 q 788 -47 781 60 m 401 124 q 332 57 401 97 l 324 118 q 361 163 324 163 q 401 124 401 163 m 340 -8 l 307 -74 q 264 -36 292 -61 q 249 -1 249 -19 q 263 26 249 15 q 292 38 278 38 q 340 -8 325 38 m 590 646 q 549 686 590 686 q 513 643 513 686 l 519 581 q 590 646 590 622 m 279 754 l 254 879 l 208 733 q 182 729 200 729 q 153 735 163 729 q 139 767 149 750 l 135 776 l 149 803 q 151 876 149 860 q 176 944 156 908 q 192 943 181 943 l 196 942 l 196 938 q 236 872 207 911 l 231 890 l 231 888 q 213 826 213 843 q 218 785 213 813 q 222 743 224 757 l 249 769 l 278 736 l 278 744 l 279 754 m 453 733 q 414 775 453 775 q 388 757 400 775 q 376 725 376 739 q 357 492 376 689 q 453 733 453 710 m 436 585 q 396 625 436 625 q 358 581 358 625 l 367 518 q 436 585 436 560 m 203 747 q 192 777 203 763 q 165 792 182 792 q 137 771 149 792 q 126 735 125 750 l 136 557 q 203 747 203 726 m 576 186 q 494 21 494 49 q 513 -18 494 4 q 569 -47 535 -47 q 576 186 568 26 m 633 -15 l 633 -3 l 619 -3 q 606 96 615 35 q 578 97 596 97 q 539 60 546 97 q 536 -7 536 46 q 547 -94 536 -82 q 600 -111 553 -100 q 628 -69 625 -76 q 633 -15 633 -56 m 299 -19 q 284 6 299 -7 q 258 19 269 19 q 221 -24 221 19 l 226 -81 q 299 -19 299 -47 z "},"&":{"ha":1321,"x_min":-1,"x_max":1285,"o":"m 1285 -242 q 1229 -256 1267 -246 q 1200 -262 1201 -262 q 1176 -254 1188 -262 q 1122 -272 1157 -265 l 1104 -244 q 1069 -253 1086 -253 l 1057 -250 q 1009 -202 1031 -240 q 971 -154 988 -164 q 943 -136 963 -147 q 886 -185 915 -161 q 815 -210 867 -197 q 760 -243 792 -243 q 729 -237 749 -243 q 700 -232 710 -232 q 699 -226 699 -228 q 813 -212 699 -212 l 847 -212 l 750 -243 q 678 -262 688 -262 q 657 -257 668 -262 q 596 -278 633 -278 q 542 -270 578 -278 q 488 -262 507 -262 q 439 -244 464 -262 l 429 -237 q 392 -226 410 -226 l 360 -221 l 351 -190 q 293 -176 322 -183 q 236 -146 269 -171 q 258 -111 256 -117 l 261 -107 q 263 -110 261 -108 q 263 -111 263 -110 q 279 -108 272 -108 q 303 -140 303 -108 l 311 -136 l 303 -132 l 281 -121 q 257 -111 272 -118 q 190 -35 210 -71 q 169 69 169 7 q 168 78 169 71 l 164 86 l 158 89 q 207 124 186 110 l 208 113 l 208 106 q 171 67 208 67 q 132 89 156 67 q 144 199 133 126 l 160 214 q 160 232 160 221 q 158 249 158 243 q 178 306 158 275 q 199 347 199 338 q 242 421 199 389 q 293 464 290 458 q 323 512 308 499 q 372 531 338 525 l 381 532 q 368 572 372 560 q 343 607 360 590 l 336 614 q 314 697 314 636 l 314 711 l 285 732 l 282 754 q 290 802 279 772 q 300 847 300 832 l 308 851 l 349 876 q 313 893 343 876 q 310 872 311 875 l 310 872 q 308 851 310 871 l 307 847 q 310 833 311 843 q 239 899 307 836 l 317 899 q 340 972 321 924 q 449 1063 368 1015 q 581 1111 529 1111 q 617 1101 590 1111 l 643 1092 q 674 1094 646 1090 q 707 1097 703 1097 q 724 1096 713 1097 q 746 1093 736 1094 q 800 1014 790 1049 l 803 1008 l 844 1017 q 921 783 910 918 l 938 772 q 933 722 933 757 q 902 660 933 688 q 871 608 871 632 l 869 600 q 822 563 860 572 q 800 526 811 544 q 765 497 789 508 q 732 482 750 492 l 732 479 q 731 461 729 458 q 739 474 733 463 l 732 479 q 719 488 722 486 q 752 461 744 472 q 771 418 760 450 q 781 393 776 401 l 807 379 q 808 344 810 358 q 857 324 842 342 q 881 274 869 311 q 893 279 886 279 q 961 197 918 279 l 978 197 l 949 176 q 958 222 950 192 q 990 261 968 240 q 1025 297 1018 288 l 1025 306 q 1035 342 1022 331 l 1056 383 l 1097 383 q 1224 265 1224 383 q 1213 186 1224 210 q 1154 129 1199 156 q 1146 100 1146 124 q 1133 65 1146 86 q 1114 31 1115 36 q 1118 -8 1115 18 q 1201 -103 1143 -15 q 1285 -242 1250 -174 m 339 810 q 322 567 322 667 q 264 596 288 567 q 246 635 246 618 q 339 810 246 661 m 210 681 q 140 586 210 661 l 132 675 q 144 706 132 692 q 172 721 156 721 q 210 681 210 721 m 211 593 q 139 528 211 568 l 132 590 q 169 633 132 633 q 211 593 211 633 m 219 558 q 149 461 219 539 l 139 550 q 152 580 139 563 q 179 597 165 597 q 219 558 219 597 m 272 451 q 201 386 272 428 l 193 449 q 231 490 193 490 q 272 451 272 490 m 122 300 q 51 236 122 275 l 43 297 q 81 340 43 340 q 122 300 122 340 m 96 228 q 24 107 96 207 l 17 214 q 27 248 15 228 q 56 268 39 268 q 96 228 96 268 m 78 167 q 7 69 78 146 l -1 158 q 12 188 -1 171 q 39 206 25 206 q 78 167 78 206 m 101 14 q 40 35 61 14 q 25 69 25 50 q 101 169 25 96 l 101 14 m 715 779 q 674 869 703 814 q 594 885 617 885 q 547 850 583 885 q 511 794 511 815 q 540 712 511 757 q 596 660 568 667 q 607 671 599 664 q 665 696 658 692 q 697 746 694 714 l 699 767 l 715 779 m 636 683 q 622 710 636 697 q 594 722 607 722 q 567 708 578 722 q 556 678 556 693 l 561 617 q 636 683 636 656 m 804 43 q 776 75 794 54 l 772 79 l 749 54 q 725 139 719 110 q 692 158 708 149 q 658 215 661 179 q 657 221 658 217 q 600 267 635 236 q 567 321 583 294 q 529 363 542 363 q 464 339 500 363 l 464 326 q 389 243 408 275 q 364 156 364 204 q 372 104 364 138 q 382 56 381 71 q 418 15 408 47 q 454 18 428 18 l 454 -10 q 596 -56 565 -56 q 794 36 671 -56 l 794 43 l 796 53 l 796 61 l 804 43 m 211 211 q 169 251 211 251 q 132 208 132 251 l 139 150 q 211 211 211 186 m 199 113 l 199 267 q 122 168 122 196 q 138 133 122 149 q 199 113 158 113 m 219 88 q 179 126 219 126 q 152 109 165 126 q 139 79 139 92 l 149 -10 q 219 88 219 68 m 706 185 q 635 118 706 160 l 626 182 q 664 225 626 225 q 706 185 706 225 m 547 300 q 475 239 547 274 l 468 296 q 506 340 468 340 q 533 329 519 340 q 547 300 547 318 m 776 69 q 706 -28 776 49 l 697 60 q 710 92 697 76 q 739 108 722 108 q 776 69 776 108 m 786 26 q 713 -36 786 -1 l 706 21 q 744 65 706 65 q 771 52 756 65 q 786 26 786 39 m 582 76 q 513 -18 582 57 l 503 71 q 515 102 503 88 q 543 117 526 117 q 582 76 582 117 z "},"'":{"ha":242,"x_min":-14,"x_max":211,"o":"m 211 913 l 179 908 l 176 908 l 176 897 l 158 897 l 158 885 l 74 901 q 92 1067 74 982 q 140 1074 110 1068 l 124 1049 l 124 1036 q 144 1035 142 1036 q 147 1035 144 1035 l 143 1033 q 101 1015 138 1031 q 96 1076 99 1065 q 74 1129 93 1088 q 144 1169 125 1169 q 178 1164 157 1169 q 211 1157 206 1158 q 207 1083 210 1119 q 194 1008 206 1040 l 193 1008 q 211 913 203 993 m 94 976 l 68 950 l 56 949 q 25 979 25 946 q 35 1004 25 992 l 43 1015 l 64 1018 q 94 976 96 1018 m 85 949 q 27 976 50 960 q 4 1000 4 993 q 20 1019 4 1007 q 42 1031 36 1031 q 76 997 71 1031 q 85 949 76 997 m 111 933 q 57 854 111 917 l 49 928 q 59 952 49 939 q 81 965 69 965 q 111 933 111 965 m 49 974 q -8 919 49 953 l -14 969 q 17 1006 -14 1006 q 38 996 26 1006 q 49 974 49 986 z "},"(":{"ha":426,"x_min":-1,"x_max":369,"o":"m 354 867 q 294 771 354 844 l 286 858 q 297 888 286 872 q 321 904 308 904 q 354 867 354 904 m 333 810 q 274 715 333 789 l 265 803 q 300 849 265 849 q 333 810 333 849 m 286 626 q 222 567 286 601 l 215 625 q 249 667 215 667 q 286 626 286 667 m 278 596 q 217 535 278 569 l 208 593 q 242 635 208 635 q 278 596 278 635 m 256 551 q 222 507 256 533 q 178 474 200 490 q 163 561 163 535 q 197 600 163 603 q 214 586 208 593 q 222 588 217 588 l 225 588 q 256 551 256 588 m 264 489 q 201 304 264 465 l 196 472 q 206 508 196 488 q 231 529 217 529 q 264 489 264 529 m 338 -286 q 289 -281 296 -279 q 263 -283 269 -283 q 217 -264 246 -283 l 217 -249 l 157 -157 q 154 -143 157 -153 l 153 -143 q 117 -85 135 -114 q 97 -18 96 -47 q 99 17 97 -10 q 64 100 65 51 q 33 157 39 135 q 29 219 29 172 q 26 229 29 228 l 22 235 q 7 283 6 254 l 21 310 q 18 310 21 307 l 14 315 q -1 351 -1 336 q 14 390 -1 364 q 9 436 14 404 q 6 486 4 468 l 8 525 l 11 526 l 15 515 q 13 538 13 526 l 17 563 l 32 575 l 31 579 q 19 624 19 601 q 60 711 19 653 q 56 743 56 726 q 111 917 56 815 q 207 1069 124 940 l 211 1068 l 213 1082 l 257 1115 q 333 1096 272 1108 q 303 992 326 1060 l 296 986 q 296 953 296 986 l 278 932 q 263 888 275 922 q 233 792 258 850 q 229 790 232 792 q 225 786 226 788 l 228 783 q 188 585 221 711 q 143 601 172 589 q 149 600 146 601 q 167 625 160 625 l 147 642 l 197 642 l 197 618 l 200 618 q 208 564 208 576 q 195 503 208 540 q 182 450 182 467 q 190 324 182 407 q 199 282 199 299 q 190 253 199 269 q 217 239 199 249 l 193 189 q 214 146 214 171 l 214 140 q 221 135 218 138 q 231 54 231 106 l 285 -156 q 314 -201 304 -156 q 338 -286 317 -211 m 257 388 q 196 293 257 369 l 188 381 q 224 426 188 426 q 257 388 257 426 m 257 332 q 196 238 257 314 l 188 325 q 224 371 188 371 q 257 332 257 371 m 257 285 q 196 190 257 265 l 188 278 q 224 324 188 324 q 257 285 257 324 m 257 221 q 196 157 257 196 l 188 217 q 221 260 188 260 q 257 221 257 260 m 278 126 q 217 60 278 100 l 208 122 q 242 164 208 164 q 265 151 251 164 q 278 126 278 139 m 285 93 q 225 -1 285 74 l 215 86 q 251 132 215 132 q 285 93 285 132 m 306 7 q 244 -58 306 -18 l 236 3 q 269 44 236 44 q 292 32 279 44 q 306 7 306 19 m 369 -76 l 285 -117 l 249 -72 q 249 -64 249 -64 q 286 -28 254 -28 q 299 -43 292 -33 l 369 -76 m 313 -18 q 253 -112 313 -40 l 243 -25 q 279 21 243 21 q 313 -18 313 21 m 265 467 l 232 576 l 171 517 q 186 476 171 490 q 215 463 201 461 l 265 467 m 222 524 q 186 563 222 563 q 153 519 153 563 l 161 460 q 222 524 222 499 z "},")":{"ha":494,"x_min":-10,"x_max":394,"o":"m 374 535 q 308 474 374 508 l 303 531 q 336 574 303 574 q 374 535 374 574 m 394 488 q 331 394 394 467 l 324 479 q 358 526 319 526 q 394 488 394 526 m 394 368 q 328 304 394 343 l 324 364 q 333 393 322 379 q 358 407 343 407 q 394 368 394 407 m 335 439 q 335 349 336 360 q 306 274 331 331 q 297 165 297 256 q 279 90 297 117 q 261 44 261 63 q 238 -31 260 3 q 215 -86 215 -65 l 213 -106 l 186 -125 q 149 -197 168 -160 q 101 -256 129 -235 l 101 -272 l 65 -279 q -10 -290 28 -279 q 1 -215 1 -232 q 14 -167 1 -192 l 32 -153 q 40 -96 32 -137 l 63 -79 q 79 10 72 -53 q 103 100 86 67 q 113 124 111 117 q 113 138 114 129 q 111 161 111 150 q 119 199 111 174 l 126 203 l 126 213 q 135 244 126 235 l 128 256 q 133 344 128 283 q 138 438 138 406 q 135 496 138 469 l 142 504 l 135 521 q 142 558 140 546 l 126 567 l 128 601 l 126 601 q 121 679 121 632 q 110 713 121 688 q 99 753 99 738 q 101 771 99 763 l 103 775 l 104 782 q 119 804 110 797 q 133 811 128 811 q 149 765 149 811 q 107 489 149 692 l 107 771 q 101 778 106 774 q 94 785 97 783 q 94 843 94 785 q 69 867 86 853 q 60 918 60 892 l 49 918 q 43 988 42 954 q 17 1064 17 1032 q 63 1111 17 1111 q 157 1026 90 1111 q 224 913 224 942 q 221 900 224 906 l 232 892 l 239 863 q 254 819 254 832 l 264 817 q 267 751 264 764 l 289 735 q 293 650 293 715 q 325 610 293 638 q 301 571 322 606 q 331 514 331 556 q 326 485 331 503 q 321 460 321 468 q 335 439 325 457 m 363 157 q 318 169 336 157 q 296 210 296 185 q 363 311 296 235 l 363 157 z "},"*":{"ha":342,"x_min":10,"x_max":331,"o":"m 147 1075 q 143 1049 147 1060 q 89 922 143 1049 l 82 1060 q 110 1117 81 1081 q 147 1075 147 1093 m 94 1092 l 74 989 l 51 983 q 17 1018 17 983 q 94 1092 17 1049 m 117 1015 q 57 961 117 996 l 51 1014 q 82 1050 51 1050 q 117 1015 117 1050 m 331 833 q 314 783 331 819 q 258 800 296 790 l 235 788 l 224 790 l 222 781 q 217 751 217 761 q 221 742 218 746 q 232 710 225 731 q 142 685 207 706 q 113 790 113 758 l 72 803 l 72 811 q 65 813 68 811 l 100 854 l 106 846 q 115 811 115 831 q 51 763 104 790 q 19 806 19 788 q 29 825 19 817 q 61 843 38 839 l 58 833 l 50 800 l 67 807 l 11 735 l 11 836 l 61 856 q 50 861 54 856 l 25 849 q 72 890 38 868 l 72 896 q 79 908 75 901 l 68 917 q 79 975 68 964 q 117 979 100 996 l 117 979 q 115 1000 115 986 q 164 1081 115 1039 l 210 1081 q 221 1035 215 1065 q 240 1006 236 1026 q 279 1011 257 1011 l 296 1008 l 328 976 q 290 900 317 950 l 244 897 q 256 892 251 897 l 271 897 l 268 893 q 254 878 261 883 l 261 913 q 267 897 263 910 l 268 893 l 268 886 q 285 868 274 879 q 290 869 290 865 l 285 868 q 268 869 272 865 l 275 871 q 289 874 283 874 q 331 833 331 874 m 94 968 q 92 946 94 957 q 85 922 89 935 l 78 915 q 54 904 67 904 q 24 938 24 904 q 40 974 24 947 q 65 1000 57 1000 q 94 968 94 1000 m 86 881 l 53 869 q 10 926 10 888 q 19 951 10 938 q 40 964 28 964 q 68 934 50 964 q 86 881 86 904 m 254 1029 q 239 1065 254 1044 l 224 1071 q 189 1039 189 1071 q 201 996 189 1031 q 254 1029 254 993 m 185 1074 q 143 1118 183 1094 q 118 1056 117 1074 l 125 893 l 181 1047 q 185 1074 185 1067 m 153 1032 q 119 1067 153 1067 q 88 1031 88 1067 l 94 982 q 153 1032 153 1010 z "},"+":{"ha":936,"x_min":-94,"x_max":858,"o":"m 429 638 q 360 692 360 638 l 429 821 l 429 638 m 489 658 q 426 549 489 640 l 417 661 l 444 703 q 489 658 489 682 m 858 519 q 851 494 858 507 q 790 424 854 424 q 768 426 783 424 q 746 428 753 428 q 724 423 739 428 q 703 417 710 418 q 600 415 696 415 q 601 301 600 378 l 614 301 l 601 247 q 581 181 601 218 l 551 160 l 529 158 q 482 187 501 157 q 461 264 463 217 q 463 325 460 288 q 464 371 464 368 q 458 435 464 408 l 482 421 l 489 421 l 489 417 l 488 410 q 457 236 483 382 l 422 422 l 411 424 q 381 428 394 428 q 339 422 367 428 q 297 415 311 415 q 264 421 283 415 q 231 428 239 426 l 211 482 q 204 465 211 472 q 207 478 204 469 l 207 489 l -94 489 q 263 558 233 557 q 317 558 263 558 q 356 562 329 558 q 396 565 382 565 l 426 563 l 426 561 q 469 569 442 563 q 466 590 469 576 q 463 608 463 603 q 469 618 467 615 l 464 625 q 464 797 464 625 l 501 797 q 585 825 533 825 q 597 785 594 801 q 611 779 603 785 q 600 714 614 742 q 603 653 600 694 q 606 590 606 611 l 606 565 q 644 560 618 561 l 660 557 l 674 556 l 667 582 q 661 561 665 574 l 660 557 q 633 524 649 524 q 644 560 633 529 l 647 565 l 661 561 l 674 558 q 733 549 717 549 q 853 563 751 549 l 858 519 m 432 351 q 365 189 432 333 l 360 338 q 374 367 360 346 q 397 388 388 388 q 432 351 432 388 m 438 304 q 374 146 438 289 l 367 292 q 393 349 365 314 q 438 304 438 331 m 429 569 l 429 757 l 360 622 q 429 569 360 569 m 493 507 l 493 690 l 422 561 q 493 507 422 507 m 503 628 l 463 639 q 422 574 422 639 q 435 449 422 588 l 503 628 m 438 557 q 400 593 438 593 q 365 554 365 593 l 375 501 q 438 557 438 535 m 446 578 q 365 418 365 440 q 382 388 365 406 q 435 364 403 365 q 446 578 435 425 m 493 390 l 431 392 q 424 282 424 299 l 486 281 q 493 390 493 371 m 250 494 q 213 531 250 531 q 178 493 178 531 l 186 436 q 250 494 250 474 m 438 654 q 375 567 438 638 l 365 650 q 376 676 365 663 q 400 690 386 690 q 438 654 438 690 z "},",":{"ha":193,"x_min":-51,"x_max":199,"o":"m 124 190 q 72 142 124 171 l 65 189 q 93 224 65 224 q 124 190 124 224 m 124 161 q 97 126 124 146 l 63 161 q 63 150 65 157 q 63 156 63 151 q 61 160 61 158 q 90 190 61 190 l 99 190 q 124 161 124 186 m 199 19 l 139 19 l 163 36 l 144 -10 q 108 -21 128 -22 l 89 -62 l 54 -49 l 50 -19 l 38 -15 l 38 85 l 67 92 l 67 99 q -51 168 64 100 q 33 160 -24 165 q 118 150 90 154 q 161 190 128 163 q 183 46 169 149 l 129 63 l 154 85 l 135 106 l 171 106 q 176 63 176 63 q 199 19 178 58 m 82 128 q 69 154 82 144 l 69 201 l 1 147 l -1 128 q 56 -32 -1 108 l 56 108 q 82 128 82 124 z "},"-":{"ha":1042,"x_min":368,"x_max":926,"o":"m 926 572 q 861 501 926 556 q 858 522 860 513 q 856 554 856 540 q 892 603 856 603 q 926 572 926 603 m 843 604 q 807 575 843 575 l 793 576 l 783 585 q 768 611 768 597 q 806 639 768 639 l 824 636 q 843 604 843 617 m 879 606 l 700 594 l 628 596 l 628 649 l 717 649 l 728 647 l 879 606 m 897 479 q 865 440 897 457 q 836 439 876 440 q 783 439 804 436 q 746 453 753 442 l 772 465 q 756 483 756 476 q 774 492 756 492 l 776 440 q 404 439 453 440 l 407 474 q 408 471 408 472 l 407 503 l 410 507 q 368 554 397 522 l 428 592 q 497 592 428 592 q 537 585 513 592 q 572 576 561 578 q 617 586 599 586 q 746 588 714 586 l 746 576 q 839 581 821 581 q 875 532 857 556 q 897 479 897 500 m 569 614 q 503 568 569 594 l 499 613 q 509 634 499 624 q 533 644 519 644 q 569 614 569 644 z "},".":{"ha":578,"x_min":-86,"x_max":414,"o":"m 411 -61 q 347 -76 394 -64 q 281 -81 322 -83 q 242 -50 261 -71 q 217 -10 218 -26 q 271 21 232 21 q 333 6 276 21 l 411 31 l 411 -61 m 414 -243 q 335 -297 385 -257 q 290 -301 315 -301 q 171 -289 239 -301 q -86 -256 135 -282 q 47 -217 -56 -246 l 36 -211 q 92 -114 63 -172 q 75 -42 75 -72 q 81 -7 75 -51 l 156 42 q 199 -24 199 7 q 278 -36 201 -24 q 226 -67 263 -47 q 310 -74 301 -72 q 393 -89 357 -78 q 414 -243 399 -137 m 78 -106 q 38 -137 50 -111 q -33 -103 -33 -142 q 78 29 -33 -71 l 78 -106 m 82 -128 q 47 -182 82 -147 l 29 -183 q -2 -174 11 -185 q -15 -146 -15 -164 q 7 -106 -15 -121 q 44 -94 25 -94 q 82 -128 82 -94 z "},"/":{"ha":683,"x_min":-10,"x_max":608,"o":"m 474 906 l 346 910 q 314 943 314 910 q 349 976 314 978 q 474 906 406 978 m 363 903 q 292 836 363 875 l 286 897 q 296 927 285 913 q 324 942 307 942 q 349 929 335 942 q 363 903 363 917 m 344 847 q 279 751 344 825 l 269 840 q 281 872 269 857 q 308 886 293 886 q 344 847 344 886 m 325 679 l 286 675 q 247 722 246 675 q 325 771 265 754 l 325 679 m 294 686 q 226 621 294 660 l 218 681 q 256 725 218 725 q 281 713 267 725 q 294 686 294 700 m 285 649 q 218 519 285 628 l 210 635 q 220 669 208 650 q 249 689 232 689 q 285 649 285 689 m 608 999 q 601 942 608 976 l 576 924 q 581 883 581 882 q 564 838 581 856 q 543 815 554 826 q 533 743 539 803 q 503 657 531 697 q 480 619 482 626 q 478 569 478 613 q 450 488 478 532 q 410 417 415 432 q 418 385 418 403 q 386 271 418 356 l 376 267 q 378 261 376 265 q 378 256 378 258 l 374 233 l 349 208 q 351 186 351 194 q 335 130 351 165 q 318 74 318 94 l 311 47 l 288 33 q 290 -17 293 19 l 264 -44 q 265 -63 264 -51 q 267 -81 267 -75 l 264 -106 l 239 -135 q 240 -151 239 -140 q 242 -169 242 -162 q 196 -233 242 -206 q 197 -278 197 -240 l 140 -278 l 121 -218 q 118 -222 121 -219 q 121 -217 119 -221 l 119 -211 l 122 -204 q 122 -301 122 -204 l 144 -229 l 138 -239 q 135 -249 138 -239 q 129 -268 132 -258 l 42 -268 l 42 -174 l 74 -176 l 74 -174 q 96 -31 74 -117 q 132 113 129 97 l 143 113 l 143 117 q 169 174 143 147 l 174 178 q 196 300 181 219 l 213 324 l 174 382 l 228 382 q 238 421 235 413 q 261 451 247 447 l 265 453 q 264 575 264 458 l 286 561 q 297 619 290 606 q 333 661 303 632 q 344 728 340 679 q 351 799 350 793 q 376 807 367 803 q 364 818 372 810 q 397 910 386 863 q 418 1006 408 958 l 432 1021 q 432 1031 432 1024 q 431 1039 431 1036 q 436 1069 431 1053 l 475 1111 l 604 1111 q 606 1043 604 1078 q 608 999 608 1008 m 210 417 q 142 351 210 392 l 133 411 q 171 456 133 456 q 196 443 182 456 q 210 417 210 431 m 192 372 q 125 307 192 344 l 117 365 q 153 410 117 410 q 178 397 164 410 q 192 372 192 385 m 175 314 q 108 185 175 294 l 100 303 q 111 336 99 315 q 138 357 124 357 q 175 314 175 357 m 160 256 q 89 188 160 229 l 83 249 q 93 278 82 264 q 119 293 104 293 q 145 281 131 293 q 160 256 160 268 m 107 119 q 39 25 107 96 l 32 110 q 44 140 31 122 q 69 158 57 158 q 107 119 107 158 m 99 74 q 31 -24 99 53 l 22 65 q 35 97 22 81 q 63 113 47 113 q 99 74 99 113 m 74 1 q 6 -96 74 -19 l -3 -7 q 10 23 -3 6 q 36 40 24 40 q 74 1 74 40 m 79 -51 q 58 -104 79 -69 l 33 -108 q -8 -61 -10 -108 q 42 -12 11 -12 q 79 -51 79 -12 m 450 1054 q 371 889 371 915 q 388 850 371 872 q 443 819 410 821 q 450 1054 443 919 m 431 804 q 392 843 431 843 q 356 797 356 843 l 363 736 q 431 804 431 778 m 396 703 q 357 743 396 743 q 321 700 321 743 l 328 638 q 396 703 396 678 m 342 506 l 342 660 q 269 561 269 588 q 285 528 269 543 q 342 506 306 506 m 269 318 q 229 357 269 357 q 203 342 214 357 q 193 313 193 328 l 199 254 q 269 318 269 290 m 235 219 q 196 258 235 258 q 158 213 158 258 l 167 151 q 235 219 235 193 m 218 172 q 178 213 218 213 q 143 169 143 213 l 150 108 q 218 172 218 147 m 183 74 q 147 113 183 113 q 119 97 132 113 q 108 65 107 81 l 115 -24 q 183 74 183 53 m 158 11 q 121 50 158 50 q 95 32 108 50 q 83 1 82 14 l 90 -86 q 158 11 158 -10 z "},":":{"ha":283,"x_min":-18,"x_max":260,"o":"m 242 274 q 188 236 221 236 q 158 242 176 236 q 132 247 140 247 l 160 279 l 160 275 l 163 275 q 179 278 176 278 l 176 290 q 201 296 199 296 q 238 257 238 296 q 210 207 238 226 q 165 188 183 188 q 110 203 144 188 q 56 228 83 215 l 56 339 l 49 339 q 28 376 28 354 q 53 431 28 396 q 92 424 83 431 l 96 431 l 100 431 q 132 411 118 431 q 151 417 143 414 q 239 443 168 425 q 219 390 219 390 q 221 357 221 397 q 207 318 221 340 q 186 282 188 286 l 186 281 q 170 296 181 286 q 156 310 160 306 q 179 317 163 311 q 201 321 192 321 q 229 308 215 321 q 242 274 243 296 m 260 13 l 146 15 l 136 17 q 108 49 108 15 q 138 81 108 82 q 260 13 190 82 m 240 4 q 179 -60 240 -22 l 174 -3 q 206 42 174 42 q 228 29 215 42 q 240 4 240 17 m 129 19 q 71 -104 129 0 l 63 8 q 72 42 61 22 q 96 61 82 61 q 129 19 129 61 m 226 -104 q 213 -164 226 -147 q 164 -185 199 -181 q 151 -225 161 -215 l 133 -169 l 165 -169 q 211 -186 181 -179 l 211 -260 q 68 -282 175 -264 l 90 -201 l 113 -243 l 114 -243 q 110 -246 113 -243 l 111 -243 q 114 -236 111 -239 q 94 -221 99 -232 l 94 -264 q 36 -286 65 -267 q -18 -171 7 -215 q 33 -168 6 -171 l 40 -165 q 24 -169 43 -162 l 13 -174 l -7 -179 q 28 -199 10 -187 l 13 -176 l 13 -174 l 11 -165 q 22 -126 11 -144 q 22 -89 24 -112 q 21 -51 21 -58 q 94 -40 60 -49 q 129 -32 129 -32 l 131 -44 q 153 -11 132 -17 q 190 -11 161 -10 q 201 -82 193 -36 l 171 -61 q 150 -90 171 -81 q 156 -96 154 -96 q 154 -76 154 -96 q 189 -39 154 -39 q 215 -64 203 -39 q 226 -104 226 -89 z "},";":{"ha":442,"x_min":15,"x_max":443,"o":"m 425 332 q 413 307 425 318 q 389 297 400 296 l 378 297 q 342 343 342 322 q 376 376 342 376 q 408 363 392 376 q 425 332 425 349 m 443 300 q 379 208 443 281 l 371 293 q 382 323 371 308 q 408 338 393 338 q 443 300 443 338 m 240 310 q 229 256 232 282 q 164 201 222 201 q 106 226 121 201 q 83 221 94 225 q 36 214 71 217 q 29 293 29 271 q 31 341 29 306 q 32 403 32 376 q 138 424 67 424 l 144 424 q 225 375 225 424 q 213 329 225 375 l 240 310 m 415 85 q 404 54 415 74 q 388 81 382 63 l 367 28 q 324 88 324 50 q 378 121 340 121 q 415 85 415 121 m 443 26 q 378 -33 443 3 l 372 22 q 406 64 372 64 q 443 26 443 64 m 340 201 q 333 -24 333 72 q 281 4 301 -24 q 264 40 264 25 q 340 201 264 63 m 435 -4 q 369 -96 435 -25 l 364 -14 q 374 15 363 -3 q 399 32 385 32 q 435 -4 435 32 m 231 -26 q 222 -132 222 -108 q 161 -187 222 -176 q 131 -219 149 -196 q 100 -253 114 -243 l 101 -249 l 71 -268 q 78 -271 72 -268 q 86 -268 79 -268 q 33 -257 69 -264 q 18 -242 32 -251 q 15 -203 15 -222 q 24 -101 15 -174 q 32 22 32 -29 l 54 22 l 54 31 q 99 42 86 42 q 139 32 107 42 q 186 50 160 47 l 215 -31 q 183 -39 201 -35 l 181 -40 q 163 -51 179 -40 q 189 -65 171 -56 l 179 -15 l 176 -37 l 171 -49 l 154 -3 q 231 -26 172 -7 z "},"<":{"ha":488,"x_min":10,"x_max":463,"o":"m 463 721 q 449 667 450 675 q 451 651 451 658 q 413 617 451 633 l 407 608 q 374 594 389 599 l 368 593 l 364 585 q 340 579 344 579 q 310 569 325 569 q 249 543 288 553 l 231 529 l 215 529 q 140 493 190 518 l 153 514 l 144 529 q 158 518 150 525 l 193 515 l 192 517 l 192 515 l 189 510 q 197 507 192 510 l 200 507 l 219 506 l 226 494 q 281 481 236 494 l 279 476 q 290 474 279 476 l 297 463 l 303 461 q 338 450 321 460 l 340 446 l 354 446 q 456 397 389 432 q 442 294 456 367 q 310 338 397 307 q 281 356 300 350 q 248 367 263 363 q 223 381 233 371 q 185 389 213 390 l 171 413 l 164 413 q 99 435 126 413 q 63 447 90 431 q 25 469 43 458 q 10 515 10 492 q 32 567 10 540 l 42 567 l 56 581 q 94 590 71 586 l 99 590 l 104 607 l 128 607 q 228 650 185 639 l 246 665 q 281 667 254 667 q 261 640 281 644 q 267 625 267 635 l 269 644 l 274 667 l 275 676 q 297 682 281 679 l 299 682 l 306 696 l 329 696 l 346 710 l 363 710 l 386 724 q 463 721 407 717 z "},"=":{"ha":850,"x_min":36,"x_max":921,"o":"m 921 449 q 854 368 921 429 l 846 443 q 857 469 846 456 q 883 482 868 482 q 921 449 921 482 m 921 283 q 854 225 921 261 l 846 279 q 882 317 846 317 q 908 306 894 317 q 921 283 921 296 m 776 428 q 729 392 776 392 q 578 435 708 392 q 699 458 632 446 l 701 442 q 754 474 706 464 q 776 428 776 442 m 850 256 q 814 199 850 199 l 807 199 l 763 200 q 729 258 729 200 l 767 260 q 810 260 810 260 l 850 256 m 628 436 q 561 357 628 418 l 553 431 q 563 457 553 443 q 589 471 574 471 q 628 436 628 471 m 592 436 q 586 415 592 432 q 575 399 585 413 q 544 390 558 390 q 510 424 513 390 q 522 453 510 438 q 556 469 533 469 q 592 436 592 469 m 800 549 q 786 475 800 535 q 717 461 768 474 q 647 451 674 451 q 599 468 619 451 l 569 457 q 507 472 508 472 q 508 475 507 474 l 485 461 l 493 446 l 443 451 q 372 458 390 458 l 354 513 q 353 506 354 508 l 356 504 l 367 531 l 406 476 q 332 464 344 464 q 218 482 315 464 q 175 463 201 463 q 151 464 168 463 q 113 467 131 465 l 103 490 q 36 493 101 490 l 119 586 l 136 586 l 143 607 q 185 603 169 606 q 201 607 193 607 q 226 572 226 607 q 210 526 226 560 l 188 557 l 175 546 l 174 546 l 189 572 l 199 592 l 235 593 l 247 592 l 249 596 q 356 611 344 611 q 415 605 371 611 q 494 599 458 599 l 536 599 q 554 575 551 581 l 551 575 l 558 569 q 583 575 565 572 l 589 574 l 590 576 q 638 600 601 600 q 683 603 665 600 l 686 597 q 739 606 724 606 q 800 549 800 606 m 821 272 q 803 294 803 278 l 793 250 l 771 251 l 761 250 l 792 276 q 776 214 789 258 l 760 214 l 769 203 q 656 204 678 200 q 631 207 642 207 q 600 200 618 200 q 561 214 578 200 l 500 214 l 492 200 q 424 214 442 200 q 413 211 415 211 q 372 250 372 211 q 382 276 372 264 l 382 325 q 488 340 424 339 q 492 342 489 340 q 488 339 492 342 q 504 315 504 328 q 489 293 504 304 q 506 288 500 293 l 507 347 l 553 347 q 560 311 556 336 q 547 346 551 315 q 521 328 524 329 l 521 328 q 533 339 524 331 q 581 357 556 357 q 606 353 592 357 q 635 360 622 360 q 668 329 668 360 q 653 306 668 314 l 651 304 l 653 294 q 660 306 657 306 l 654 325 q 639 331 647 325 l 619 319 l 638 347 q 700 358 669 358 q 806 350 686 358 q 799 319 803 339 l 801 317 q 822 299 817 315 q 821 272 828 285 m 464 206 q 210 183 410 197 l 361 251 q 347 229 361 236 q 372 201 372 225 q 383 260 376 260 l 399 260 q 464 206 446 260 m 435 304 q 408 268 417 276 q 381 260 396 260 q 350 283 358 260 l 413 292 q 414 278 413 288 q 415 263 415 268 q 376 214 415 224 q 381 219 378 217 l 360 207 l 322 207 l 318 213 l 319 215 q 301 211 303 211 q 276 217 293 211 q 268 207 274 213 l 74 207 q 38 303 53 247 q 65 326 43 307 q 94 349 82 342 q 132 358 113 358 q 175 346 157 358 l 179 344 q 219 350 192 344 q 260 356 246 356 q 354 317 288 356 q 322 314 329 317 q 308 296 325 303 q 315 281 315 286 q 283 322 299 303 l 300 354 q 374 348 365 351 q 435 304 383 344 m 765 449 q 751 479 765 464 q 717 494 738 494 q 682 464 682 493 q 710 418 682 446 l 726 415 q 765 449 765 415 m 707 475 q 675 506 707 501 q 664 507 671 507 q 626 474 626 507 q 628 469 626 472 q 628 464 628 465 q 629 472 629 467 l 672 438 q 694 455 681 442 q 707 475 707 468 m 724 454 q 597 518 621 518 l 579 518 q 574 458 574 514 l 583 458 l 724 454 m 507 465 q 491 502 507 489 q 461 514 475 515 l 429 511 l 407 479 q 458 429 407 429 l 507 465 z "},">":{"ha":442,"x_min":8,"x_max":456,"o":"m 456 589 q 396 514 456 572 q 392 536 394 525 q 389 571 389 556 q 424 621 389 621 q 456 589 456 621 m 435 551 q 425 478 425 514 q 321 439 388 464 l 315 432 q 221 396 304 425 q 143 353 194 383 l 136 353 q 104 344 119 346 q 71 324 93 329 l 65 322 q 22 311 60 322 q 14 375 14 365 q 22 411 14 382 l 54 424 l 54 428 q 129 463 93 457 q 171 489 147 465 l 183 489 l 192 500 l 211 500 l 232 513 l 244 513 l 249 518 q 282 525 265 525 q 268 524 281 524 l 265 514 l 283 524 l 299 547 l 326 547 l 311 532 l 307 529 l 301 522 l 313 504 q 190 563 269 519 q 143 572 174 564 l 143 571 l 146 571 l 153 574 l 150 575 q 125 585 133 581 l 115 585 q 8 643 58 610 l 40 735 l 47 726 l 50 736 q 101 704 76 724 q 103 706 104 703 l 101 704 l 93 704 l 108 694 q 140 699 121 697 q 174 679 157 685 q 204 667 192 674 l 208 661 q 229 658 219 661 q 251 643 244 643 q 282 638 275 640 l 296 622 q 317 618 297 621 l 322 608 l 325 608 q 368 589 349 608 q 435 551 388 588 m 399 579 q 365 611 399 611 q 333 576 333 611 l 338 532 q 399 579 399 557 m 239 553 q 182 519 194 531 q 165 488 165 506 q 171 456 165 476 l 203 449 l 239 553 m 189 476 l 158 489 q 129 419 129 489 q 140 300 129 375 l 189 476 z "},"?":{"ha":836,"x_min":-1,"x_max":833,"o":"m 506 699 q 422 654 506 654 l 428 694 q 426 710 426 699 q 465 750 426 750 l 486 744 q 506 699 506 715 m 833 1013 l 614 965 q 629 967 618 967 q 706 951 650 967 q 711 885 707 929 q 756 796 756 860 q 753 753 756 785 q 751 696 751 721 l 735 686 q 743 643 743 656 q 726 590 743 614 q 697 549 700 554 q 683 493 690 508 q 644 446 674 474 q 579 365 610 413 q 519 271 549 317 q 494 243 507 257 q 488 206 488 236 q 494 176 488 196 q 501 146 501 157 q 472 40 501 119 l 279 40 q 253 158 258 100 l 246 160 q 282 344 257 224 l 296 358 l 296 383 q 357 425 313 407 l 357 442 q 394 482 367 467 l 396 483 q 372 522 388 493 l 419 522 q 438 576 432 565 q 478 613 447 594 q 492 622 485 615 q 496 658 493 650 q 518 685 501 676 l 513 711 q 524 738 518 724 q 515 792 511 756 l 433 878 q 371 883 426 879 q 314 851 364 878 q 299 1035 314 954 q 331 1033 314 1036 q 336 1074 331 1038 q 342 1122 342 1104 q 331 1163 342 1151 l 342 1111 q 347 1075 344 1097 q 400 1111 350 1111 q 461 1075 429 1111 q 493 1083 481 1083 l 519 1081 q 525 1057 519 1078 l 533 1057 l 549 1056 q 613 1008 569 1039 l 628 968 q 631 947 631 954 l 629 938 l 611 914 q 833 1013 622 922 m 350 719 q 236 711 303 710 q 264 780 244 747 q 293 813 283 813 q 313 788 308 796 q 350 719 347 772 m 350 988 q 293 969 315 972 q 285 908 293 969 l 254 918 q 267 946 254 940 l 254 965 q 290 963 272 964 q 328 946 307 961 l 349 881 q 247 808 254 828 q 244 770 244 796 q 233 651 243 744 q 8 664 107 664 q 6 718 8 693 q 3 747 3 743 q 60 931 3 768 q 28 807 44 869 l 69 829 q 76 827 72 829 q 81 824 79 825 l 85 821 l 88 821 l 72 763 q 19 786 67 768 q 65 931 31 833 l 72 931 l 68 946 q 117 999 100 985 q 179 1028 149 1026 q 193 1029 185 1028 q 250 1074 192 1071 q 326 1090 271 1096 q 350 988 333 1057 m 460 575 q 389 513 460 549 l 382 569 q 419 614 382 614 q 444 601 429 614 q 460 575 460 588 m 308 642 l 268 636 q 228 688 228 636 l 308 761 l 308 642 m 215 601 q 147 536 215 576 l 138 599 q 175 642 138 642 q 215 601 215 642 m 207 564 q 138 435 207 544 l 129 550 q 140 585 128 565 q 168 604 151 604 q 207 564 207 604 m 101 585 q 86 560 101 576 q 63 540 71 544 l 18 576 l 18 571 l 17 575 l 17 585 q 56 622 17 622 q 69 621 61 622 q 101 585 101 617 m 76 557 q 4 494 76 529 l -1 551 q 9 581 -1 567 q 36 596 19 596 q 76 557 76 596 m 276 201 q 215 114 276 181 q 199 197 199 186 q 210 228 199 214 q 239 242 222 242 q 276 201 276 242 m 389 49 q 322 -17 389 22 l 313 46 q 349 89 313 89 q 389 49 389 89 m 260 132 q 188 65 260 106 l 182 126 q 192 156 181 142 q 219 171 203 171 q 245 158 231 171 q 260 132 260 146 m 338 -15 q 268 -10 304 -14 l 254 -8 q 222 26 222 -6 q 257 60 222 61 q 297 56 271 60 q 338 51 324 51 l 338 -15 m 258 75 q 190 -56 258 54 l 182 61 q 192 96 181 76 q 221 115 204 115 q 258 75 258 115 m 485 -199 q 413 -281 485 -281 q 381 -276 400 -281 q 347 -269 356 -271 q 328 -278 331 -278 q 288 -260 313 -278 q 244 -231 251 -233 q 257 -114 244 -183 q 204 -78 246 -107 q 324 -29 297 -29 q 376 -35 338 -29 q 443 -40 414 -40 q 485 -199 485 -124 m 269 14 q 256 -224 256 -118 q 197 -194 221 -224 q 181 -154 181 -172 q 269 14 181 -128 m 564 664 q 524 706 564 706 q 486 661 486 706 l 496 600 q 564 664 564 639 m 468 539 q 431 578 468 578 q 403 561 415 578 q 390 529 390 544 l 399 440 q 468 539 468 517 m 119 675 q 79 714 119 714 q 42 669 42 714 l 50 608 q 119 675 119 649 m 272 101 q 257 130 272 118 q 228 142 242 142 q 190 106 190 142 q 192 101 190 104 q 192 96 192 99 l 193 92 l 193 97 l 228 57 q 272 101 272 64 z "},"A":{"ha":1211,"x_min":-8,"x_max":1229,"o":"m 832 868 q 761 775 832 846 l 754 860 q 766 890 753 872 q 793 908 779 908 q 832 868 832 908 m 869 754 q 794 692 869 725 l 789 749 q 828 793 789 793 q 854 780 839 793 q 869 754 869 767 m 885 710 q 814 615 885 686 l 806 700 q 819 731 806 713 q 846 749 832 749 q 885 710 885 749 m 913 638 q 842 576 913 611 l 833 635 q 871 678 833 678 q 913 638 913 678 m 939 557 q 869 493 939 532 l 858 554 q 897 599 858 599 q 924 588 910 599 q 939 557 939 578 m 965 479 q 894 414 965 451 l 886 472 q 924 517 886 517 q 951 505 936 517 q 965 479 965 493 m 974 443 q 904 376 974 417 l 894 440 q 932 482 894 482 q 974 443 974 482 m 1000 371 q 931 307 1000 346 l 921 368 q 958 411 921 411 q 1000 371 1000 411 m 1026 301 q 956 238 1026 274 l 947 296 q 986 340 947 340 q 1012 327 997 340 q 1026 301 1026 314 m 1035 265 q 965 200 1035 240 l 956 261 q 993 304 956 304 q 1020 292 1006 304 q 1035 265 1035 279 m 1229 -71 q 1110 -114 1190 -86 q 1136 -278 1117 -189 q 885 -265 968 -278 q 843 -115 864 -190 q 791 18 807 10 q 697 26 775 26 q 544 18 646 26 q 393 10 443 10 q 325 13 357 10 q 229 -225 297 -61 l 196 -225 q 108 -268 183 -268 q -8 -256 88 -268 q 6 -178 3 -215 q 49 -100 11 -112 l 53 -99 q 50 -101 53 -100 l 53 -100 q 49 -69 49 -87 q 54 -15 49 -49 l 72 1 l 74 7 q 74 17 74 11 q 72 26 72 24 q 108 93 72 74 q 111 135 111 96 q 131 215 111 163 q 168 294 150 268 l 179 301 q 179 322 179 301 q 208 399 179 358 q 236 465 236 439 q 267 554 236 503 q 297 629 297 606 q 315 677 297 649 q 332 725 332 706 q 345 758 332 744 q 372 782 358 771 q 370 797 372 788 q 368 811 368 807 q 394 873 368 839 q 422 933 419 907 q 457 1042 429 992 q 490 1093 461 1076 q 547 1115 494 1096 q 617 1089 583 1089 q 681 1096 613 1089 q 719 956 700 1025 q 774 819 744 874 q 783 782 781 806 q 789 743 786 751 q 832 656 824 714 q 856 558 844 579 q 888 499 871 529 q 900 435 904 464 q 900 431 900 433 q 899 425 899 426 l 899 421 q 928 379 913 400 q 939 329 938 361 q 939 314 939 329 l 965 288 q 974 215 974 263 q 975 203 974 207 l 989 196 q 1010 111 994 168 l 1036 85 q 1068 -50 1040 72 q 1074 -50 1069 -50 q 1079 -49 1076 -49 q 1086 -50 1081 -49 q 1093 -50 1090 -50 q 1229 -71 1094 -51 m 453 -46 q 435 -100 453 -65 q 401 -111 413 -111 q 361 -71 361 -111 q 394 -10 361 -49 l 413 -7 q 453 -46 453 -7 m 622 735 q 583 775 622 775 q 553 756 565 775 q 543 721 542 736 l 551 606 q 622 735 622 715 m 597 665 q 582 691 597 678 q 556 704 567 704 q 517 660 517 704 l 524 603 q 597 665 597 638 m 561 576 q 547 603 561 590 q 519 615 532 615 q 482 571 482 615 l 490 511 q 561 576 561 551 m 708 256 q 688 360 697 325 l 671 378 q 667 417 667 393 l 668 425 l 646 447 q 638 494 638 471 q 635 538 636 531 l 611 561 q 599 611 603 582 q 593 661 594 654 q 557 735 557 693 l 551 735 q 582 756 571 749 q 557 681 578 732 l 543 672 q 529 581 540 642 q 472 444 517 542 q 422 300 435 363 q 414 254 422 300 q 551 247 490 247 q 708 256 629 247 m 535 504 q 520 531 535 518 q 494 544 506 544 q 456 500 456 544 l 461 443 q 535 504 535 476 m 500 417 q 485 443 500 431 q 458 456 469 456 q 419 411 419 456 l 429 351 q 500 417 500 393 m 472 361 q 433 401 472 401 q 405 382 417 401 q 394 347 393 363 l 403 232 q 472 361 472 339 m 500 35 q 458 75 500 75 q 419 29 419 75 l 428 -32 q 500 35 500 10 m 229 -228 q 208 -172 229 -210 q 140 -221 163 -181 q 183 -269 140 -269 q 229 -228 229 -269 m 649 469 q 578 371 649 449 l 569 460 q 582 492 569 476 q 611 508 594 508 q 649 469 649 508 m 517 458 q 447 364 517 439 l 438 453 q 450 484 438 469 q 479 499 463 499 q 517 458 517 499 m 597 301 q 524 239 597 274 l 517 296 q 556 340 517 340 q 582 327 567 340 q 597 301 597 314 z "},"B":{"ha":1104,"x_min":-1,"x_max":992,"o":"m 992 150 q 939 25 992 72 l 936 78 l 983 44 q 951 -71 976 6 l 936 -79 q 844 -192 933 -128 q 715 -258 768 -244 q 632 -271 678 -268 q 549 -271 600 -272 q 465 -268 482 -268 q 385 -273 439 -268 q 304 -278 332 -278 q 247 -274 285 -278 q 189 -271 208 -271 q 110 -283 158 -271 q 94 -211 93 -244 l 94 -211 q 90 -201 90 -199 l 121 -224 l 86 -224 l 57 -204 q 60 -210 60 -207 q 28 -196 56 -208 q 18 -111 18 -99 q 38 -68 18 -93 q 44 64 44 -37 q 35 159 44 96 q 26 256 26 222 q 36 324 26 279 q 46 390 46 368 q 40 489 46 422 q 33 589 33 556 q 40 692 33 624 q 46 797 46 761 q 41 876 46 824 q 36 956 36 928 q 115 1094 36 1065 q 279 1113 140 1104 q 321 1108 294 1114 q 358 1101 347 1101 q 692 1093 568 1090 q 743 999 711 1060 q 821 1011 800 1011 q 899 906 899 1011 l 899 897 l 907 894 q 944 868 938 885 q 947 821 947 860 l 947 804 q 969 696 969 772 q 919 525 969 558 q 907 517 919 525 q 903 517 903 518 q 856 469 896 474 q 838 442 850 449 q 829 449 832 457 l 854 440 l 854 410 q 894 393 868 404 q 933 375 921 382 q 931 328 933 347 l 933 328 q 969 285 964 315 q 968 225 969 279 l 982 210 q 992 150 992 175 m 76 724 q 7 626 76 703 l -1 715 q 12 745 -1 728 q 38 763 25 763 q 76 724 76 763 m 78 649 q 6 461 78 628 l -1 631 q 13 667 -1 642 q 38 692 26 692 q 78 649 78 692 m 86 554 q 17 457 86 533 l 8 546 q 21 576 8 558 q 47 593 33 593 q 86 554 86 593 m 74 514 q 69 451 74 492 q 65 388 65 407 l 0 390 q 10 517 0 371 l 74 514 m 86 364 q 14 167 86 340 l 8 344 q 22 381 8 356 q 47 406 35 406 q 86 364 86 406 m 78 203 q 4 13 78 182 l -1 183 q 12 222 -1 199 q 40 246 25 246 q 67 232 56 246 q 78 203 78 218 m 86 131 q 14 -93 86 104 l 8 106 q 22 147 8 119 q 49 174 36 174 q 76 159 65 174 q 86 131 86 144 m 78 56 q 7 -12 78 29 l -1 49 q 36 94 -1 94 q 78 56 78 94 m 78 -47 q 6 -236 78 -69 l -1 -67 q 13 -31 -1 -56 q 38 -6 26 -6 q 78 -47 78 -6 m 749 713 q 707 800 729 747 l 726 672 q 738 692 731 679 q 749 713 746 706 m 726 694 q 688 736 726 736 q 662 714 675 736 q 649 681 649 692 l 649 672 l 654 508 q 726 694 726 668 m 707 800 l 685 940 l 667 625 q 669 569 669 603 q 494 546 663 550 q 297 547 543 547 q 289 693 289 621 q 299 854 289 781 q 401 868 354 868 q 453 861 419 868 q 504 854 488 854 q 543 863 518 854 l 554 878 q 692 831 601 864 q 707 800 697 821 m 603 556 q 563 594 603 594 q 525 550 525 594 l 531 492 q 603 556 603 528 m 718 306 q 703 331 718 318 q 676 344 688 344 q 639 299 639 344 l 646 240 q 718 306 718 278 m 744 26 q 703 67 744 67 q 665 24 665 67 l 674 -35 q 744 26 744 0 m 751 149 q 732 228 751 199 q 697 279 699 278 q 619 307 672 293 q 542 321 565 321 q 491 311 525 321 q 439 301 457 301 q 375 306 415 301 q 311 311 322 310 q 288 272 301 281 q 288 128 292 218 q 283 -17 283 19 q 353 -42 307 -28 q 415 -24 407 -24 q 485 -30 439 -24 q 554 -36 532 -36 q 569 -35 564 -36 l 586 -17 q 656 -18 578 -18 q 665 -19 667 -18 l 668 -8 q 700 32 675 21 q 725 43 713 38 q 751 149 751 78 m 446 -42 q 279 29 360 33 l 278 -37 l 282 -37 l 299 -39 l 446 -42 m 78 292 q 67 319 78 306 q 40 333 57 333 q 13 310 26 333 q -1 272 -1 286 l -1 264 l 6 69 q 78 292 78 271 m 560 822 q 489 757 560 799 l 482 819 q 518 863 482 863 q 560 822 560 863 m 499 815 q 426 751 499 789 l 419 808 q 457 854 419 854 q 484 841 469 854 q 499 815 499 828 m 603 636 q 532 568 603 608 l 525 629 q 563 675 525 675 q 603 636 603 675 m 489 690 l 325 696 q 290 729 290 696 q 328 763 290 767 l 354 763 q 489 690 381 763 m 743 242 q 675 107 743 222 l 665 228 q 677 260 664 240 q 704 281 690 281 q 743 242 743 281 m 761 179 q 692 115 761 154 l 682 175 q 721 218 682 218 q 761 179 761 218 m 629 158 q 561 32 629 138 l 551 147 q 562 181 550 161 q 590 200 574 200 q 629 158 629 200 z "},"C":{"ha":1035,"x_min":-1,"x_max":982,"o":"m 886 556 q 815 429 886 533 l 807 542 q 817 576 806 556 q 846 596 829 596 q 886 556 886 596 m 818 539 l 814 474 q 738 479 771 474 l 721 482 l 690 489 q 724 549 690 549 l 731 549 q 818 539 717 549 m 524 767 q 478 725 524 725 l 453 732 q 435 790 435 772 q 472 832 435 832 q 507 808 490 832 q 524 767 524 785 m 735 564 q 665 468 735 543 l 657 556 q 669 586 657 568 q 696 604 682 604 q 735 564 735 604 m 651 615 l 460 618 l 461 685 q 483 686 469 685 q 506 686 499 686 q 651 615 542 686 m 982 683 q 842 658 911 658 q 733 668 793 658 q 726 732 726 706 l 726 739 q 682 790 693 747 q 656 799 681 799 q 606 825 632 799 q 536 851 581 851 q 446 840 499 851 q 363 813 388 828 l 353 788 q 321 771 338 772 q 278 694 322 735 l 278 639 q 268 593 278 622 q 258 549 258 564 q 265 478 258 525 q 271 410 271 432 q 267 324 271 382 q 263 238 263 267 q 269 142 263 181 q 319 49 274 117 q 397 -24 371 -26 q 424 -21 421 -21 q 463 -31 438 -21 q 501 -42 489 -42 l 510 -42 l 536 -22 l 550 -21 q 583 -32 567 -21 q 669 31 608 -32 q 728 129 729 94 q 800 149 774 149 q 870 145 817 149 q 971 142 924 142 q 964 67 964 113 q 947 19 964 44 q 929 -29 929 -7 q 844 -155 929 -72 q 715 -237 760 -237 l 711 -237 l 693 -262 q 500 -294 619 -294 q 356 -272 415 -294 l 347 -256 q 294 -250 326 -254 q 178 -181 271 -244 l 178 -161 q 94 -89 107 -103 q 54 14 54 -42 q 50 19 53 15 q 8 126 8 106 q 13 165 8 140 q 18 201 18 189 q 8 267 18 224 q -1 333 -1 310 q 8 440 -1 369 q 18 544 18 510 q 11 594 18 561 q 4 646 4 628 q 46 733 4 699 q 43 758 46 742 q 40 783 40 775 q 53 840 40 797 l 61 840 q 104 883 76 882 q 143 939 110 931 l 143 950 q 200 974 174 971 q 293 1058 201 1018 l 318 1069 l 340 1075 l 390 1075 q 432 1104 419 1104 q 439 1104 435 1104 q 444 1103 443 1103 l 451 1101 q 488 1050 483 1067 q 514 1029 508 1042 l 454 1025 l 457 1031 q 436 1076 436 1051 q 485 1111 453 1111 q 532 1097 504 1111 q 529 1092 531 1096 l 569 1108 l 651 1072 l 651 1024 l 625 1053 q 606 1044 619 1044 q 672 1083 629 1083 q 829 997 686 1083 l 829 978 q 872 946 851 974 q 901 897 886 922 l 904 892 q 950 818 950 882 q 965 792 950 813 q 981 747 981 771 q 982 683 981 696 m 353 493 q 282 397 353 469 l 274 483 q 284 515 272 497 q 313 532 296 532 q 353 493 353 532 m 343 447 q 272 353 343 424 l 264 438 q 277 468 264 450 q 304 486 290 486 q 343 447 343 486 m 347 493 q 340 256 339 333 q 282 286 306 256 q 264 325 264 308 q 347 493 264 353 m 331 271 q 326 203 331 246 q 322 136 322 154 l 258 136 q 262 203 258 158 q 265 271 265 249 l 331 271 m 335 400 q 296 440 335 440 q 256 397 256 440 q 272 314 256 386 q 335 400 335 379 m 343 113 q 306 151 343 151 q 277 135 290 151 q 264 103 264 118 l 272 14 q 343 113 343 90 m 353 67 q 313 107 353 107 q 284 89 296 107 q 274 57 272 71 l 282 -29 q 353 67 353 43 z "},"D":{"ha":1250,"x_min":-3,"x_max":1144,"o":"m 1144 351 q 1124 274 1144 306 q 1124 219 1121 253 q 1128 167 1128 178 q 1119 96 1128 146 l 1107 96 q 1090 33 1099 64 q 1050 -14 1076 -3 q 1043 -44 1050 -22 q 917 -159 1011 -103 q 758 -215 824 -215 q 683 -247 725 -247 q 633 -240 667 -247 q 581 -233 599 -233 q 531 -254 583 -233 q 476 -261 507 -261 l 468 -243 q 250 -247 300 -240 l 246 -235 q 207 -187 199 -235 l 207 -186 q 247 -217 221 -196 q 161 -225 201 -226 q 163 -147 163 -201 q 188 -76 163 -126 q 167 -50 182 -71 q 154 78 154 3 q 160 210 154 122 q 167 340 167 297 q 135 678 167 399 l 175 600 q 165 703 175 625 q 135 735 135 721 q 168 771 135 768 q 183 933 172 825 l 172 932 l 171 931 q 200 908 200 908 q 200 907 200 907 q 172 917 196 907 l 172 932 q 169 980 172 953 q 167 1017 167 1007 q 179 1082 167 1053 l 224 1114 q 274 1099 247 1107 q 321 1092 301 1092 q 386 1101 343 1092 q 451 1111 429 1111 q 522 1094 482 1111 q 529 1111 524 1100 q 629 1107 572 1111 q 714 1101 694 1101 q 758 1113 736 1113 q 876 1029 788 1113 q 908 1036 893 1036 q 957 1006 943 1036 q 971 968 964 988 q 1026 938 992 958 q 1099 817 1065 904 q 1133 678 1133 731 q 1128 621 1133 638 q 1142 446 1142 569 l 1142 396 q 1144 351 1144 386 m 86 715 q 17 586 86 694 l 8 703 q 19 736 7 717 q 47 756 31 756 q 86 715 86 756 m 107 626 q 92 599 107 611 q 64 583 78 586 l 26 624 q 26 618 26 624 l 26 622 q 25 631 25 625 q 61 668 25 668 q 92 656 78 668 q 107 626 107 644 m 86 576 q 17 476 86 556 l 7 569 q 19 601 7 586 q 49 615 32 615 q 86 576 86 615 m 86 515 q 15 453 86 490 l 7 514 q 46 556 7 556 q 86 515 86 556 m 86 474 q 17 408 86 447 l 7 471 q 44 513 7 513 q 86 474 86 513 m 82 417 q 78 342 82 392 q 75 268 75 293 l 10 268 q 13 343 10 296 q 17 418 17 399 l 82 417 m 86 163 q 15 -25 86 140 l 8 150 q 20 185 8 164 q 47 207 32 207 q 75 192 64 207 q 86 163 86 178 m 75 103 q 71 42 75 79 q 65 -21 67 -10 l 0 -18 q 4 43 0 6 q 10 106 8 94 l 75 103 m 365 -282 l 179 -278 l 181 -212 q 224 -211 194 -211 q 365 -282 260 -211 m 78 -61 q 6 -254 78 -85 l -1 -75 q 40 -19 -1 -19 q 67 -33 57 -19 q 78 -61 78 -47 m 78 -200 q 7 -324 78 -219 q -3 -237 -3 -274 q 39 -160 -3 -160 q 78 -200 78 -160 m 940 401 l 938 467 l 888 467 q 890 362 888 424 q 892 275 892 300 q 872 133 892 181 q 842 93 868 124 l 826 93 l 775 28 l 775 -10 l 821 21 q 768 32 794 32 l 750 29 l 733 14 q 725 4 731 11 q 678 14 693 15 q 546 -11 633 -11 q 419 0 486 -11 q 414 121 419 36 q 408 242 408 199 q 412 340 408 275 q 415 436 415 404 q 411 525 415 496 q 421 568 421 554 q 413 597 421 583 q 425 715 417 638 q 456 744 456 732 q 418 781 456 776 q 413 822 413 801 q 433 876 413 847 q 606 853 554 853 q 661 857 614 853 q 717 856 694 858 l 721 851 q 782 825 747 825 q 868 736 832 825 q 897 596 897 661 q 894 550 897 586 q 894 503 893 521 q 906 457 897 476 q 922 461 914 457 l 922 461 l 915 474 q 888 435 888 461 q 903 413 888 428 q 926 400 919 399 l 940 401 m 224 563 q 183 607 224 607 q 160 585 174 607 q 146 553 146 563 l 146 546 l 153 374 q 224 563 224 542 m 224 419 q 186 460 224 460 q 158 443 171 460 q 146 413 144 426 l 153 326 q 224 419 224 397 m 224 363 q 213 392 224 376 q 186 407 203 407 q 158 384 171 407 q 146 347 146 361 l 153 174 q 224 363 224 342 m 219 294 l 154 297 q 150 226 154 278 q 147 156 147 182 l 213 154 q 217 225 213 174 q 219 294 219 269 m 228 167 q 136 -10 136 18 q 154 -49 136 -26 q 213 -78 178 -78 q 228 167 213 25 m 758 514 q 689 419 758 494 l 679 508 q 691 540 679 525 q 719 554 703 554 q 758 514 758 554 m 767 481 q 694 353 767 460 l 688 465 q 699 499 686 478 q 728 521 713 521 q 767 481 767 521 m 533 621 q 465 521 533 600 l 456 613 q 468 644 456 629 q 496 660 481 660 q 533 621 533 660 m 539 561 l 393 567 l 393 632 l 428 632 q 539 561 457 632 m 633 357 q 574 378 594 357 q 558 413 558 394 q 633 508 558 439 l 633 357 m 781 297 q 711 167 781 246 l 715 347 l 781 347 l 781 297 m 647 368 q 574 306 647 343 l 568 363 q 606 407 568 407 q 647 368 647 407 m 783 213 q 711 113 783 192 q 707 140 710 126 q 704 185 704 165 q 746 251 704 251 q 772 240 761 251 q 783 213 783 228 m 646 297 q 575 172 646 276 q 565 258 565 224 q 607 338 565 338 q 646 297 646 338 m 764 121 q 760 44 764 89 q 742 11 758 32 q 724 -10 726 -10 q 706 4 718 -10 q 689 33 689 19 q 699 125 689 50 l 764 121 m 633 242 q 630 178 633 221 q 626 113 626 135 l 560 113 q 568 244 563 157 l 633 242 m 629 54 q 558 -39 629 33 l 550 46 q 563 76 550 60 q 590 93 576 93 q 629 54 629 93 z "},"E":{"ha":917,"x_min":-1,"x_max":893,"o":"m 854 742 q 783 544 854 722 l 776 726 q 817 783 776 783 q 843 769 832 783 q 854 742 854 756 m 846 674 q 775 611 846 649 l 767 668 q 804 714 767 714 q 831 701 817 714 q 846 674 846 688 m 658 826 l 654 761 q 585 767 613 761 l 571 769 q 540 803 540 775 q 576 836 540 838 q 658 826 603 835 m 717 624 l 586 628 q 554 661 554 632 q 589 694 554 694 l 592 694 q 717 624 647 694 m 576 765 q 315 743 519 756 q 460 817 388 779 q 449 793 460 800 q 469 772 454 793 l 475 826 q 501 826 475 826 l 529 826 q 551 811 535 826 q 576 765 569 790 m 569 676 l 568 610 l 243 610 l 365 674 q 311 626 365 661 l 367 619 l 378 685 q 400 685 378 685 q 569 676 399 685 m 790 210 q 715 265 715 210 q 790 365 715 292 l 790 210 m 388 617 q 318 493 388 599 l 310 607 q 320 640 308 621 q 349 660 332 660 q 388 617 388 660 m 893 -257 q 836 -269 886 -260 q 769 -282 781 -282 q 743 -278 760 -282 l 738 -276 l 728 -275 q 636 -258 707 -271 q 657 -256 639 -258 q 686 -254 675 -254 q 740 -283 733 -254 l 751 -261 q 738 -269 747 -264 q 724 -278 729 -275 q 697 -279 714 -278 q 671 -281 679 -281 q 613 -253 618 -281 q 610 -224 610 -243 q 629 -243 625 -224 l 651 -218 l 651 -264 q 549 -281 551 -281 q 450 -278 558 -281 q 351 -282 393 -275 l 350 -278 l 353 -272 q 249 -286 331 -286 q 13 -265 153 -286 q 3 -136 3 -196 q 7 -17 3 -97 q 11 101 11 63 q 6 254 11 151 q 1 408 1 357 q 6 544 1 454 q 10 678 10 633 q 4 760 10 706 q -1 840 -1 814 q 17 913 -1 881 q -1 972 -1 926 q 13 1101 -1 1000 q 76 1097 54 1101 q 97 1093 99 1093 q 115 1102 99 1093 q 144 1111 131 1111 q 194 1085 165 1111 q 226 1099 201 1085 q 272 1113 250 1113 q 333 1103 293 1113 q 392 1093 372 1093 q 494 1100 426 1093 q 594 1107 561 1107 q 672 1101 621 1107 q 749 1094 722 1094 q 796 1098 760 1094 q 863 1101 832 1101 q 874 993 874 1029 q 851 853 874 940 q 772 846 801 846 q 690 852 744 846 q 608 858 635 858 q 569 854 594 858 q 535 849 544 850 q 268 843 446 849 q 249 692 249 726 q 260 544 249 622 q 307 532 292 532 q 306 538 306 532 q 311 575 307 543 l 375 574 q 376 533 376 560 q 452 537 403 532 q 525 542 501 542 q 611 538 558 542 q 690 533 664 533 q 768 539 728 533 l 793 328 q 763 306 771 319 q 660 288 715 288 q 564 293 628 288 q 468 299 500 299 q 440 294 458 299 q 411 290 421 290 q 378 304 394 290 l 378 304 l 364 290 q 317 298 343 290 q 279 306 290 306 q 269 303 272 306 q 260 294 265 300 l 257 292 q 264 208 264 222 q 253 112 264 175 q 242 17 242 49 q 244 -21 242 -18 q 269 -42 260 -29 q 429 -32 363 -32 q 549 -50 504 -32 l 563 -81 l 540 -65 q 510 -86 536 -87 l 511 -82 q 546 -50 514 -50 q 564 -54 556 -50 q 567 -33 565 -44 q 686 -33 567 -33 q 743 -61 731 -33 l 743 -62 q 739 -22 744 -43 q 728 -57 738 -29 q 760 -35 733 -54 q 892 -44 789 -39 q 868 -95 875 -83 q 840 -128 861 -107 l 849 -93 q 862 -124 856 -110 q 865 -171 868 -139 l 839 -181 l 839 -189 q 893 -257 839 -201 m 639 250 l 638 183 q 547 189 597 183 q 519 192 538 189 q 490 226 490 197 q 528 258 490 265 l 532 260 q 588 256 551 261 q 639 250 625 250 m 390 257 q 383 24 383 125 q 326 53 349 24 q 308 92 308 75 q 390 257 308 119 m 275 746 q 235 785 275 785 q 208 770 218 785 q 197 740 197 756 l 203 678 q 275 746 275 718 z "},"F":{"ha":921,"x_min":-17,"x_max":947,"o":"m 667 1008 q 586 1026 608 1021 q 540 1083 543 1038 q 632 1118 574 1103 l 667 1008 m 590 1040 l 449 1044 q 415 1078 415 1044 q 451 1111 415 1113 q 590 1040 508 1108 m 297 1103 l 292 1038 q 185 1078 185 1038 q 221 1111 185 1115 l 222 1111 q 297 1103 247 1111 m 296 1033 l 131 1038 l 131 1103 q 296 1033 207 1107 m 597 615 l 461 621 l 463 686 l 472 686 q 494 686 494 686 q 597 615 524 686 m 622 722 q 583 388 619 706 q 528 600 528 568 l 531 628 l 622 722 m 92 1056 q 25 931 92 1033 l 15 1043 q 26 1076 14 1058 q 54 1094 38 1094 q 92 1056 92 1094 m 100 1007 q 32 911 100 986 l 24 999 q 35 1031 24 1015 q 63 1046 47 1046 q 100 1007 100 1046 m 101 949 q 31 886 101 922 l 24 946 q 60 988 24 988 q 101 949 101 988 m 947 853 l 943 853 l 943 811 q 608 776 807 776 q 492 779 583 776 l 474 796 l 460 796 q 369 792 389 796 l 365 788 q 360 685 365 754 q 378 656 378 672 q 350 622 378 622 q 354 619 351 624 q 358 604 354 608 l 361 599 q 374 563 374 585 q 356 479 374 547 q 360 471 357 478 q 475 461 463 460 q 583 482 553 482 q 628 475 601 482 l 640 461 q 708 471 663 461 q 776 479 753 481 l 821 478 l 821 429 l 793 461 q 772 451 786 451 q 772 450 772 451 q 769 447 771 449 q 811 472 783 472 l 829 468 l 863 432 q 853 256 857 378 q 760 260 811 256 q 690 264 708 264 q 692 265 692 264 q 693 265 692 265 l 671 256 q 644 257 663 257 q 595 251 628 257 q 544 246 563 246 q 461 250 513 246 q 378 256 392 256 q 350 136 350 199 q 355 22 350 99 q 360 -92 360 -54 q 321 -282 360 -194 q 261 -258 276 -274 q 218 -260 246 -257 q 174 -262 186 -262 q 117 -256 151 -262 q 110 -137 110 -186 q 119 -78 110 -114 q 163 -71 147 -67 l 168 -72 l 160 -72 l 144 -94 l 171 -121 l 126 -121 q 115 -74 125 -110 q 108 -25 108 -43 q 114 24 108 -7 q 121 68 119 56 q 114 108 114 89 q 122 181 114 132 q 131 254 131 229 q 125 332 131 281 q 119 408 119 383 q 129 453 119 425 q 139 490 139 481 q 128 568 139 517 q 118 647 118 619 q 121 754 118 674 q 122 860 124 819 l 124 860 q 119 981 126 940 l 149 1011 q 276 1003 196 1014 q 310 1003 293 1000 q 383 1021 356 1021 q 428 1017 399 1021 q 472 1013 458 1013 l 471 1010 l 488 1019 q 535 1014 500 1019 q 581 1011 564 1010 q 642 1028 600 1028 q 769 1008 726 1028 q 775 1026 769 1014 q 844 1011 825 1029 q 867 1017 847 1011 q 913 1021 876 1019 l 919 985 q 918 972 919 975 q 942 913 940 950 q 947 853 942 907 m 92 811 q 22 585 92 788 l 15 792 q 29 829 15 804 q 56 854 43 854 q 81 840 71 854 q 92 811 92 825 m 89 663 q 86 575 89 631 q 82 486 82 510 l 17 486 q 25 665 17 546 l 89 663 m 92 454 q 22 232 92 428 l 15 433 q 29 472 15 446 q 56 497 43 497 q 81 482 69 497 q 92 454 92 467 m 85 314 q -17 58 85 294 q 7 307 7 272 q 19 338 7 321 q 47 356 32 356 q 85 314 85 356 m 101 740 q 61 779 101 779 q 24 736 24 779 l 31 678 q 101 740 101 714 m 92 250 q 53 289 92 289 q 15 246 15 289 l 24 186 q 92 250 92 225 m 222 99 q 103 171 131 171 l 78 171 q 42 138 42 175 q 75 104 42 104 l 75 104 l 85 104 l 222 99 m 75 215 q 38 254 75 254 q 12 238 25 254 q -1 208 -1 222 l 7 121 q 75 215 75 194 z "},"G":{"ha":1200,"x_min":-1,"x_max":1108,"o":"m 746 661 q 676 597 746 636 l 667 656 q 704 700 667 700 q 731 688 717 700 q 746 661 746 675 m 754 625 q 683 560 754 600 l 675 622 q 713 665 675 665 q 754 625 754 665 m 1108 232 q 1081 81 1108 174 q 1013 -57 1050 -24 q 981 -85 999 -68 q 960 -139 976 -124 q 910 -169 950 -150 q 863 -212 878 -185 q 819 -225 843 -222 q 779 -232 779 -232 l 753 -260 q 639 -278 693 -278 q 489 -249 597 -278 q 343 -194 375 -217 q 313 -158 328 -183 q 274 -124 299 -137 q 222 -86 236 -103 q 204 -21 204 -62 q 183 5 204 -19 q 157 40 161 29 q 138 171 139 89 q 139 304 139 79 q 133 446 139 415 l 131 450 q 118 481 118 463 q 131 510 118 501 q 140 621 131 540 q 147 751 150 697 q 175 760 157 756 q 165 785 165 775 q 215 867 165 839 q 238 892 233 876 q 246 924 242 907 q 306 982 263 974 q 464 1076 417 1076 q 511 1063 483 1076 l 514 1061 l 574 1104 l 581 1097 q 628 1113 596 1113 q 681 1104 646 1113 q 738 1096 717 1096 q 865 1038 806 1096 q 964 958 935 968 q 1011 892 1019 940 q 1026 883 1018 889 q 1081 761 1081 807 q 1088 703 1081 729 l 1031 690 q 964 649 1022 656 l 931 665 q 903 658 917 658 q 819 721 858 658 q 760 806 771 799 q 688 824 750 813 q 603 836 626 836 q 410 726 465 836 q 368 469 368 642 q 378 413 368 453 q 386 339 388 372 l 368 313 l 368 264 q 331 285 351 268 q 310 318 310 303 q 365 340 310 340 l 368 311 l 369 307 l 368 292 l 368 250 l 383 236 q 385 163 385 231 q 396 138 385 160 q 419 60 414 110 q 499 -7 472 42 q 511 -12 501 -14 q 553 -3 532 -8 q 626 -14 593 -14 q 797 74 739 -14 q 843 263 847 149 q 813 267 826 267 q 767 261 797 267 q 760 192 760 203 l 694 192 l 694 249 q 692 268 694 267 q 668 269 689 269 q 599 276 656 271 l 599 313 q 597 326 597 315 l 597 332 l 599 465 q 679 496 649 492 q 768 494 697 499 q 778 456 774 475 q 765 481 769 461 l 746 471 l 743 468 q 758 463 753 467 q 758 474 758 467 q 757 485 757 482 q 751 481 754 482 q 765 514 751 481 q 799 518 778 514 q 831 522 819 522 q 882 506 850 522 q 925 488 914 489 l 967 514 q 1017 517 988 517 q 1090 513 1031 517 q 1097 469 1100 478 q 1094 472 1097 469 q 1096 424 1107 447 l 1106 411 q 1099 296 1106 393 q 1108 232 1108 276 m 763 171 q 692 104 763 143 l 683 164 q 722 208 683 208 q 749 197 735 208 q 763 171 763 186 m 746 107 q 675 10 746 86 l 667 99 q 680 128 667 111 q 707 146 693 146 q 746 107 746 146 m 433 344 q 360 283 433 315 l 354 340 q 393 383 354 383 q 419 370 404 383 q 433 344 433 357 m 121 635 q 50 569 121 610 l 42 629 q 81 674 42 674 q 106 661 92 674 q 121 635 121 649 m 615 192 q 514 -54 615 169 q 536 175 536 131 q 576 233 536 233 q 615 192 615 233 m 86 596 q 17 472 86 575 l 8 585 q 19 618 7 597 q 46 639 32 639 q 86 596 86 639 m 86 528 q 15 435 86 506 l 8 521 q 20 551 7 535 q 49 568 33 568 q 86 528 86 568 m 78 485 q 7 388 78 464 l -1 475 q 12 506 -1 488 q 39 524 25 524 q 78 485 78 524 m 75 308 q -1 363 -1 308 q 75 460 -1 390 l 75 308 m 75 306 q 71 235 75 278 q 65 164 67 176 l 0 165 q 4 236 0 193 q 10 307 10 296 l 75 306 m 86 140 q 17 15 86 119 l 8 129 q 19 162 7 142 q 46 182 32 182 q 86 140 86 182 m 449 742 q 386 751 396 753 l 153 732 l 392 682 l 436 676 l 449 742 m 624 246 q 585 286 624 286 q 544 208 544 286 q 554 122 544 143 q 624 246 624 228 z "},"H":{"ha":1051,"x_min":-157,"x_max":938,"o":"m 406 660 q 335 597 406 633 l 329 656 q 365 700 329 700 q 406 660 406 700 m 350 749 l 344 682 q 279 688 329 682 l 267 689 q 236 724 236 692 q 271 757 236 757 l 276 757 q 350 749 275 757 m 754 265 l 610 269 q 576 332 576 269 l 608 336 l 615 336 q 754 265 667 336 m 938 1007 q 918 871 922 957 q 907 732 913 767 q 910 711 903 711 q 924 718 914 711 q 931 692 931 707 q 919 654 931 676 q 932 529 918 635 q 910 497 910 518 q 920 426 910 474 q 931 354 931 379 q 922 237 931 315 q 913 118 913 158 l 849 118 q 852 153 849 131 q 856 183 856 175 q 853 197 853 192 l 853 200 q 889 276 853 222 q 928 332 908 304 q 931 253 928 326 q 932 149 932 192 q 910 -69 932 -6 l 921 -69 l 921 -160 l 911 -171 l 910 -174 l 911 -172 l 911 -171 q 913 -165 911 -168 q 913 -161 913 -162 q 914 -165 913 -162 q 914 -172 914 -169 l 908 -210 q 826 -219 881 -210 q 746 -228 772 -228 q 688 -192 717 -228 q 658 -131 663 -160 q 676 -68 676 -81 q 672 -24 676 -54 q 667 19 667 6 q 674 140 667 60 q 681 261 681 221 q 675 339 681 321 l 651 353 q 631 342 644 350 q 611 332 618 335 l 625 357 q 579 353 603 338 l 596 331 l 579 331 q 503 336 528 331 q 447 329 475 329 q 410 338 433 329 q 375 346 386 346 q 269 333 374 346 q 235 281 267 317 l 235 244 q 240 96 235 196 q 244 -54 244 -4 q 235 -197 244 -125 q 179 -211 229 -199 q 122 -221 144 -221 q 25 -196 44 -221 q 0 -108 17 -186 l 11 -93 l 11 -92 l 10 -92 l 11 -93 l 11 -96 q 1 -67 3 -81 q -3 -68 -1 -68 q 11 254 11 121 q 5 415 11 308 q -1 575 -1 522 q 8 682 -1 610 q 17 792 18 754 l 0 825 q 7 957 -1 878 q 8 1047 13 1014 l 32 1085 q -157 1040 26 1085 q 172 1111 79 1111 q 213 1075 200 1111 l 214 1068 q 249 1058 222 1068 q 239 1001 246 1029 q 236 988 236 989 l 236 982 q 253 926 253 958 q 245 888 253 913 q 238 850 238 863 q 247 821 247 831 q 243 792 247 810 l 238 786 q 242 740 238 756 q 244 699 246 724 l 236 681 l 242 675 q 260 568 254 629 q 397 563 300 567 l 408 544 q 472 565 440 565 q 513 560 486 565 q 554 556 540 556 q 611 560 575 556 q 668 564 653 564 q 685 614 685 600 q 679 670 685 633 q 674 725 674 707 q 688 789 674 753 q 671 885 671 822 q 707 976 671 942 q 690 1011 707 982 q 661 1068 683 1019 q 740 1092 701 1079 q 821 1106 792 1106 q 857 1101 824 1106 l 875 1074 q 918 1036 899 1071 q 907 1014 914 1028 q 938 1007 917 1014 m 478 336 l 476 269 q 368 311 368 269 q 404 344 368 349 l 406 344 q 442 340 418 344 q 478 336 467 336 m 924 -200 q 856 -325 924 -221 l 847 -212 q 857 -179 846 -197 q 885 -161 868 -161 q 924 -200 924 -161 m 543 138 l 389 143 q 354 207 354 143 l 394 208 q 417 208 417 208 q 543 138 444 208 m 899 -282 l 775 -279 l 536 -250 l 772 -212 q 899 -282 832 -210 m 411 135 q 407 61 411 107 q 390 27 406 47 q 371 7 375 7 q 351 22 365 7 q 338 50 338 36 q 347 139 338 65 l 411 135 m 406 11 q 338 -85 406 -10 l 328 3 q 341 33 328 17 q 367 50 354 50 q 406 11 406 50 m 269 -75 q 196 -21 196 -75 q 269 78 196 4 l 269 -75 m 282 694 q 242 733 282 733 q 204 690 204 733 l 211 631 q 282 694 282 668 m 933 -29 q 919 -3 933 -15 q 893 10 904 10 q 865 -4 875 10 q 856 -35 854 -18 l 860 -94 q 933 -29 933 -57 m 282 619 q 242 657 282 657 q 204 614 204 657 l 213 551 q 282 619 282 596 m 279 311 l 214 313 q 210 240 214 292 q 206 168 206 194 l 269 167 q 275 239 271 179 q 279 311 279 283 m 282 138 q 243 176 282 176 q 217 160 231 176 q 204 129 204 143 l 213 44 q 282 138 282 115 m 290 661 q 222 564 290 639 l 213 653 q 225 684 213 669 q 253 699 238 699 q 290 661 290 699 z "},"I":{"ha":414,"x_min":-21,"x_max":293,"o":"m 56 731 q -4 596 56 676 l 0 782 l 56 782 l 56 731 m 67 660 q 4 593 67 632 l -1 654 q 7 684 -3 669 q 32 699 17 699 q 67 660 67 699 m 74 622 q 14 521 74 600 l 7 614 q 17 644 6 625 q 40 663 29 663 q 74 622 74 663 m 293 943 q 269 713 293 782 q 286 650 286 682 q 282 606 286 636 q 278 556 278 576 q 283 379 278 497 q 288 201 288 261 q 278 75 288 160 q 269 -51 269 -10 q 278 -94 269 -65 q 288 -140 288 -124 q 263 -275 288 -186 q 179 -283 204 -283 q 60 -261 131 -283 q 65 -126 60 -176 q -21 -58 47 -117 l 69 -58 l 69 -46 q 65 60 69 -11 q 60 167 60 132 q 65 279 60 204 q 69 393 69 354 q 63 476 69 421 q 57 558 57 531 q 64 610 57 581 l 78 626 l 78 638 q 65 735 78 671 q 53 832 53 799 q 57 899 53 881 q 90 947 65 928 l 93 950 q 69 986 69 965 q 74 1029 69 1000 q 78 1069 78 1058 l 104 1076 q 124 1071 115 1076 l 131 1079 q 193 1113 158 1113 q 283 1061 265 1113 q 293 943 293 1035 m 74 371 q 14 274 74 350 l 7 361 q 17 392 6 374 q 40 410 29 410 q 74 371 74 410 m 67 243 q 6 114 67 225 l -1 229 q 8 264 -3 244 q 33 283 18 283 q 67 243 67 283 m 72 196 l 68 118 q 38 61 64 60 q 19 76 32 61 q 7 106 7 92 q 15 200 7 104 l 72 196 m 67 -21 q 4 -244 67 -47 l -1 -44 q 10 -5 -1 -32 q 35 22 22 22 q 58 8 49 22 q 67 -21 67 -7 m 67 322 q 33 364 67 364 q 10 340 22 364 q -1 304 -1 315 l 4 133 q 67 322 67 300 m 75 53 q 40 94 75 94 q 19 69 31 94 q 7 33 7 44 l 13 -142 q 75 53 75 31 z "},"J":{"ha":931,"x_min":-6,"x_max":824,"o":"m 824 850 q 756 754 824 829 l 747 842 q 760 872 747 854 q 786 890 772 890 q 824 850 824 890 m 803 353 q 729 408 729 353 q 803 504 729 433 l 803 353 m 815 364 q 746 300 815 336 l 738 358 q 775 403 738 403 q 801 390 786 403 q 815 364 815 376 m 807 301 q 735 239 807 274 l 729 296 q 767 340 729 340 q 792 327 778 340 q 807 301 807 314 m 783 913 q 754 857 776 901 l 756 843 q 756 846 756 844 q 754 849 754 847 q 751 853 754 850 q 728 840 742 840 q 706 851 715 840 q 699 821 711 833 l 760 822 q 756 805 760 818 q 751 786 751 792 q 761 690 751 754 q 769 590 771 625 l 768 550 l 753 533 l 753 513 l 751 444 l 765 431 q 771 392 771 411 q 761 322 771 368 q 751 253 751 276 q 755 192 751 233 q 758 131 758 151 q 750 51 758 90 l 725 18 q 728 -10 728 1 q 710 -55 728 -42 q 675 -81 692 -68 q 576 -199 626 -139 q 433 -253 518 -253 q 383 -225 397 -253 l 388 -229 q 393 -233 389 -229 q 408 -210 393 -210 q 410 -207 408 -208 q 410 -204 410 -206 q 422 -237 422 -224 q 347 -282 422 -282 q 200 -257 264 -282 q 68 -179 149 -236 q 57 -136 58 -161 l 14 -118 l -6 -42 l 25 -25 l 35 -6 q 81 1 63 6 l 85 1 l 110 35 l 133 39 q 172 8 164 39 l 174 8 q 135 -6 165 4 q 217 76 157 32 q 231 -1 218 14 q 299 -19 244 -17 q 342 -21 321 -21 q 407 -12 393 -21 q 456 24 431 6 l 456 35 q 496 61 476 56 q 518 118 500 79 l 526 122 q 521 193 526 146 q 515 264 515 240 q 524 821 515 599 q 515 924 515 833 q 535 1040 515 992 l 551 1040 l 551 1067 l 581 1067 l 581 1071 q 632 1114 581 1114 q 772 1071 682 1114 q 760 928 758 974 l 783 913 m 807 710 q 792 736 807 724 q 767 749 778 749 q 740 734 750 749 q 729 704 729 719 l 735 643 q 807 710 807 683 m 815 529 q 778 571 815 571 q 751 553 764 571 q 739 521 739 535 q 719 281 739 483 q 815 529 815 503 m 782 61 q 767 88 782 75 q 740 100 751 100 q 703 56 703 100 l 711 -4 q 782 61 782 33 m 581 -18 q 450 54 476 54 l 425 54 q 388 21 388 58 q 421 -12 388 -12 l 421 -12 l 432 -12 l 581 -18 z "},"K":{"ha":1135,"x_min":-4,"x_max":1075,"o":"m 926 817 q 856 751 926 789 l 847 810 q 886 854 847 854 q 912 842 897 854 q 926 817 926 829 m 410 869 q 339 803 410 843 l 331 863 q 369 908 331 908 q 397 897 383 908 q 410 869 410 885 m 326 750 q 281 724 308 724 l 261 728 l 251 738 q 233 774 233 756 q 272 810 233 810 q 310 792 296 810 q 326 750 325 774 m 385 710 q 314 643 385 683 l 304 704 q 343 749 304 749 q 385 710 385 749 m 410 628 q 339 531 410 607 l 331 619 q 344 649 331 632 q 371 667 357 667 q 410 628 410 667 m 1075 -274 q 911 -283 979 -283 q 807 -271 833 -283 q 760 -174 760 -249 q 763 -157 760 -168 q 664 -26 710 -111 q 590 121 628 47 q 551 169 590 122 q 529 232 529 197 l 507 246 q 475 325 494 283 q 451 331 465 328 q 379 249 415 290 q 311 183 329 193 l 303 183 q 275 145 297 156 q 232 125 253 135 l 244 146 l 232 167 l 265 147 l 265 83 q 254 -114 265 -76 q 268 -169 268 -142 q 254 -267 268 -160 q 181 -279 235 -268 q 107 -289 133 -289 q 17 -269 76 -289 l 17 -235 l 11 -222 l 38 -182 q 19 -187 32 -187 q -4 29 -4 -1 q 8 102 -4 54 q 21 174 21 150 q 15 256 21 201 q 8 338 8 311 q 13 379 8 351 q 18 422 18 407 q 6 453 6 438 q 11 472 6 465 l 14 489 q 17 510 17 506 q 17 699 17 699 q 8 750 8 722 l 11 772 l 33 796 q 17 858 18 839 q 17 929 15 865 l 18 929 q 7 968 7 944 q 21 1019 7 992 q 19 1075 17 1033 q 114 1088 65 1075 q 203 1113 158 1100 l 268 1081 q 264 957 267 1067 q 244 838 263 882 q 240 826 243 833 l 263 818 q 269 693 271 765 q 255 667 269 681 q 235 653 240 653 l 235 686 q 215 660 225 660 q 203 679 207 660 q 182 863 203 672 l 276 685 q 260 525 260 581 q 267 447 260 489 q 346 514 294 508 l 346 526 q 414 599 346 579 q 408 639 413 604 q 469 676 453 676 q 500 658 490 676 l 503 656 q 510 651 508 651 q 511 654 511 653 q 503 671 510 660 q 472 625 503 619 q 492 633 489 633 l 464 676 l 457 686 q 542 796 469 697 l 542 822 q 607 857 568 835 q 611 885 611 861 q 625 921 611 900 q 661 925 643 922 q 663 943 661 928 q 724 1006 671 997 l 724 1006 l 756 1093 q 792 1082 788 1082 q 840 1086 788 1082 l 867 1031 l 847 1043 l 842 1039 l 856 1010 q 804 1056 804 1025 q 823 1080 804 1065 q 867 1096 842 1094 q 908 1097 885 1097 q 990 1094 935 1097 l 1014 1042 q 1017 1056 1013 1049 q 1019 1036 1019 1042 l 1019 1026 q 979 983 1013 1003 q 944 964 963 974 q 936 931 939 935 q 911 907 931 917 l 907 906 l 907 903 q 892 874 907 889 q 865 825 882 867 q 811 768 847 783 q 786 740 793 761 q 768 703 774 711 q 689 624 768 703 q 632 539 632 567 q 633 531 632 533 l 642 521 q 667 440 665 493 q 704 382 700 428 q 729 371 713 379 q 760 281 760 356 l 760 276 q 814 218 796 257 q 839 143 818 211 l 857 143 q 876 83 865 126 l 904 74 q 922 22 918 49 q 931 -29 926 -4 q 967 -68 953 -42 l 981 -61 q 1007 -135 1007 -104 l 1007 -136 q 1050 -199 1032 -146 q 1075 -274 1054 -211 m 401 156 q 303 -93 401 132 q 324 149 324 110 q 335 179 324 161 q 363 197 347 197 q 401 156 401 197 m 401 67 q 303 -182 401 43 q 324 60 324 22 q 335 90 324 72 q 363 108 347 108 q 401 67 401 108 m 401 -56 q 331 -178 401 -78 l 322 -69 q 333 -35 321 -56 q 361 -15 344 -15 q 401 -56 401 -15 m 690 478 q 651 517 690 517 q 624 499 638 517 q 611 468 611 481 l 619 381 q 690 478 690 457 m 269 868 q 229 908 269 908 q 192 865 192 908 l 199 803 q 269 868 269 843 m 717 424 q 678 464 717 464 q 648 444 660 464 q 638 410 636 425 l 646 294 q 717 424 717 404 m 261 833 q 222 872 261 872 q 195 855 208 872 q 182 825 182 838 l 190 736 q 261 833 261 813 m 786 289 q 747 329 786 329 q 719 315 732 329 q 707 283 707 300 l 717 194 q 786 289 786 269 z "},"L":{"ha":1122,"x_min":-10,"x_max":1114,"o":"m 1114 -142 l 1106 -147 l 1111 -149 l 1111 -231 q 1067 -257 1111 -231 q 1015 -271 1043 -271 q 947 -266 993 -271 q 878 -261 901 -261 q 778 -271 844 -261 q 678 -281 711 -281 q 608 -272 651 -281 q 539 -258 554 -260 q 421 -275 510 -275 q 401 -276 414 -275 q 382 -276 388 -276 q 278 -219 289 -276 l 275 -219 q 226 -160 239 -214 q 215 -71 221 -115 q 281 -56 253 -61 q 288 -54 285 -56 l 292 -44 l 288 -24 l 286 -18 q 272 -31 282 -26 q 268 -44 272 -39 q 272 -74 272 -44 l 290 -14 q 308 -54 308 -26 q 299 -104 308 -65 l 269 -110 q 229 -76 233 -110 l 229 -72 l 221 -68 l 221 -42 l 238 -24 q 236 -25 236 -24 q 233 -25 235 -25 q 227 14 233 -12 q 221 53 221 40 q 231 86 221 71 l 224 96 q 217 161 217 122 q 238 356 217 236 l 221 372 l 221 481 l 289 503 q 265 556 286 507 l 265 528 l 285 497 q 293 497 289 500 q 268 493 268 493 l 229 500 q 235 569 231 531 q 239 617 239 603 q 229 684 239 639 q 219 753 219 729 q 229 842 219 782 q 239 933 239 903 q 229 972 239 946 q 219 1014 219 999 q 256 1069 219 1036 q 311 1108 285 1097 l 299 1088 q 325 1094 308 1094 q 343 1092 336 1094 l 326 1111 l 332 1110 q 394 1114 368 1110 l 407 1090 q 482 1081 418 1089 q 468 913 468 925 q 479 819 468 868 l 460 785 q 465 789 463 788 q 451 769 460 778 q 465 676 456 744 q 417 660 432 660 q 439 676 419 672 l 421 707 q 396 690 417 690 q 439 729 400 729 l 463 724 q 481 661 481 674 q 474 599 481 640 q 468 536 468 558 q 469 531 468 535 q 469 525 469 528 l 485 510 q 492 460 492 485 q 456 260 492 392 l 460 254 q 478 231 468 243 l 481 210 q 478 179 481 199 l 479 179 q 474 32 482 76 q 468 -17 468 1 l 468 -22 q 481 -35 474 -26 q 585 -53 515 -43 l 594 -35 l 608 -35 l 608 -18 q 642 -15 638 -15 q 683 -47 683 -15 q 681 -65 683 -56 l 681 -65 l 650 -35 q 663 -30 650 -35 q 683 -25 676 -25 q 740 -71 729 -25 l 775 -71 q 751 -131 758 -115 q 733 -110 733 -119 l 724 -118 q 696 -46 724 -107 q 796 -44 718 -44 l 810 -44 q 888 -26 836 -25 l 897 -43 q 1008 -51 935 -47 q 1046 -33 1024 -33 q 1092 -78 1092 -33 q 1083 -114 1092 -94 l 1114 -142 m 229 860 q 160 799 229 833 l 150 857 q 188 900 150 900 q 213 892 200 900 q 229 860 229 879 m 219 789 q 150 692 219 768 l 142 779 q 155 810 142 792 q 181 828 168 828 q 219 789 219 828 m 229 708 q 158 643 229 685 l 150 706 q 188 749 150 749 q 229 708 229 749 m 79 858 q 10 764 79 839 l 1 851 q 13 883 1 868 q 42 899 25 899 q 79 858 79 899 m 203 672 q 133 578 203 650 l 124 665 q 136 697 124 682 q 164 713 149 713 q 203 672 203 713 m 236 554 q 158 571 193 556 q 122 596 122 586 q 129 614 122 603 l 128 611 l 144 656 l 189 613 q 204 633 189 628 q 236 554 204 625 m 89 786 q -10 539 89 765 q 10 769 10 739 q 50 828 10 828 q 89 786 89 828 m 218 513 q 147 383 218 463 l 151 564 l 217 564 q 218 543 217 561 q 218 513 218 525 m 229 428 q 157 246 229 404 l 150 413 q 163 449 150 425 q 190 472 176 472 q 218 458 207 472 q 229 428 229 443 m 104 461 q 90 432 104 443 q 61 424 76 421 q 17 472 17 447 q 54 510 17 510 q 104 461 104 510 m 79 503 q 10 408 79 481 l 1 496 q 14 528 1 513 q 42 543 26 543 q 79 503 79 543 m 219 344 q 149 251 219 322 l 142 336 q 154 367 140 349 q 181 385 168 385 q 219 344 219 385 m 158 390 q 149 361 158 374 q 111 310 144 354 q 75 383 75 368 q 92 414 75 400 q 122 428 108 428 q 158 390 158 428 m 168 258 q 115 228 147 228 q 58 288 58 228 q 73 318 58 307 q 101 329 88 329 q 142 313 122 329 q 168 258 168 293 m 219 140 q 150 43 219 119 l 142 132 q 155 162 142 144 q 181 179 168 179 q 219 140 219 179 m 86 21 q 18 -47 86 -11 q 4 68 4 40 q 65 129 4 103 q 86 21 86 50 m 164 -62 l 103 -126 q 85 -28 85 -54 q 97 -2 85 -15 q 126 11 108 11 l 146 4 q 164 -62 164 -32 m 83 790 q 0 625 0 653 q 18 586 0 608 q 76 557 42 557 q 83 790 75 633 m 379 293 q 353 328 379 318 l 326 267 q 346 256 336 261 l 344 256 q 315 265 339 257 q 353 278 340 271 q 379 303 378 289 q 350 289 350 296 q 364 275 350 283 q 379 293 379 288 m 621 -57 q 578 -8 621 -8 q 533 -50 533 -8 q 551 -107 533 -64 q 621 -57 606 -93 m 367 -18 q 233 54 261 54 l 207 54 q 169 21 169 58 q 204 -12 169 -12 l 214 -12 l 367 -18 m 89 692 q 17 625 89 668 l 10 688 q 47 731 10 731 q 89 692 89 731 z "},"M":{"ha":1335,"x_min":-1,"x_max":1224,"o":"m 811 625 l 718 675 q 726 728 724 718 q 763 764 738 764 q 794 741 789 764 q 811 625 800 718 m 736 544 q 665 450 736 521 l 657 535 q 670 565 657 547 q 697 582 683 582 q 736 544 736 582 m 960 369 q 888 147 960 344 l 881 346 q 894 386 881 360 q 922 413 907 413 q 949 398 939 413 q 960 369 960 383 m 950 300 q 879 171 950 279 l 871 286 q 882 321 869 301 q 911 340 894 340 q 950 300 950 340 m 968 229 q 897 164 968 204 l 889 226 q 926 269 889 269 q 968 229 968 269 m 960 193 q 888 72 960 172 q 879 153 879 119 q 921 233 879 233 q 960 193 960 233 m 685 438 q 610 371 685 410 l 604 432 q 615 462 604 447 q 643 476 626 476 q 670 464 656 476 q 685 438 685 451 m 1224 1033 q 1172 922 1210 1000 q 1114 947 1133 933 q 1081 938 1114 938 l 1103 997 q 1124 946 1121 985 q 1140 957 1126 957 q 1207 940 1153 957 q 1194 814 1206 890 q 1132 761 1182 781 q 1199 725 1154 749 q 1208 681 1208 697 q 1203 638 1208 667 q 1197 592 1197 608 l 1204 589 l 1204 435 l 1192 435 q 1210 256 1210 385 q 1199 103 1210 203 q 1188 -39 1188 4 q 1199 -67 1188 -42 q 1210 -115 1210 -93 q 1200 -186 1210 -143 q 1183 -257 1185 -251 q 1081 -278 1100 -278 q 1011 -233 1043 -278 q 947 -194 993 -208 l 942 -164 q 954 -126 942 -144 q 956 -121 954 -125 q 956 -114 956 -117 q 951 -79 956 -101 q 947 -46 947 -57 q 953 -11 947 -32 l 940 1 q 954 76 947 36 l 943 86 l 943 124 q 935 136 935 135 q 948 275 935 183 q 961 394 961 367 q 949 463 961 418 q 936 528 938 508 l 996 513 q 964 489 986 499 q 956 463 957 486 q 922 368 953 422 l 899 392 q 878 311 888 369 q 836 228 869 265 q 818 200 821 211 q 818 168 818 197 q 803 103 818 144 l 788 103 q 761 25 782 79 l 742 13 l 742 -15 q 715 -31 732 -22 l 715 -72 q 581 -85 600 -85 q 485 -53 511 -85 q 457 35 465 -29 q 450 73 453 64 q 432 99 447 82 q 410 151 410 129 q 411 167 410 163 q 390 169 406 168 q 329 331 368 242 q 264 475 296 403 q 260 374 260 456 q 272 256 260 288 q 261 226 269 244 l 261 226 l 260 225 l 271 208 l 269 175 l 271 121 q 260 100 265 111 l 271 94 l 271 11 q 244 -246 271 -149 l 203 -246 q 114 -278 151 -278 q 0 -232 76 -278 l 0 -186 q 6 -124 0 -165 q 11 -61 11 -82 l 11 -60 q 47 -58 35 -62 l 10 -51 q 18 3 18 -25 q 8 88 18 32 q -1 171 -1 143 q 9 267 -1 204 q 19 363 19 331 q 13 431 19 386 q 6 499 6 476 q 26 578 6 543 q 22 647 28 603 q 17 710 17 690 q 26 758 17 728 q 36 804 35 789 l 10 831 q 18 897 7 867 q 29 939 29 928 q 14 1081 29 943 q 71 1071 19 1079 q 131 1064 110 1064 q 188 1103 146 1103 q 221 1101 226 1103 l 206 1068 q 233 1078 215 1078 q 246 1076 240 1078 q 242 1093 242 1085 q 264 1086 242 1093 q 272 1046 272 1060 q 267 1017 272 1031 q 367 800 367 919 q 369 799 367 799 q 372 800 372 800 l 379 794 q 406 751 406 778 q 403 731 406 744 q 401 735 400 733 l 388 693 l 599 756 l 360 736 q 424 713 401 739 q 447 646 447 688 q 444 611 447 633 q 488 553 488 585 q 478 531 488 546 l 482 529 q 518 460 518 508 q 560 406 553 442 q 563 331 563 393 l 581 325 q 600 276 593 303 q 622 279 608 276 q 636 290 628 285 l 636 294 q 638 314 638 301 q 656 377 638 344 q 675 425 675 410 q 681 451 675 429 l 715 486 q 726 549 721 535 q 761 597 732 563 q 789 650 786 626 q 799 707 793 692 l 810 713 q 808 721 808 715 q 822 758 808 733 l 851 764 q 851 785 851 771 q 850 806 850 799 q 867 869 850 831 l 882 869 q 885 903 882 876 q 933 917 910 917 l 933 922 q 950 947 933 928 l 950 967 l 989 971 l 1018 969 l 1035 967 l 1042 961 l 1046 968 q 1063 921 1057 938 q 1038 918 1046 918 q 989 968 989 918 q 1000 1011 989 989 l 1010 976 q 1013 978 1010 978 l 1028 919 l 933 919 q 947 1035 940 1019 q 1021 1115 953 1050 q 1117 1099 1026 1114 q 1122 1082 1117 1099 q 1143 1085 1128 1085 l 1158 1083 l 1224 1033 m 932 94 q 888 57 932 57 l 865 67 q 842 128 842 111 q 876 163 842 163 q 919 132 903 163 q 932 94 932 110 m 949 -82 q 935 -114 949 -97 q 903 -131 921 -131 l 872 -122 l 872 -112 l 879 -111 l 861 -108 l 851 -97 q 836 -61 836 -79 q 871 -26 836 -26 q 944 -43 882 -26 l 949 -82 m 964 -201 q 906 -179 926 -201 q 889 -144 889 -162 q 964 -47 889 -118 l 964 -201 m 817 -21 q 746 -115 817 -44 l 738 -29 q 751 0 738 -18 q 776 18 764 18 q 817 -21 817 18 m 960 -192 q 889 -289 960 -212 l 881 -200 q 894 -170 881 -187 q 921 -153 907 -153 q 960 -192 960 -153 m 860 -231 l 742 -269 l 747 -214 l 747 -199 q 789 -153 747 -153 l 808 -157 l 860 -231 m 631 -125 l 435 -121 l 436 -54 l 479 -54 q 631 -125 518 -54 m 194 836 q 173 854 188 842 q 150 872 158 867 l 110 821 q 142 804 119 813 l 144 796 l 194 836 m 629 329 q 592 368 629 368 q 563 351 576 368 q 550 319 550 335 l 558 231 q 629 329 629 306 m 1040 -215 q 972 -161 1040 -161 l 943 -190 q 965 -261 943 -222 l 989 -264 q 1040 -215 1040 -264 m 326 403 q 282 439 326 439 l 279 439 q 239 401 239 439 q 240 396 239 400 q 240 390 240 393 q 240 394 242 393 l 288 358 q 312 378 297 361 q 326 403 326 394 m 583 -74 q 567 -39 583 -51 q 533 -26 550 -26 q 496 -62 496 -26 q 525 -110 496 -81 l 540 -111 q 583 -74 583 -111 z "},"N":{"ha":1301,"x_min":-3,"x_max":1206,"o":"m 1183 831 q 1124 853 1144 831 q 1107 888 1107 869 q 1183 985 1107 914 l 1183 831 m 1196 842 q 1124 775 1196 815 l 1117 838 q 1156 881 1117 881 q 1196 842 1196 881 m 1193 783 q 1189 716 1193 761 q 1183 647 1185 671 l 1118 650 q 1122 717 1118 674 q 1126 785 1126 765 l 1193 783 m 1206 519 q 1133 456 1206 494 l 1125 515 q 1164 558 1125 558 q 1190 545 1175 558 q 1206 519 1206 532 m 1196 483 q 1125 389 1196 460 l 1117 474 q 1130 504 1117 486 q 1157 522 1143 522 q 1196 483 1196 522 m 593 1056 q 524 992 593 1029 l 513 1050 q 551 1094 513 1094 q 593 1056 593 1094 m 646 957 q 572 894 646 929 l 567 953 q 604 996 567 996 q 631 983 617 996 q 646 957 646 969 m 1196 419 q 1124 297 1196 397 q 1115 379 1115 346 q 1157 460 1115 460 q 1196 419 1196 460 m 743 822 q 672 726 743 800 l 664 814 q 677 844 664 826 q 704 861 690 861 q 743 822 743 861 m 1188 364 q 1118 238 1188 346 l 1108 353 q 1119 386 1107 367 q 1147 406 1131 406 q 1188 364 1188 406 m 806 707 q 733 640 806 681 l 726 701 q 765 746 726 746 q 806 707 806 746 m 606 871 q 589 633 589 733 q 531 663 553 633 q 513 703 513 685 q 606 871 513 733 m 1196 144 q 1125 79 1196 117 l 1117 138 q 1154 182 1117 182 q 1181 169 1167 182 q 1196 144 1196 157 m 779 510 q 710 446 779 485 l 699 506 q 738 549 699 549 q 779 510 779 549 m 1063 174 q 1021 15 1051 126 q 1038 -99 1038 -43 q 1011 -194 1038 -171 q 1015 -324 1015 -237 q 1033 -212 1031 -215 q 1028 -239 1033 -222 l 1028 -240 q 936 -282 1010 -282 q 842 -261 899 -282 q 772 -203 772 -236 q 779 -172 772 -186 q 713 -129 756 -161 l 706 -81 l 694 -79 l 686 -64 l 665 -64 l 665 17 q 438 318 633 43 l 372 318 q 326 508 372 482 q 298 532 304 521 q 288 571 292 543 q 267 582 285 576 l 265 583 q 250 226 263 474 l 240 228 l 243 217 l 236 222 q 254 176 254 196 q 244 136 254 158 q 269 44 250 117 l 243 38 q 243 17 246 28 q 253 -29 253 -37 q 247 -70 253 -43 q 242 -111 242 -97 q 253 -152 242 -124 q 264 -199 264 -181 q 258 -240 264 -190 q 242 -251 244 -247 q 232 -272 239 -254 q 119 -265 176 -269 q 10 -235 63 -261 l 18 -212 l 11 -211 q 3 -136 10 -182 q -3 -79 -3 -97 q 17 -10 -3 -36 l 18 -8 l 10 0 l 8 25 q 15 58 7 38 l 0 65 q 11 474 -3 188 q 10 788 22 701 l 33 771 q 28 793 28 785 q 10 789 19 789 q 9 845 10 808 q 7 900 8 882 l 10 900 l 0 922 q 31 961 22 936 l 26 964 q 11 1026 15 989 q 3 1092 7 1060 q 56 1097 40 1092 q 86 1101 72 1101 q 122 1092 99 1101 l 133 1089 q 178 1111 153 1111 q 269 1074 232 1111 l 269 1049 l 288 1043 q 300 983 300 1017 l 328 965 q 332 922 335 940 l 331 914 q 347 890 331 908 q 379 861 364 871 q 410 818 407 831 l 438 811 q 451 739 451 781 l 451 731 q 517 653 503 688 q 535 618 519 643 l 531 576 q 524 593 524 581 l 531 590 q 543 583 536 588 l 547 583 l 515 554 q 515 564 515 557 q 514 572 514 569 q 590 635 514 604 l 588 528 q 588 506 588 506 q 633 464 631 492 q 644 419 638 426 l 656 414 q 699 324 706 389 l 708 324 q 749 254 738 274 q 792 201 775 213 l 796 201 q 804 213 799 206 q 813 224 810 221 l 801 242 q 793 301 793 272 q 797 458 793 354 q 800 614 800 563 q 794 686 800 639 q 789 756 789 733 q 808 814 789 785 l 771 876 q 826 918 808 885 q 793 1003 793 951 q 801 1088 793 1024 q 842 1093 832 1093 l 847 1093 l 860 1101 q 934 1099 896 1100 q 1006 1086 972 1099 q 1013 1074 1010 1076 q 1029 1067 1015 1071 q 1033 964 1033 1040 q 1036 914 1033 928 q 1060 858 1058 897 q 1032 785 1031 833 l 1014 813 l 1053 793 q 1042 478 1042 643 l 1032 472 q 1032 456 1035 464 l 1032 453 q 1043 422 1043 435 q 1035 392 1043 408 q 1043 325 1043 361 q 1038 276 1043 308 q 1032 229 1032 244 q 1036 201 1032 218 q 1040 174 1040 181 l 1042 169 l 1000 185 q 1014 154 1014 174 q 1008 138 1014 143 q 1032 135 1000 135 l 1000 174 l 1063 174 m 460 294 q 389 233 460 268 l 381 292 q 418 335 381 335 q 460 294 460 335 m 585 171 q 510 104 585 146 l 504 165 q 515 195 504 181 q 543 210 526 210 q 570 197 556 210 q 585 171 585 185 m 601 114 q 532 -12 601 96 l 522 103 q 533 136 521 117 q 561 156 544 156 q 601 114 601 156 m 451 196 q 381 67 451 176 l 372 182 q 383 217 371 197 q 411 236 394 236 q 451 196 451 236 m 460 140 q 390 14 460 122 l 381 129 q 391 163 379 143 q 419 182 403 182 q 460 140 460 182 m 1054 1054 q 1014 1093 1054 1093 q 988 1076 1001 1093 q 975 1046 975 1058 l 983 957 q 1054 1054 1054 1035 m 1060 560 l 994 564 q 985 471 985 489 q 999 442 985 457 q 1019 426 1014 426 q 1039 447 1024 426 q 1056 482 1054 468 q 1060 560 1060 529 m 460 813 q 418 853 460 853 q 381 810 381 853 l 390 753 q 460 813 460 788 m 581 571 l 581 726 q 504 626 504 653 q 581 571 504 571 m 469 100 q 428 139 469 139 q 400 124 411 139 q 389 94 389 110 l 394 36 q 469 100 469 71 z "},"O":{"ha":1194,"x_min":-7,"x_max":1110,"o":"m 1028 835 q 956 772 1028 807 l 949 831 q 959 860 949 846 q 986 874 969 874 q 1028 835 1028 874 m 1079 754 q 1010 660 1079 732 l 1000 747 q 1013 779 1000 764 q 1040 794 1025 794 q 1079 754 1079 794 m 1079 683 q 1010 589 1079 664 l 1000 678 q 1013 709 1000 694 q 1040 724 1025 724 q 1079 683 1079 724 m 1101 410 q 1042 431 1063 410 q 1026 465 1026 447 q 1101 561 1026 493 l 1101 410 m 1097 517 q 1026 419 1097 497 l 1018 508 q 1031 538 1018 521 q 1057 556 1044 556 q 1097 517 1097 556 m 1110 451 q 1093 207 1093 308 q 1035 236 1058 207 q 1018 275 1018 258 q 1110 451 1018 303 m 1088 218 q 1017 151 1088 193 l 1008 214 q 1047 257 1008 257 q 1088 218 1088 257 m 1061 156 q 990 58 1061 135 l 982 147 q 995 177 982 160 q 1022 194 1008 194 q 1061 156 1061 194 m 1000 340 q 996 290 1000 322 l 971 247 q 979 205 969 233 q 989 161 989 176 q 974 86 989 135 q 943 11 960 38 l 932 6 q 919 -60 931 -43 q 863 -108 907 -78 q 824 -161 853 -115 q 731 -219 801 -194 q 660 -239 707 -228 l 640 -258 q 458 -285 522 -285 q 408 -281 421 -285 q 374 -249 386 -274 l 371 -243 q 293 -243 293 -243 l 268 -201 q 258 -203 265 -201 q 247 -203 251 -203 q 194 -185 208 -203 q 176 -154 186 -169 q 103 -85 111 -97 q 54 17 85 -61 q 28 64 54 17 q 15 125 15 89 q 21 180 15 144 q 26 233 26 215 q 14 311 26 256 q -3 393 0 376 l 18 403 q 16 453 18 419 q 14 504 14 486 q 21 576 14 528 q 63 583 50 583 q 67 593 64 588 q 63 619 60 611 l 103 579 q 58 604 69 576 q -7 586 19 594 q 21 665 7 611 q 38 718 22 694 q 53 718 53 722 q 48 767 53 732 q 43 831 43 803 q 79 847 64 846 q 115 846 82 847 q 114 849 115 847 q 124 858 114 849 q 131 913 131 892 q 128 949 131 926 q 175 963 157 963 l 176 965 q 219 1007 185 1007 q 238 1004 226 1007 q 288 1044 264 1028 l 288 1067 q 332 1076 315 1075 q 361 1076 343 1078 q 400 1075 385 1075 q 426 1085 406 1075 l 465 1085 l 474 1058 q 460 1050 469 1054 l 472 1013 q 463 1015 469 1014 q 453 1018 456 1017 q 410 1068 413 1029 q 504 1111 442 1111 q 570 1097 538 1111 q 633 1067 603 1082 q 671 1076 649 1076 q 732 1036 718 1076 q 792 1017 746 1039 l 788 997 l 792 997 q 857 958 813 997 q 919 901 889 931 l 892 850 q 854 836 876 843 q 857 851 853 843 q 846 872 847 849 q 888 883 874 883 q 917 874 903 883 l 921 871 q 906 868 913 867 l 943 849 q 961 799 953 824 q 971 743 971 769 q 966 687 971 725 q 961 629 961 649 l 961 615 l 967 608 q 990 546 990 579 q 983 510 990 535 q 978 474 976 486 q 1000 340 1000 408 m 940 906 q 899 944 940 944 q 860 901 860 944 l 871 842 q 940 906 940 881 m 1088 721 q 1074 747 1088 735 q 1047 760 1060 760 q 1008 715 1008 760 l 1015 656 q 1088 721 1088 696 m 1088 650 q 1047 689 1088 689 q 1010 646 1010 689 l 1015 586 q 1088 650 1088 624 m 1088 333 q 1075 360 1088 349 q 1047 372 1063 372 q 1010 328 1010 372 l 1015 269 q 1088 333 1088 306 m 757 543 l 750 657 l 728 679 q 646 811 686 775 q 500 851 594 854 l 483 835 q 419 835 483 835 q 404 833 407 835 q 339 797 383 797 q 300 726 328 774 l 276 713 q 253 549 254 656 q 254 381 254 643 q 246 350 254 367 l 249 343 q 261 301 261 321 q 246 258 261 282 q 269 169 264 211 q 276 119 271 151 q 365 14 282 88 l 363 0 l 381 0 q 426 -29 417 0 q 508 -36 472 -36 q 580 -15 547 -36 q 644 8 613 7 q 690 55 667 31 q 714 108 714 79 l 717 138 l 732 146 q 740 244 732 153 q 742 342 746 303 l 753 356 l 751 356 q 740 372 751 356 q 742 526 740 424 l 757 543 m 488 810 q 414 746 488 783 l 408 804 q 446 849 408 849 q 488 810 488 849 m 549 642 q 479 578 549 615 l 468 636 q 507 681 468 681 q 549 642 549 681 m 425 721 q 356 654 425 694 l 347 717 q 385 760 347 760 q 410 747 396 760 q 425 721 425 733 m 536 611 q 526 485 536 631 l 461 486 q 471 613 461 467 l 536 611 m 444 619 q 389 592 418 592 q 353 599 385 592 q 331 649 331 632 q 372 688 331 688 q 418 668 393 688 q 444 619 443 649 m 531 465 q 461 401 531 439 l 451 463 q 489 504 451 504 q 531 465 531 504 m 553 189 q 493 211 514 189 q 476 246 476 228 q 553 343 476 272 l 553 189 m 400 501 q 328 286 400 478 l 322 483 q 335 522 322 496 q 361 547 349 547 q 389 531 378 547 q 400 501 400 515 m 392 413 q 319 349 392 385 l 313 407 q 350 451 313 451 q 377 438 363 451 q 392 413 392 425 m 410 350 q 335 288 410 322 l 329 344 q 368 389 329 389 q 394 376 379 389 q 410 350 410 363 m 626 131 q 557 64 626 104 l 547 125 q 586 169 547 169 q 626 131 626 169 m 418 200 q 346 138 418 175 l 339 194 q 376 239 339 239 q 403 226 389 239 q 418 200 418 214 m 444 139 q 374 75 444 113 l 364 133 q 403 178 364 178 q 444 139 444 178 z "},"P":{"ha":1151,"x_min":-3,"x_max":1107,"o":"m 219 1047 q 204 1023 219 1039 q 181 1003 189 1007 l 135 1040 q 135 1033 136 1038 l 135 1038 q 133 1047 133 1040 q 176 1083 133 1083 q 219 1047 219 1083 m 246 993 q 231 969 246 985 q 207 949 215 953 l 163 989 q 161 982 163 985 q 161 988 161 985 q 160 993 160 992 q 203 1029 160 1029 l 213 1029 q 246 993 246 1025 m 203 969 q 158 943 183 943 q 117 963 132 943 q 101 1004 101 982 q 117 1036 101 1024 q 150 1049 132 1049 l 167 1044 q 203 969 203 1001 m 158 910 q 88 844 158 883 l 79 907 q 117 950 79 950 q 158 910 158 950 m 1107 671 l 1072 650 q 1057 525 1071 607 q 969 392 1032 447 q 846 299 908 346 q 767 263 801 263 q 738 265 760 263 q 700 267 717 267 l 685 250 q 638 244 663 244 q 574 251 617 244 q 510 257 532 257 q 365 240 460 257 q 361 237 364 239 q 357 233 358 235 q 351 -37 347 154 l 369 -74 q 350 -135 369 -111 q 353 -222 353 -164 l 350 -278 q 229 -274 297 -278 q 110 -268 139 -269 q 107 -40 104 -190 q 78 -3 78 -32 q 111 33 78 26 l 118 33 q 125 46 124 42 q 117 106 126 67 q 107 167 107 146 q 132 264 107 211 l 129 274 q 113 342 113 290 q 132 493 113 433 q 126 815 126 579 q 126 864 126 860 q 101 906 122 886 l 125 928 l 125 931 q 152 956 125 938 q 206 981 179 975 q 218 940 211 964 l 218 933 l 213 933 q 196 906 213 917 q 213 893 201 904 l 221 958 l 225 1083 l 242 1083 l 242 1101 q 297 1099 286 1101 q 332 1060 332 1090 q 317 1022 332 1053 q 318 1028 318 1024 l 315 1044 q 300 1057 306 1044 q 351 1080 307 1057 q 431 1103 396 1103 q 481 1087 451 1103 q 511 1050 511 1071 l 511 1042 l 560 1046 l 579 1075 q 638 1063 624 1075 l 683 1076 q 735 1125 694 1100 q 763 1039 756 1081 l 721 1065 q 731 1051 728 1060 l 732 1058 l 742 1092 l 750 1092 q 781 1083 764 1092 q 797 1075 797 1075 l 883 1125 l 865 1032 q 864 1017 864 1028 l 864 1014 q 892 1022 875 1022 l 915 1017 l 931 982 q 879 944 904 964 q 890 940 885 944 q 911 964 890 951 l 901 974 q 962 956 932 965 q 1017 928 992 946 q 1022 918 1019 924 q 1024 911 1024 913 l 1035 911 q 1058 853 1058 874 q 1056 834 1058 849 q 1054 806 1054 819 l 1054 801 l 1089 785 q 1107 671 1093 774 m 124 851 q 99 782 124 842 l 83 782 q 85 768 85 778 l 79 728 q 7 782 7 728 q 25 871 7 810 q 57 881 31 872 q 89 886 76 886 q 124 851 122 886 m 96 747 q 26 683 96 719 l 17 742 q 56 786 17 786 q 96 747 96 786 m 78 693 q 4 631 78 665 l -1 688 q 38 732 -1 732 q 63 719 49 732 q 78 693 78 706 m 168 582 q 93 519 168 557 l 88 578 q 126 624 88 624 q 168 582 168 624 m 103 576 q 88 552 103 568 q 64 532 72 536 l 19 569 q 18 563 19 565 l 18 567 q 17 576 17 569 q 60 613 17 613 q 103 576 103 613 m 78 628 q 7 499 78 608 l -1 614 q 9 649 -3 629 q 39 668 21 668 q 78 628 78 668 m 88 367 q 15 300 88 342 l 8 361 q 46 407 8 407 q 88 367 88 407 m 78 331 q 4 268 78 303 l -1 325 q 38 369 -1 369 q 63 356 49 369 q 78 331 78 343 m 88 289 q 14 65 88 267 l 8 265 q 22 305 8 278 q 49 332 36 332 q 76 317 65 332 q 88 289 88 303 m 75 190 q 69 101 74 160 l 68 79 l 60 47 q 0 89 1 47 q 10 193 0 107 l 75 190 m 78 40 q 7 -57 78 19 l -1 31 q 12 61 -1 43 q 39 79 25 79 q 78 40 78 79 m 847 676 q 808 563 847 625 q 735 501 769 501 q 672 501 672 501 l 639 476 q 546 483 599 474 q 433 494 488 494 l 432 492 l 426 496 q 358 488 400 493 l 351 494 q 344 503 350 497 l 344 504 q 390 532 353 510 q 358 615 358 590 q 365 697 358 643 q 371 776 371 750 q 344 861 371 819 l 347 863 l 347 864 q 610 840 399 865 q 404 939 521 888 l 431 896 l 435 907 l 451 913 l 457 915 q 524 894 476 901 q 519 946 522 932 q 572 928 538 939 l 569 947 q 579 978 583 957 l 539 963 l 519 904 q 626 882 585 882 q 729 893 663 882 q 825 833 738 850 q 839 756 826 817 q 847 676 847 707 m 785 765 q 714 671 785 742 l 706 756 q 719 786 706 768 q 746 804 732 804 q 785 765 785 804 m 768 692 q 693 632 768 664 l 688 689 q 725 732 688 732 q 768 692 768 732 m 625 811 q 553 749 625 783 l 544 804 q 583 850 544 850 q 610 837 594 850 q 625 811 625 824 m 757 636 q 696 549 757 615 q 679 632 679 621 q 719 676 679 676 q 757 636 757 676 m 638 769 q 631 667 638 707 q 568 635 625 635 l 564 678 l 564 688 q 568 729 564 701 q 572 771 572 757 l 638 769 z "},"Q":{"ha":1194,"x_min":-6,"x_max":1094,"o":"m 1060 725 q 989 664 1060 700 l 981 724 q 1018 765 981 765 q 1060 725 1060 765 m 1076 682 q 1006 585 1076 661 l 997 674 q 1010 703 997 686 q 1038 721 1024 721 q 1076 682 1076 721 m 1086 621 q 1015 554 1086 594 l 1007 615 q 1046 660 1007 660 q 1086 621 1086 660 m 1078 582 q 979 340 1078 557 q 999 575 999 538 q 1011 606 999 588 q 1039 624 1024 624 q 1078 582 1078 624 m 1094 413 q 1025 290 1094 393 l 1015 403 q 1026 435 1014 417 q 1054 454 1038 454 q 1094 413 1094 454 m 1086 364 q 1015 300 1086 336 l 1007 360 q 1044 403 1007 403 q 1071 390 1056 403 q 1086 364 1086 376 m 1094 333 q 1025 207 1094 315 l 1015 322 q 1026 356 1014 336 q 1054 375 1038 375 q 1094 333 1094 375 m 1060 132 q 989 65 1060 107 l 981 129 q 1018 172 981 172 q 1060 132 1060 172 m 1083 -136 q 1081 -132 1081 -133 l 1081 -181 q 1007 -281 1039 -219 q 924 -275 965 -278 q 864 -226 878 -265 q 860 -217 863 -222 q 790 -182 851 -208 q 711 -229 761 -200 q 481 -286 611 -286 q 250 -224 311 -286 q 205 -201 238 -210 q 149 -172 172 -192 l 149 -137 q 140 -143 142 -144 q 104 -115 128 -135 q 44 -10 78 -83 q 8 111 7 72 l 10 138 q 18 142 17 140 q 0 150 14 144 q 15 606 -3 421 l -6 615 q 17 744 -6 618 q 69 871 25 799 l 88 883 l 88 903 q 140 943 103 924 l 140 975 q 214 1000 171 989 l 214 1001 q 257 1040 219 1040 q 267 1040 261 1040 q 276 1039 274 1039 l 288 1032 l 289 1044 q 294 1049 292 1046 q 344 1075 303 1071 l 351 1088 q 481 1111 414 1111 q 625 1078 539 1111 l 628 1074 q 657 1075 633 1075 q 690 1053 669 1065 q 724 1050 694 1050 q 754 1043 736 1050 q 800 990 796 990 q 894 915 839 990 q 950 819 943 851 q 950 790 953 804 l 950 783 q 975 769 957 781 q 971 697 979 724 l 989 689 q 981 582 981 628 q 989 440 981 535 q 997 299 997 346 q 993 225 997 267 q 975 174 976 190 q 978 122 978 226 q 968 61 978 97 q 951 1 953 6 l 950 -3 l 918 36 q 968 18 946 38 l 949 -1 l 919 -28 q 935 -33 929 -28 q 954 -22 935 -25 l 946 -4 q 993 -35 969 -19 q 1028 -76 1022 -56 l 1032 -76 q 1071 -96 1060 -76 q 1083 -136 1075 -104 m 746 414 q 739 569 746 479 q 714 715 729 688 q 676 744 714 717 q 644 782 665 753 l 649 793 q 565 840 594 836 q 538 831 556 831 l 500 835 l 500 850 l 493 850 l 479 836 q 411 828 453 828 q 372 814 389 828 q 340 786 356 800 q 251 550 251 718 q 251 511 251 538 q 251 472 251 485 q 249 400 251 429 q 240 361 246 388 l 258 335 q 250 283 260 308 q 240 253 240 257 q 315 39 240 39 q 356 6 342 39 q 407 -17 385 4 q 449 -37 429 -37 q 516 -28 471 -37 q 585 -18 561 -18 q 563 18 585 -8 q 525 54 542 44 q 481 70 490 60 q 461 118 471 81 q 493 185 475 163 q 543 232 493 185 q 610 267 575 263 q 665 235 650 246 q 703 185 696 213 q 715 181 707 183 l 726 178 l 731 186 q 738 207 738 204 q 725 314 738 224 q 743 335 740 322 q 743 354 743 344 q 746 414 746 379 m 535 657 q 460 590 535 629 l 456 651 q 465 681 454 667 q 493 696 476 696 q 519 683 504 696 q 535 657 535 671 m 396 835 q 389 600 389 700 q 331 629 354 600 q 313 669 313 653 q 396 835 313 697 m 525 586 q 453 518 525 560 l 446 579 q 483 625 446 625 q 525 586 525 625 m 515 547 q 446 453 515 528 l 438 542 q 449 573 438 558 q 478 588 461 588 q 515 547 515 588 m 385 613 q 314 550 385 585 l 306 607 q 343 651 306 651 q 369 638 354 651 q 385 613 385 625 m 382 494 q 306 550 306 494 q 382 643 306 578 l 382 494 m 515 413 q 447 290 515 392 l 438 403 q 448 435 436 417 q 476 454 460 454 q 515 413 515 454 m 521 282 q 460 303 481 282 q 444 338 444 318 q 521 429 444 364 l 521 282 m 375 385 q 274 81 375 358 q 297 364 297 329 q 338 428 297 428 q 375 385 375 428 m 393 175 q 322 114 393 150 l 314 174 q 351 215 314 215 q 393 175 393 215 m 385 290 q 346 329 385 329 q 319 312 332 329 q 306 282 306 294 l 314 193 q 385 290 385 269 z "},"R":{"ha":1125,"x_min":-1,"x_max":1088,"o":"m 1032 624 q 960 561 1032 599 l 953 618 q 990 663 953 663 q 1017 650 1003 663 q 1032 624 1032 638 m 1032 571 q 958 507 1032 546 l 953 567 q 992 610 953 610 q 1032 571 1032 610 m 1022 510 q 953 443 1022 483 l 944 506 q 982 547 944 547 q 1008 535 993 547 q 1022 510 1022 522 m 858 297 q 788 232 858 272 l 779 292 q 818 336 779 336 q 844 324 829 336 q 858 297 858 311 m 893 174 q 824 110 893 149 l 814 171 q 851 214 814 214 q 893 174 893 214 m 944 93 q 874 31 944 68 l 867 92 q 904 133 867 133 q 944 93 944 133 m 826 204 q 811 221 813 211 l 811 175 q 739 158 779 160 l 729 188 q 758 235 729 217 q 794 249 779 249 q 822 235 813 249 q 826 204 831 221 m 989 32 q 915 -29 989 4 l 910 28 q 949 72 910 72 q 974 59 960 72 q 989 32 989 46 m 1088 -232 l 897 -279 q 818 -271 871 -279 q 721 -260 757 -261 q 711 -203 708 -222 l 711 -203 q 676 -143 676 -168 q 682 -122 676 -131 l 682 -119 q 638 -51 638 -104 q 621 -28 638 -46 q 601 -4 604 -10 q 588 44 593 13 q 576 94 579 83 l 583 100 q 526 169 551 124 q 490 251 524 176 l 474 251 q 458 286 458 276 q 407 285 443 285 q 356 285 407 285 l 349 285 q 278 196 343 261 l 278 285 l 269 285 l 267 283 l 263 279 q 261 239 258 268 q 264 197 264 197 q 244 -249 264 -60 l 211 -251 q 204 -251 211 -251 l 204 -253 q 124 -269 144 -269 q 100 -269 117 -269 q 76 -268 85 -268 l 46 -250 q 15 -196 15 -224 q 21 -169 15 -186 q 26 -144 26 -153 q 13 -82 26 -124 q 0 -17 0 -40 q 24 156 0 108 q 26 169 26 164 q 16 290 26 210 q 6 410 6 369 q 14 465 6 432 q 26 519 25 504 l 24 522 q -1 588 -1 543 q 13 703 -1 626 q 26 817 26 779 q 17 863 26 832 q 8 911 8 894 q 15 986 8 939 q 28 1075 25 1051 q 68 1099 56 1086 q 100 1104 86 1104 q 140 1092 118 1104 l 144 1090 q 165 1096 149 1092 q 186 1086 174 1093 l 197 1099 q 263 1108 236 1108 q 336 1101 288 1108 q 410 1093 385 1093 q 435 1099 418 1093 q 457 1107 453 1106 q 497 1111 474 1111 l 517 1092 q 548 1093 528 1090 q 578 1096 568 1096 q 611 1092 585 1096 l 629 1074 q 694 1068 661 1071 q 758 1051 728 1065 q 774 1024 768 1032 l 792 1024 q 876 935 833 1024 l 897 935 q 907 878 910 900 l 915 868 q 963 738 963 813 q 943 607 963 710 q 910 478 922 499 q 882 451 903 465 q 854 425 861 436 q 800 360 824 375 q 731 322 765 340 q 760 236 757 244 q 768 142 769 193 l 740 174 q 732 172 739 172 q 750 183 743 181 l 789 167 q 783 175 785 171 l 789 172 q 825 131 815 164 q 836 72 831 101 l 829 67 q 908 -65 883 35 q 915 -87 910 -76 l 939 -101 q 929 -194 944 -156 l 929 -194 l 932 -260 q 1088 -232 935 -257 m 1035 -178 q 972 -171 1004 -175 q 914 -151 926 -164 l 889 -106 l 938 -97 q 957 -61 943 -74 l 988 -118 q 1008 -96 992 -100 q 1011 -108 1008 -94 q 1035 -178 1013 -112 m 501 247 q 432 54 501 225 l 425 238 q 438 271 425 250 q 464 292 450 292 q 491 277 481 292 q 501 247 501 263 m 499 129 q 431 -21 499 81 l 433 179 l 499 179 l 499 129 m 493 58 q 424 -39 493 38 l 415 50 q 428 79 415 61 q 454 97 442 97 q 493 58 493 97 m 361 143 q 351 18 358 101 l 286 19 q 296 144 286 -1 l 361 143 m 503 -28 q 431 -243 503 -51 l 425 -46 q 438 -8 425 -33 q 464 18 451 18 q 492 3 481 18 q 503 -28 503 -12 m 372 -42 q 303 -168 372 -60 l 294 -51 q 304 -18 293 -37 q 332 1 315 1 q 372 -42 372 1 m 372 -101 q 303 -196 372 -124 l 294 -108 q 307 -76 294 -92 q 335 -61 319 -61 q 372 -101 372 -61 m 719 692 l 642 692 q 713 754 690 738 q 692 817 704 783 l 661 817 q 631 864 639 835 q 597 869 628 869 q 540 860 578 869 q 481 850 501 850 q 399 862 453 850 q 318 874 344 874 q 267 853 278 874 q 260 797 260 840 q 262 660 260 751 q 264 522 264 568 l 279 519 q 286 604 282 547 l 351 601 l 351 514 q 365 515 356 514 q 378 515 374 515 q 418 510 392 515 l 418 513 l 458 513 l 442 457 q 450 451 447 454 q 476 465 460 465 q 463 493 460 476 l 450 492 q 510 519 475 519 q 558 504 528 519 l 578 524 q 621 529 599 533 q 626 535 622 532 l 635 547 q 704 611 688 579 q 719 692 718 636 m 354 825 q 285 728 354 804 l 276 817 q 289 847 276 829 q 315 864 301 864 q 354 825 354 864 m 364 790 q 293 694 364 768 l 285 782 q 298 813 285 794 q 325 831 311 831 q 364 790 364 831 m 501 697 q 432 504 501 675 l 425 688 q 438 721 425 700 q 464 742 450 742 q 491 727 481 742 q 501 697 501 713 m 501 622 q 433 528 501 599 l 424 615 q 436 647 424 632 q 464 663 449 663 q 501 622 501 663 m 354 747 q 282 682 354 722 l 276 742 q 314 786 276 786 q 340 774 326 786 q 354 747 354 761 m 360 725 q 357 649 360 679 q 340 614 356 635 q 321 593 324 593 q 301 608 315 593 q 286 638 286 624 q 296 729 286 658 l 360 725 z "},"S":{"ha":1160,"x_min":-11,"x_max":1094,"o":"m 1078 249 q 1004 182 1078 221 l 999 242 q 1009 272 999 257 q 1036 288 1019 288 q 1063 275 1049 288 q 1078 249 1078 263 m 1094 204 q 1025 136 1094 179 l 1015 201 q 1053 243 1015 243 q 1094 204 1094 243 m 557 574 q 481 629 481 574 q 557 729 481 656 l 557 574 m 1086 133 q 1015 67 1086 107 l 1007 126 q 1044 172 1007 172 q 1072 160 1058 172 q 1086 133 1086 149 m 1078 106 q 1004 43 1078 78 l 999 100 q 1036 144 999 144 q 1063 131 1047 144 q 1078 106 1078 118 m 422 746 q 415 511 415 611 q 357 542 381 513 q 339 581 339 564 q 422 746 339 608 m 1014 210 q 975 -31 996 33 q 819 -193 928 -179 q 760 -233 797 -229 q 700 -246 711 -239 q 629 -279 650 -279 q 601 -274 619 -279 q 575 -268 583 -268 q 525 -268 557 -268 q 475 -269 488 -269 q 222 -229 319 -269 q -11 -85 144 -197 q 51 25 21 -31 q 147 93 99 93 q 199 72 176 93 q 242 51 222 51 q 300 4 286 51 q 347 4 300 4 q 438 -32 383 4 q 479 -15 458 -15 q 519 -25 496 -15 q 547 -35 542 -35 q 619 -8 569 -35 q 700 18 668 18 q 730 44 707 18 q 756 78 753 69 q 761 121 761 94 q 707 240 761 208 q 579 271 672 263 q 457 283 542 274 l 439 300 q 422 300 433 300 q 406 299 411 299 q 276 347 368 304 q 161 424 176 394 q 154 454 157 432 q 111 490 139 463 q 72 629 83 532 q 58 776 65 703 l 83 790 q 168 971 117 913 q 339 1093 211 1019 q 383 1088 371 1096 l 389 1096 q 506 1111 429 1111 q 672 1086 556 1111 q 821 1035 801 1058 q 831 1042 824 1038 q 899 1008 863 1036 q 957 957 928 982 q 901 853 949 935 l 911 818 q 851 756 893 804 q 608 833 769 786 l 583 850 q 536 853 553 853 q 378 814 442 853 q 307 690 307 769 q 428 561 307 599 q 622 529 464 550 q 783 492 717 517 l 790 478 l 801 478 q 847 463 822 478 l 861 432 l 863 432 q 907 418 885 432 q 954 343 931 381 q 983 261 979 299 q 990 222 986 251 l 1014 210 m 454 64 q 443 35 454 57 q 436 28 442 32 l 425 15 l 410 14 q 367 65 367 14 l 393 97 l 415 100 q 454 64 454 100 z "},"T":{"ha":1025,"x_min":-1,"x_max":956,"o":"m 956 772 q 885 704 956 747 l 876 767 q 914 811 876 811 q 956 772 956 811 m 956 719 q 885 653 956 693 l 876 713 q 914 758 876 758 q 942 747 928 758 q 956 719 956 735 m 908 658 l 744 663 l 746 729 q 908 658 828 733 m 690 539 q 615 594 615 539 q 690 693 615 621 l 690 539 m 707 638 q 700 406 699 513 q 642 435 665 406 q 624 474 624 457 q 707 638 624 501 m 694 415 q 624 354 694 389 l 617 413 q 653 456 617 456 q 694 415 694 456 m 694 361 q 632 274 694 342 q 615 357 615 346 q 656 401 615 401 q 694 361 694 401 m 286 788 q 215 663 286 767 q 206 749 206 714 q 247 828 206 828 q 286 788 286 828 m 699 193 q 624 247 624 193 q 699 344 624 275 l 699 193 m 943 990 q 931 872 943 972 q 754 850 781 850 q 646 871 674 850 q 597 849 629 865 q 586 819 594 836 q 606 689 593 783 l 592 679 q 606 600 606 649 q 595 521 606 574 q 586 442 585 468 l 603 413 l 603 386 l 601 386 l 601 383 q 590 210 601 257 q 582 156 582 175 q 583 136 582 142 l 603 117 q 604 64 604 92 q 581 -103 604 -65 l 585 -104 q 607 -168 607 -137 q 583 -226 607 -200 q 536 -274 560 -251 q 500 -281 514 -281 q 421 -269 474 -281 q 399 -278 408 -278 q 375 -261 393 -275 l 347 -261 q 352 -133 347 -207 q 357 -31 357 -58 q 351 40 357 -7 q 346 113 346 88 q 351 228 346 151 q 357 344 357 306 q 351 494 357 372 q 351 646 347 588 l 331 646 l 331 721 l 353 721 q 350 861 354 768 q 186 868 282 868 q 131 863 167 868 q 78 857 94 857 q 39 872 61 857 q -1 897 4 894 q 3 978 3 963 q 0 1036 3 989 q 15 1069 7 1058 l 26 1104 q 83 1096 40 1103 q 140 1090 119 1090 q 156 1092 151 1090 q 225 1113 181 1113 q 320 1103 257 1113 q 414 1094 383 1094 q 460 1104 450 1104 q 494 1099 472 1104 l 506 1081 q 568 1111 539 1111 q 608 1102 585 1111 q 639 1093 632 1093 q 703 1099 660 1093 q 769 1104 747 1104 q 836 1064 811 1104 q 856 1066 843 1064 q 874 1068 868 1068 q 926 1040 906 1068 q 943 990 943 1018 m 703 196 q 632 128 703 168 l 624 189 q 663 235 624 235 q 703 196 703 235 m 694 151 q 625 -69 694 129 l 617 136 q 630 173 617 149 q 656 197 643 197 q 694 151 694 197 m 713 -125 q 640 -189 713 -150 l 633 -131 q 671 -86 633 -86 q 697 -99 682 -86 q 713 -125 713 -111 m 286 726 q 272 753 286 740 q 246 767 257 767 q 207 722 207 767 l 214 665 q 286 726 286 699 z "},"U":{"ha":1200,"x_min":-1,"x_max":1097,"o":"m 1071 924 q 1000 826 1071 904 l 992 915 q 1005 944 992 926 q 1031 963 1018 963 q 1071 924 1071 963 m 1085 754 q 1008 808 1008 754 q 1085 906 1008 836 l 1085 754 m 1085 649 q 1008 703 1008 649 q 1085 800 1008 731 l 1085 649 m 1097 660 q 1026 593 1097 633 l 1018 653 q 1056 699 1018 699 q 1083 687 1069 699 q 1097 660 1097 675 m 1088 624 q 1017 526 1088 603 l 1008 614 q 1022 644 1008 626 q 1049 663 1035 663 q 1088 624 1088 663 m 1088 535 q 1017 438 1088 514 l 1008 526 q 1022 556 1008 539 q 1049 574 1035 574 q 1088 535 1088 574 m 1093 453 q 1089 350 1093 415 q 1085 247 1085 278 l 1019 249 q 1028 454 1019 250 l 1093 453 m 539 774 q 467 708 539 749 l 460 768 q 499 813 460 813 q 524 800 510 813 q 539 774 539 788 m 400 896 q 331 801 400 874 l 321 889 q 333 921 321 906 q 361 936 346 936 q 400 896 400 936 m 549 704 q 478 640 549 678 l 468 700 q 507 743 468 743 q 533 730 518 743 q 549 704 549 717 m 417 844 q 347 747 417 824 l 339 835 q 351 865 339 847 q 378 883 364 883 q 417 844 417 883 m 1071 174 q 1000 76 1071 154 l 992 165 q 1005 194 992 176 q 1031 213 1018 213 q 1071 174 1071 213 m 539 633 q 465 564 539 608 l 460 626 q 469 657 458 642 q 499 672 481 672 q 525 660 511 672 q 539 633 539 647 m 400 781 q 331 686 400 758 l 321 774 q 333 806 321 790 q 361 821 346 821 q 400 781 400 821 m 536 515 q 460 571 460 515 q 536 667 460 599 l 536 515 m 544 419 q 468 474 468 419 q 544 571 468 500 l 544 419 m 1065 988 q 969 914 982 919 q 975 776 968 865 q 981 639 981 682 q 979 576 981 601 l 963 540 q 972 513 963 535 q 981 474 981 490 q 975 399 981 449 q 969 324 969 349 q 974 262 969 303 q 979 199 979 221 q 958 115 979 168 q 938 35 938 63 l 933 7 l 915 -3 q 929 -57 915 -11 l 889 -57 q 873 -86 885 -76 q 850 -106 861 -96 q 832 -154 847 -111 l 806 -154 q 764 -181 779 -178 q 699 -217 742 -224 l 694 -215 l 679 -239 q 658 -242 668 -242 q 643 -239 650 -242 q 585 -271 621 -271 q 550 -262 572 -271 l 547 -262 l 539 -278 q 339 -257 415 -278 l 324 -242 q 315 -243 321 -242 q 307 -243 310 -243 q 227 -201 293 -243 q 154 -150 161 -160 q 142 -121 147 -140 q 128 -102 139 -107 q 96 -82 117 -97 q 37 29 64 -47 q 10 157 10 106 q 13 210 10 175 q 17 264 17 246 q 8 326 17 285 q -1 389 -1 367 q 8 478 -1 419 q 17 567 17 538 q 8 642 17 592 q 0 717 0 692 q 7 764 0 739 l 7 769 q 8 798 7 779 q 10 825 10 817 q 13 821 11 825 q 39 833 26 833 q 65 808 56 833 q 74 824 67 817 q 42 831 64 826 q 10 836 21 835 q 17 893 13 864 q 32 944 21 922 l 31 946 q 13 1014 13 976 q 22 1097 13 1029 q 153 1094 72 1092 q 192 1047 188 1079 q 207 1058 193 1053 l 257 1057 l 257 965 l 207 965 l 238 994 l 238 1000 q 261 963 253 982 l 244 931 l 206 938 q 213 917 210 935 q 367 924 213 924 q 292 935 310 938 q 256 883 256 929 q 244 825 256 858 l 243 821 q 268 754 268 772 q 257 722 268 733 l 247 660 q 258 610 250 649 q 249 563 249 578 q 258 517 249 547 q 267 471 267 488 q 253 383 267 440 q 239 297 239 326 q 256 176 239 265 q 285 67 274 86 q 283 69 283 68 q 329 38 315 61 q 339 11 333 24 q 400 -6 364 6 l 424 -29 q 463 -28 436 -31 q 500 -26 490 -26 q 508 -53 504 -37 l 513 -53 l 508 -54 q 486 -65 506 -57 q 524 -21 522 -22 q 583 -12 536 -12 q 693 88 640 -12 q 740 258 740 179 q 727 305 740 271 q 714 361 714 339 q 724 444 714 389 q 733 529 733 500 q 722 650 733 586 l 783 671 q 761 685 767 671 q 733 664 753 664 q 732 657 733 658 q 724 838 732 803 q 714 894 714 878 q 742 951 714 924 l 742 956 q 737 1003 743 972 q 731 1047 731 1033 l 733 1067 l 778 1113 q 935 1113 822 1108 q 946 1013 935 1074 l 979 990 l 979 988 l 1065 988 m 547 421 q 478 324 547 400 l 469 413 q 482 442 469 425 q 508 460 494 460 q 547 421 547 460 m 539 375 q 468 279 539 353 l 460 367 q 473 397 460 379 q 500 415 486 415 q 539 375 539 415 m 403 597 q 396 367 396 465 q 338 396 361 367 q 319 435 319 418 q 403 597 319 463 m 539 306 q 468 208 539 285 l 460 297 q 473 327 460 310 q 500 344 486 344 q 539 306 539 344 m 547 269 q 478 144 547 247 q 468 233 468 197 q 508 310 468 310 q 547 269 547 310 m 408 374 q 310 126 408 347 q 331 357 331 326 q 369 415 331 415 q 408 374 408 415 m 408 243 q 338 146 408 222 l 329 235 q 342 265 329 247 q 369 282 356 282 q 408 243 408 282 m 418 183 q 347 117 418 158 l 339 176 q 376 222 339 222 q 404 210 390 222 q 418 183 418 199 m 444 121 q 372 58 444 96 l 364 115 q 403 160 364 160 q 429 147 414 160 q 444 121 444 135 m 400 533 q 361 574 400 574 q 333 558 346 574 q 321 526 321 543 l 331 439 q 400 533 400 511 z "},"V":{"ha":1238,"x_min":-1,"x_max":1157,"o":"m 1157 694 q 1089 564 1157 672 l 1079 682 q 1090 715 1078 696 q 1118 733 1101 733 q 1157 694 1157 733 m 1132 618 q 1063 521 1132 597 l 1054 610 q 1067 640 1054 622 q 1093 657 1079 657 q 1132 618 1132 657 m 1103 478 q 1043 499 1064 478 q 1028 533 1028 515 q 1103 629 1028 560 l 1103 478 m 996 608 q 925 517 996 586 l 917 600 q 930 631 917 614 q 957 647 943 647 q 996 608 996 647 m 1086 408 q 1025 429 1047 408 q 1010 464 1010 446 q 1086 560 1010 490 l 1086 408 m 979 533 q 908 469 979 506 l 900 528 q 939 572 900 572 q 965 559 950 572 q 979 533 979 546 m 954 471 q 883 406 954 447 l 875 468 q 913 511 875 511 q 954 471 954 511 m 946 446 q 875 349 946 426 l 867 438 q 879 467 867 450 q 906 485 892 485 q 946 446 946 485 m 1047 342 q 975 215 1047 322 l 968 328 q 979 362 967 342 q 1008 382 992 382 q 1047 342 1047 382 m 936 403 q 867 307 936 381 l 858 396 q 871 426 858 411 q 899 442 883 442 q 936 403 936 442 m 579 676 q 510 551 579 654 q 500 639 500 572 q 540 717 500 717 q 579 676 579 717 m 911 333 q 839 211 911 313 l 832 318 q 844 353 831 332 q 872 374 857 374 q 911 333 911 374 m 614 574 q 543 482 614 553 l 535 567 q 548 597 535 581 q 575 613 561 613 q 614 574 614 613 m 989 146 q 917 83 989 119 l 910 140 q 947 185 910 185 q 989 146 989 185 m 963 83 q 890 -43 963 64 l 883 69 q 894 103 882 83 q 924 124 907 124 q 963 83 963 124 m 1013 1033 q 976 958 1013 992 q 969 925 969 951 q 949 863 968 908 l 940 860 q 943 825 943 838 q 914 768 943 793 q 918 729 918 731 l 915 704 q 888 649 903 688 q 856 592 872 610 l 857 586 q 856 531 858 569 q 832 504 846 521 q 832 476 832 504 q 806 402 832 447 q 781 331 781 357 q 746 271 781 313 q 725 169 742 238 q 731 140 731 157 q 728 108 728 99 l 697 108 q 647 -44 686 65 q 596 -215 611 -146 q 539 -225 586 -217 q 481 -231 503 -231 q 426 -221 458 -231 l 415 -197 q 363 -103 376 -167 q 346 7 354 -49 q 319 63 324 35 q 304 115 315 96 q 274 219 274 171 q 253 265 274 217 q 231 360 232 313 l 208 381 q 204 429 207 388 q 177 484 204 442 q 149 569 150 526 q 146 596 147 586 q 119 654 119 633 q 122 688 119 676 q 90 756 90 711 q 93 785 90 760 q 61 853 61 814 q 63 881 61 863 q 65 907 65 899 q 54 939 65 926 q 7 1017 18 979 q 1 1108 -1 1046 q 118 1096 82 1096 q 233 1106 136 1096 l 251 1054 l 250 1054 q 261 1033 261 1039 q 260 1017 261 1022 q 279 976 279 1000 q 269 947 279 964 l 269 943 l 256 968 l 286 947 q 308 889 303 919 q 318 829 314 858 l 335 813 q 356 700 356 732 q 356 694 356 699 q 354 688 354 690 l 364 685 q 379 624 375 656 q 388 572 382 588 q 426 465 407 518 q 446 350 446 407 l 467 336 q 481 285 481 310 q 481 269 481 279 q 479 253 479 258 q 493 211 479 233 l 494 208 q 517 251 499 224 q 536 286 535 278 q 536 296 536 289 q 535 306 535 303 q 572 364 535 329 q 568 418 568 418 q 594 503 568 454 q 619 593 619 551 q 656 658 619 619 q 669 753 663 676 q 703 840 675 811 l 703 851 q 724 934 703 882 q 746 1015 746 986 q 754 1049 746 1025 q 796 1078 775 1064 q 838 1097 825 1097 q 854 1094 844 1097 q 865 1090 864 1090 q 876 1092 872 1090 q 933 1113 900 1113 q 1013 1033 1013 1113 m 485 539 q 417 410 485 517 l 407 526 q 417 560 406 540 q 446 579 429 579 q 485 539 485 579 m 851 111 q 781 47 851 86 l 774 108 q 811 151 774 151 q 851 111 851 151 m 946 17 q 875 -47 946 -10 l 867 11 q 904 56 867 56 q 931 43 917 56 q 946 17 946 31 m 929 -18 q 856 -79 929 -46 l 850 -22 q 888 21 850 21 q 914 8 899 21 q 929 -18 929 -6 m 546 336 q 474 272 546 308 l 467 331 q 504 375 467 375 q 531 362 517 375 q 546 336 546 349 m 818 25 q 746 -37 818 0 l 739 21 q 776 65 739 65 q 818 25 818 65 m 911 -76 q 840 -140 911 -104 l 832 -82 q 871 -37 832 -37 q 897 -51 882 -37 q 911 -76 911 -64 m 758 85 q 686 -8 758 64 l 679 74 q 690 106 678 88 q 718 124 701 124 q 758 85 758 124 m 894 -122 q 822 -249 894 -143 l 815 -137 q 826 -102 814 -122 q 856 -82 839 -82 q 894 -122 894 -82 m 878 -181 q 804 -244 878 -206 l 799 -185 q 836 -142 799 -142 q 878 -181 878 -142 m 860 -225 q 789 -318 860 -247 l 782 -236 q 792 -203 781 -222 q 819 -185 803 -185 q 860 -225 860 -185 m 725 -182 q 654 -243 725 -207 l 646 -185 q 683 -142 646 -142 q 725 -182 725 -142 m 732 -217 q 663 -311 732 -239 l 654 -224 q 667 -192 654 -207 q 694 -176 679 -176 q 732 -217 732 -176 m 1004 660 q 965 700 1004 700 q 937 681 949 700 q 926 647 925 661 l 936 531 q 1004 660 1004 640 m 571 265 q 531 306 571 306 q 493 264 493 306 l 500 201 q 571 265 571 240 z "},"W":{"ha":1622,"x_min":-117,"x_max":1581,"o":"m 1271 735 l 1106 740 q 1071 774 1071 740 q 1108 807 1071 811 l 1136 807 q 1271 735 1163 807 m 1221 742 q 1149 644 1221 722 l 1140 733 q 1153 763 1140 746 q 1181 781 1167 781 q 1221 742 1221 781 m 1203 650 q 1132 522 1203 632 l 1122 639 q 1133 672 1121 653 q 1163 692 1146 692 q 1203 650 1203 692 m 1068 717 q 993 650 1068 689 l 988 711 q 999 741 988 726 q 1026 756 1010 756 q 1053 743 1039 756 q 1068 717 1068 731 m 1185 572 q 1113 474 1185 551 l 1104 564 q 1117 594 1104 576 q 1144 611 1131 611 q 1185 572 1185 611 m 1158 465 q 1086 403 1158 438 l 1078 460 q 1117 506 1078 506 q 1144 493 1131 506 q 1158 465 1158 481 m 1149 439 q 1076 374 1149 414 l 1068 433 q 1107 478 1068 478 q 1134 465 1119 478 q 1149 439 1149 453 m 565 653 q 493 589 565 628 l 485 647 q 524 692 485 692 q 550 679 535 692 q 565 653 565 667 m 797 419 q 735 328 797 397 q 718 415 718 399 q 758 460 718 460 q 797 419 797 460 m 1581 1064 q 1564 938 1572 1001 q 1528 818 1553 864 q 1525 782 1525 813 l 1522 761 l 1493 725 q 1494 705 1493 718 q 1496 686 1496 692 q 1481 633 1496 661 q 1458 586 1461 597 q 1446 490 1451 561 q 1422 386 1442 431 q 1396 325 1408 356 q 1383 251 1383 294 q 1367 188 1383 214 q 1346 136 1349 157 q 1328 36 1344 107 l 1313 28 l 1313 24 q 1304 -51 1304 -51 q 1281 -129 1300 -74 q 1274 -199 1274 -149 q 1265 -239 1274 -214 q 1231 -278 1254 -247 q 1135 -281 1142 -281 q 1043 -276 1110 -281 q 953 51 1008 -172 q 932 101 949 67 q 914 157 917 132 q 912 181 913 165 q 910 203 911 196 l 893 222 q 880 309 886 250 q 865 397 874 368 q 842 433 853 415 q 836 475 832 450 q 838 483 836 478 q 838 490 838 489 q 809 554 813 522 q 804 619 806 586 q 800 635 803 629 l 793 626 l 793 621 q 796 593 796 604 l 792 569 l 774 551 q 776 533 776 540 q 774 513 776 526 q 778 492 778 504 l 775 368 l 743 414 l 728 399 q 719 329 721 379 q 708 251 717 279 l 690 242 q 681 164 685 224 q 654 86 676 122 q 636 26 639 61 q 631 -37 632 -29 l 614 -54 q 617 -78 617 -68 l 611 -106 l 596 -112 q 599 -137 599 -129 q 579 -208 599 -157 q 551 -281 565 -244 q 476 -279 521 -278 q 400 -282 410 -282 q 326 -274 376 -282 q 331 -215 322 -235 l 332 -211 q 307 -189 325 -207 l 306 -169 q 313 -140 304 -154 l 300 -129 q 293 -68 296 -115 q 279 -12 292 -32 q 253 92 256 25 q 246 200 249 186 l 222 217 q 207 282 210 244 q 201 346 203 338 l 183 364 q 143 533 143 519 q 147 551 143 546 l 138 561 q 104 722 119 629 q 89 721 99 721 q -117 744 86 721 q 83 793 -33 765 q 80 830 82 806 q 75 865 78 854 l 58 883 q 26 1029 26 988 q 46 1114 26 1056 q 257 1113 132 1103 q 286 1075 271 1093 q 301 1031 301 1051 q 297 1010 301 1018 l 296 1007 l 301 1004 q 329 790 329 932 q 332 743 329 757 l 347 735 q 374 635 358 707 q 390 542 390 563 q 382 513 390 529 q 410 467 397 489 q 418 408 422 444 q 418 394 418 404 q 417 379 417 385 q 432 340 417 367 q 453 300 450 310 q 464 239 458 281 q 488 275 476 257 q 494 326 492 285 q 506 396 497 368 l 532 429 q 529 464 529 451 q 536 500 529 481 l 564 518 q 569 596 569 538 q 592 688 569 636 q 614 767 614 740 q 628 826 614 794 l 628 826 l 628 833 l 632 854 l 650 871 q 657 953 650 899 q 697 1090 671 990 q 886 1114 756 1099 q 964 838 917 990 q 978 771 968 815 l 1000 760 q 993 671 1001 733 q 992 661 992 653 q 1064 425 1063 557 l 1083 413 q 1096 363 1094 390 q 1100 315 1099 322 l 1093 317 l 1101 307 q 1114 322 1103 317 l 1114 317 q 1133 204 1114 282 q 1139 254 1139 228 l 1139 272 q 1163 360 1139 313 q 1189 465 1182 399 q 1214 576 1197 538 q 1222 606 1221 593 q 1222 626 1224 614 q 1221 656 1221 644 q 1225 693 1221 674 l 1253 719 q 1256 797 1256 732 q 1275 875 1256 835 q 1306 944 1301 929 q 1319 1024 1313 983 q 1361 1093 1326 1064 q 1389 1076 1383 1078 l 1421 1100 q 1460 1104 1449 1104 q 1558 1089 1471 1104 q 1565 1069 1561 1082 l 1581 1064 m 826 340 q 753 275 826 313 l 744 335 q 783 379 744 379 q 811 367 796 379 q 826 340 826 354 m 831 232 q 769 254 792 232 q 753 288 753 269 q 831 386 753 313 l 831 232 m 942 160 q 871 65 942 139 l 861 154 q 874 185 861 171 q 903 200 886 200 q 942 160 942 200 m 863 207 q 788 140 863 179 l 782 201 q 793 231 782 217 q 821 246 804 246 q 847 233 832 246 q 863 207 863 221 m 538 543 q 467 449 538 522 l 457 538 q 469 569 457 554 q 499 583 482 583 q 538 543 538 583 m 933 100 q 861 33 933 74 l 853 94 q 892 139 853 139 q 933 100 933 139 m 879 151 q 807 26 879 131 q 797 114 797 78 q 839 192 797 192 q 879 151 879 192 m 507 347 q 446 368 467 347 q 429 403 429 383 q 507 503 429 429 l 507 347 m 744 188 q 672 90 744 168 l 664 179 q 677 209 664 192 q 704 226 690 226 q 744 188 744 226 m 753 151 q 682 56 753 129 l 674 143 q 687 174 674 156 q 714 192 700 192 q 753 151 753 192 m 763 107 q 690 46 763 81 l 682 104 q 721 147 682 147 q 763 107 763 147 m 771 72 q 699 7 771 47 l 690 68 q 729 111 690 111 q 771 72 771 111 m 493 340 q 421 275 493 313 l 413 335 q 451 379 413 379 q 478 367 463 379 q 493 340 493 354 m 79 753 q 7 685 79 726 l -1 746 q 38 792 -1 792 q 79 753 79 792 m 790 28 q 718 -37 790 3 l 708 21 q 747 67 708 67 q 775 54 760 67 q 790 28 790 42 m 89 717 q 15 649 89 690 l 8 710 q 47 756 8 756 q 89 717 89 756 m 797 -1 q 735 -89 797 -21 q 718 -6 718 -17 q 758 39 718 39 q 797 -1 797 39 m 97 686 q 33 600 97 665 q 17 683 17 672 q 58 726 17 726 q 97 686 97 726 m 807 -44 q 735 -108 807 -71 l 726 -50 q 765 -6 726 -6 q 792 -18 776 -6 q 807 -44 807 -31 m 1015 -274 l 881 -269 q 846 -236 846 -265 q 882 -203 846 -203 l 886 -203 q 1015 -274 943 -203 m 106 651 q 33 556 106 629 l 25 643 q 38 674 25 656 q 65 692 51 692 q 106 651 106 692 m 996 -172 q 896 -421 996 -196 q 917 -179 917 -218 q 929 -149 917 -167 q 957 -131 942 -131 q 996 -172 996 -131 m 826 -107 q 753 -168 826 -135 l 744 -112 q 783 -68 744 -68 q 810 -81 794 -68 q 826 -107 826 -93 m 115 590 q 43 528 115 565 l 35 585 q 74 631 35 631 q 101 617 86 631 q 115 590 115 604 m 833 -144 q 771 -232 833 -164 q 754 -149 754 -165 q 794 -104 754 -104 q 833 -144 833 -104 m 133 536 q 61 471 133 511 l 53 533 q 92 576 53 576 q 133 536 133 576 m 151 474 q 79 376 151 454 l 71 465 q 84 495 71 478 q 111 513 97 513 q 151 474 151 513 m 169 401 q 99 339 169 378 l 89 400 q 126 442 89 442 q 169 401 169 442 m 178 368 q 104 301 178 342 l 97 364 q 136 407 97 407 q 178 368 178 407 m 196 286 q 124 189 196 264 l 115 276 q 128 307 115 289 q 156 325 142 325 q 196 286 196 325 m 222 206 q 150 107 222 185 l 142 197 q 156 228 142 210 q 183 246 169 246 q 222 206 222 246 m 268 0 q 196 -97 268 -19 l 188 -8 q 201 22 188 4 q 228 39 214 39 q 268 0 268 39 m 294 -89 q 222 -187 294 -112 l 214 -99 q 228 -68 214 -86 q 254 -50 242 -50 q 294 -89 294 -50 m 304 -133 q 232 -200 304 -158 l 224 -139 q 263 -94 224 -94 q 304 -133 304 -94 m 1211 696 q 1171 736 1211 736 q 1129 657 1129 736 q 1139 572 1129 621 q 1211 696 1211 675 m 1050 643 q 1007 683 1050 683 q 969 640 969 683 l 979 579 q 1050 643 1050 618 m 1131 365 q 1089 406 1131 406 q 1050 364 1050 406 l 1058 304 q 1131 365 1131 340 m 1032 -26 q 992 13 1032 13 q 965 -5 978 13 q 951 -35 951 -22 l 960 -124 q 1032 -26 1032 -46 m 735 224 q 694 263 735 263 q 667 245 681 263 q 654 215 654 228 l 663 126 q 735 224 735 201 m 474 293 q 435 335 474 335 q 405 315 417 335 q 394 281 393 296 l 403 165 q 474 293 474 272 z "},"X":{"ha":1176,"x_min":-3,"x_max":1100,"o":"m 481 1042 l 329 1044 q 294 1107 294 1044 l 326 1111 l 333 1111 q 481 1042 389 1111 m 647 839 q 575 778 647 811 l 567 833 q 606 878 567 878 q 632 865 617 878 q 647 839 647 853 m 496 847 q 425 718 496 828 l 417 833 q 427 868 415 849 q 457 888 439 888 q 496 847 496 888 m 914 399 q 839 332 914 371 l 833 393 q 844 423 833 408 q 872 438 856 438 q 899 425 883 438 q 914 399 914 413 m 1100 93 q 1026 29 1100 64 l 1021 88 q 1031 117 1021 103 q 1058 132 1042 132 q 1100 93 1100 132 m 1049 1093 q 971 926 1008 986 l 964 924 l 964 915 l 957 896 l 929 875 q 894 807 913 840 q 847 746 875 769 l 847 726 q 810 658 829 693 q 765 600 790 624 q 747 579 758 593 q 736 532 742 544 q 710 494 731 519 q 661 415 661 439 q 701 347 661 399 q 756 275 751 283 q 771 233 765 257 l 775 221 l 797 221 q 803 169 806 181 l 808 165 q 856 92 839 142 q 888 32 874 43 q 919 1 913 11 q 932 -44 931 -17 q 951 -54 938 -46 l 954 -78 q 954 -85 954 -79 q 953 -92 953 -89 q 1006 -147 988 -101 q 1025 -197 1015 -172 l 1031 -251 q 1033 -242 1031 -244 l 1006 -278 q 926 -286 953 -286 q 858 -274 894 -286 l 851 -267 l 826 -271 q 807 -268 818 -271 q 742 -196 754 -235 q 704 -129 725 -149 q 658 -64 671 -97 q 635 0 638 -4 q 568 110 610 35 l 550 118 q 522 176 540 139 q 510 175 513 176 q 450 86 503 172 l 451 85 q 457 57 457 74 l 446 28 l 413 28 q 399 15 406 21 q 393 -6 393 8 q 381 -24 393 -11 q 344 -46 364 -40 l 340 -46 q 294 -200 338 -143 q 261 -233 274 -210 q 232 -264 249 -256 q 138 -278 204 -278 q 36 -268 94 -278 l 24 -246 l 24 -250 q 0 -214 0 -239 q 42 -161 0 -186 q 57 -96 43 -158 q 110 -28 67 -53 q 126 3 124 -19 q 140 44 131 31 q 165 64 149 58 l 167 65 q 206 150 179 83 q 257 226 225 201 q 271 239 263 231 q 281 286 276 278 q 318 315 285 294 q 353 379 333 336 q 374 436 374 422 q 349 474 374 440 q 321 543 324 507 q 276 607 279 568 q 253 626 271 608 q 244 675 244 650 q 239 676 244 671 q 201 709 211 694 q 194 754 190 724 q 197 772 197 774 q 168 811 185 790 q 125 861 135 835 q 93 917 113 894 q 31 1026 64 949 q -3 1088 28 1032 q 158 1099 114 1099 q 257 1086 225 1099 q 317 1015 304 1068 q 339 951 329 963 q 391 902 365 926 q 438 815 417 878 l 449 815 q 456 761 458 776 q 484 735 481 751 q 489 700 488 718 l 490 699 q 526 638 526 690 q 519 664 522 642 l 518 669 q 501 664 504 665 q 507 664 504 664 q 519 664 521 664 l 532 664 q 558 728 549 708 q 596 786 575 763 l 596 814 q 632 835 618 833 q 647 883 640 858 q 679 924 656 904 q 695 971 690 932 q 728 1031 700 1010 q 744 1043 736 1038 q 744 1068 746 1046 q 799 1094 781 1094 q 815 1092 803 1094 q 839 1089 828 1089 q 876 1111 854 1111 q 975 1094 875 1111 q 1049 1093 983 1093 z "},"Y":{"ha":1000,"x_min":-8,"x_max":1072,"o":"m 1072 939 q 1000 871 1072 914 l 993 933 q 1031 978 993 978 q 1072 939 1072 978 m 540 921 q 469 857 540 894 l 460 915 q 499 960 460 960 q 540 921 540 960 m 468 758 q 396 692 468 733 l 389 753 q 426 797 389 797 q 468 758 468 797 m 788 290 q 717 229 788 263 l 708 285 q 746 329 708 329 q 772 316 757 329 q 788 290 788 303 m 782 282 l 619 229 q 610 210 617 210 q 594 223 601 210 q 586 247 586 236 q 594 335 586 247 l 660 331 q 656 253 660 276 q 649 214 654 239 q 782 282 643 204 m 793 260 q 789 182 793 229 q 783 104 783 117 l 718 106 q 728 261 722 157 l 793 260 m 986 961 l 943 940 l 960 960 q 951 910 956 935 q 913 869 944 879 q 918 867 915 868 l 917 854 q 894 821 911 836 q 874 779 878 806 q 844 722 867 738 q 824 710 835 715 q 813 672 818 701 q 781 611 807 642 q 765 592 775 606 l 765 574 q 743 524 765 553 q 710 478 711 481 q 654 358 697 439 q 604 281 611 299 q 596 178 596 256 l 596 156 l 615 125 q 610 -74 617 44 q 596 -272 603 -174 q 474 -256 554 -268 l 460 -275 l 439 -279 q 429 -279 435 -279 q 424 -278 425 -278 l 418 -276 q 431 -274 425 -272 l 383 -235 q 403 -186 394 -201 l 424 -232 l 425 -232 q 428 -231 426 -231 q 400 -243 413 -243 q 368 -197 385 -243 q 356 -137 351 -151 q 375 -3 375 -65 q 371 149 375 49 q 367 299 367 249 q 346 340 367 317 q 314 378 318 371 q 292 436 303 399 q 274 496 279 482 l 258 504 q 201 640 239 535 l 182 651 q 178 692 178 671 l 179 694 q 122 776 124 725 q 107 793 121 781 l 107 819 q 42 956 85 864 l 25 964 q -8 1096 14 1008 q 103 1113 96 1113 q 253 1076 200 1113 q 272 1014 251 1046 q 310 956 307 964 q 325 903 314 949 q 349 854 333 869 q 378 799 376 826 q 390 753 381 765 q 431 699 410 725 q 446 635 443 676 q 450 610 447 614 q 469 593 453 606 q 497 556 482 583 q 549 622 518 610 q 567 694 550 643 q 585 710 575 701 l 585 726 q 597 758 585 744 q 619 785 608 772 q 635 844 626 814 q 672 881 644 874 l 675 882 q 683 884 678 883 q 689 885 688 885 q 676 875 690 882 l 675 875 q 676 872 676 874 q 675 885 676 876 q 674 904 674 899 q 700 965 675 935 q 729 1021 725 996 q 746 1082 733 1046 q 819 1096 761 1083 q 893 1104 865 1104 q 963 1053 943 1104 q 986 961 975 1007 m 788 81 q 689 -168 788 57 q 710 74 710 35 q 722 104 710 86 q 749 122 735 122 q 788 81 788 122 m 664 143 q 590 -46 664 122 l 585 124 q 598 160 585 135 q 624 185 611 185 q 664 143 664 185 m 683 -15 q 671 -47 683 -32 q 638 -62 658 -62 l 615 -58 q 594 15 594 -21 l 628 42 q 683 -15 683 32 m 654 199 q 615 239 654 239 q 574 160 574 239 q 583 75 574 124 q 654 199 654 178 m 797 11 q 756 50 797 50 q 717 7 717 50 l 726 -53 q 797 11 797 -14 m 654 38 q 615 78 654 78 q 588 60 601 78 q 575 29 575 42 l 583 -61 q 654 38 654 17 z "},"Z":{"ha":1065,"x_min":-11,"x_max":1035,"o":"m 994 771 q 926 676 994 751 l 917 765 q 928 797 917 782 q 957 811 940 811 q 994 771 994 811 m 961 713 q 890 646 961 686 l 882 707 q 919 751 882 751 q 961 713 961 751 m 406 844 q 336 747 406 824 l 328 835 q 340 865 328 847 q 367 883 353 883 q 406 844 406 883 m 778 406 q 749 358 778 388 l 732 357 q 704 367 717 356 q 692 394 692 379 q 740 442 692 442 q 778 406 778 442 m 407 789 q 308 547 407 764 q 329 781 329 746 q 341 813 329 794 q 368 831 353 831 q 407 789 407 831 m 1014 -107 q 853 -168 872 -162 q 858 -151 853 -154 q 874 -214 861 -157 q 818 -269 856 -231 q 739 -269 782 -267 q 672 -272 682 -272 q 614 -264 650 -272 q 556 -251 572 -253 l 543 -265 q 432 -278 501 -278 q 301 -269 388 -278 q 172 -260 215 -260 q 122 -269 156 -260 q 69 -278 88 -279 l 54 -276 q 10 -254 47 -269 l 10 -208 l 72 -197 q 47 -182 53 -197 q 7 -185 46 -185 l -11 -185 l 15 -203 q 0 -171 14 -199 q 3 -72 0 -137 q 53 15 7 -26 q 107 111 92 50 q 197 218 121 164 q 210 289 203 253 q 254 349 217 325 q 263 354 260 351 l 314 467 l 332 467 q 351 522 343 506 q 387 563 360 538 q 418 622 414 589 q 439 683 425 663 q 488 718 449 697 q 492 717 489 718 q 496 718 496 717 q 554 865 503 793 q 551 871 553 867 q 436 869 557 869 l 426 890 l 419 867 q 332 872 358 872 q 240 868 301 872 q 147 864 178 864 q 25 872 99 864 q 36 1092 29 942 q 118 1100 69 1093 q 178 1106 158 1106 q 226 1100 199 1106 l 267 1075 q 313 1081 282 1075 q 360 1088 343 1088 q 413 1081 372 1088 l 428 1024 l 413 1039 q 394 1026 410 1026 q 388 1063 394 1021 l 425 1101 q 497 1097 447 1101 q 569 1093 543 1092 q 626 1101 590 1104 q 685 1068 663 1068 l 701 1068 q 738 1114 710 1079 q 868 1074 811 1100 q 871 1013 871 1040 q 865 931 871 956 q 822 864 854 888 q 819 842 819 856 l 815 819 l 793 806 l 750 725 l 750 699 q 715 656 740 681 q 685 622 690 632 q 674 581 679 601 q 635 549 665 553 q 600 467 617 508 q 533 428 572 419 l 526 429 q 556 431 529 431 q 549 465 550 465 q 554 458 550 464 q 565 383 569 435 l 546 383 q 499 311 539 371 q 463 242 467 265 q 443 196 457 211 q 404 165 435 188 q 396 164 401 164 q 403 140 403 153 q 368 82 403 110 q 361 31 360 74 l 329 31 q 303 -31 322 10 q 314 -32 306 -31 q 325 -32 321 -32 q 326 -12 325 -25 q 358 189 328 -6 q 396 -26 396 -7 q 433 -24 421 -24 q 488 -33 453 -24 q 540 -43 522 -43 q 578 -37 553 -43 q 617 -32 603 -32 q 646 -36 625 -32 l 653 -37 q 849 -65 665 -40 q 694 -57 724 -61 q 653 -37 660 -53 l 653 -37 q 650 -28 653 -35 q 636 -53 642 -44 l 653 -37 q 721 -26 682 -26 q 847 -50 768 -26 q 857 -93 856 -76 q 1014 -107 886 -97 m 996 -49 q 924 -110 996 -74 l 917 -53 q 954 -8 917 -8 q 996 -49 996 -8 m 1003 -83 q 932 -215 1003 -104 l 925 -99 q 937 -65 924 -86 q 965 -43 950 -43 q 1003 -83 1003 -43 m 1035 -160 l 875 -156 q 842 -90 842 -154 l 881 -89 l 903 -89 q 1035 -160 933 -89 m 847 -25 q 583 -53 779 -36 l 731 24 q 718 0 731 7 q 738 -12 732 -1 l 742 36 q 765 36 742 36 l 792 36 q 818 21 799 36 q 847 -25 840 0 m 536 218 q 464 153 536 193 l 457 213 q 496 257 457 257 q 522 244 507 257 q 536 218 536 232 m 476 138 q 406 76 476 111 l 397 135 q 435 178 397 178 q 476 138 476 178 m 571 32 q 500 -65 571 11 l 492 24 q 505 53 492 36 q 532 71 518 71 q 571 32 571 71 m 1003 825 q 965 865 1003 865 q 936 845 949 865 q 925 810 924 825 l 932 699 q 1003 825 1003 803 m 843 -46 q 804 1 843 1 q 751 -21 788 1 q 818 -90 754 -69 l 843 -46 m 706 -49 q 663 0 707 0 q 622 -42 622 0 q 624 -49 622 -44 q 624 -54 624 -53 q 618 -101 624 -56 q 706 -49 692 -86 m 467 -104 q 453 -71 467 -83 q 435 -89 442 -82 q 418 -107 433 -90 l 408 -118 l 415 -126 l 415 -81 q 449 -108 429 -92 q 429 -104 440 -104 l 421 -106 l 418 -106 l 451 -154 q 467 -104 467 -121 z "},"^":{"ha":489,"x_min":-11,"x_max":471,"o":"m 471 989 l 403 822 q 397 878 401 833 q 393 935 393 915 q 431 999 393 999 l 471 989 m 468 781 q 408 738 468 738 q 360 744 390 738 l 310 840 l 310 857 q 278 911 303 875 l 267 917 q 250 967 263 938 q 233 992 238 981 q 194 910 224 964 l 194 897 q 168 863 188 882 l 164 858 l 160 826 l 147 822 q 122 763 136 779 q 61 739 103 739 l 56 747 l -11 754 q 46 875 7 803 q 76 949 78 932 l 93 958 q 115 1000 94 983 q 133 1035 117 1015 q 153 1079 135 1060 q 154 1092 156 1083 l 178 1131 l 182 1132 l 182 1139 q 244 1160 226 1160 q 297 1136 274 1160 q 343 1040 306 1107 q 386 949 381 974 l 385 935 q 435 862 403 925 q 468 781 468 799 m 282 886 q 219 833 282 865 q 215 875 215 869 q 249 918 215 918 q 282 886 282 918 m 213 849 q 154 800 213 828 l 146 846 q 178 882 146 882 q 213 849 213 882 m 400 997 q 365 1031 400 1031 q 333 994 333 1031 l 342 943 q 400 997 400 978 m 465 861 q 431 893 465 893 q 406 880 413 893 q 399 860 399 867 l 403 810 q 465 861 465 840 z "},"_":{"ha":769,"x_min":22,"x_max":847,"o":"m 847 714 q 828 667 847 699 q 789 660 807 660 q 532 729 758 660 l 765 724 q 808 749 776 749 q 847 714 847 749 m 717 665 l 578 668 q 544 697 544 668 q 579 725 544 726 q 717 665 639 726 m 517 672 q 436 665 440 665 q 400 694 400 665 q 457 736 400 717 q 517 753 503 753 l 517 672 m 767 490 q 608 476 661 483 q 576 511 576 488 q 581 528 576 518 l 581 524 q 600 503 600 524 q 619 515 608 515 q 621 519 619 518 q 621 524 621 522 l 621 518 q 549 478 621 475 q 527 490 542 482 q 506 500 513 497 l 499 496 q 436 483 469 483 q 403 485 429 483 q 351 486 376 486 l 326 551 q 392 583 349 564 q 429 574 421 574 q 503 597 485 597 q 593 585 558 597 l 606 575 l 607 576 q 643 583 639 583 q 679 576 657 583 q 767 490 708 542 m 388 706 q 350 676 388 676 l 331 679 q 299 728 299 711 q 338 757 299 757 l 357 753 q 388 706 388 722 m 369 571 q 340 528 343 535 q 332 513 338 521 q 197 479 311 481 q 258 492 244 494 l 224 514 q 219 569 224 547 l 276 593 q 311 583 285 589 q 369 571 317 583 m 192 579 l 160 504 q 140 502 147 503 q 131 501 132 501 q 143 514 133 507 l 132 549 l 131 549 l 113 497 q 119 496 115 499 q 99 493 106 493 q 60 506 86 493 l 60 524 q 22 557 22 549 q 61 589 22 588 q 76 589 61 589 q 118 585 94 589 q 192 579 132 582 m 767 556 q 721 596 767 589 q 699 597 713 596 l 692 542 q 668 567 692 567 q 674 582 674 572 l 669 578 q 653 556 658 569 q 700 515 653 522 q 754 496 717 513 q 767 556 767 544 m 303 494 l 224 567 q 178 556 194 565 l 160 531 l 160 463 q 218 483 206 481 q 303 494 226 485 z "},"`":{"ha":396,"x_min":-74,"x_max":285,"o":"m 285 960 q 233 935 271 956 q 185 915 207 915 q 133 939 160 915 l 124 958 l 146 943 q 169 967 146 967 l 169 971 q 169 963 169 963 q 136 933 168 933 l 100 946 q 110 976 106 964 q 82 1017 82 985 q 78 1018 81 1017 q 71 1018 74 1018 q -74 1040 58 1019 l 18 1071 l 15 1074 q -29 1136 11 1081 q 43 1183 -6 1150 q 103 1163 71 1171 q 161 1146 149 1150 q 244 1061 219 1126 l 258 1054 q 267 1011 269 1029 l 267 1007 q 285 960 278 997 m 114 922 l 71 888 q 35 953 35 942 q 68 983 35 983 q 114 922 114 983 z "},"a":{"ha":922,"x_min":13,"x_max":806,"o":"m 494 453 q 425 358 494 431 l 417 444 q 430 474 417 457 q 457 492 443 492 q 494 453 494 492 m 494 401 q 426 278 494 379 l 418 388 q 428 421 417 401 q 457 440 440 440 q 494 401 494 440 m 806 221 q 800 169 806 204 q 794 115 794 133 q 799 28 794 86 q 803 -60 803 -31 q 799 -155 803 -86 q 796 -272 796 -224 q 646 -293 650 -293 q 565 -256 583 -293 l 564 -251 q 394 -287 483 -287 q 315 -283 368 -287 q 235 -278 263 -278 q 86 -142 161 -278 q 21 44 21 -22 q 26 94 21 68 l 47 106 q 58 156 53 131 q 101 193 64 165 q 136 250 115 233 l 165 250 q 169 253 168 253 q 249 283 189 283 q 252 289 250 286 q 276 310 254 292 q 321 314 296 314 q 378 303 340 314 q 433 293 415 293 q 497 303 456 293 q 557 313 538 313 q 600 351 564 333 q 631 304 631 324 q 629 293 631 299 l 629 296 q 618 314 618 303 l 582 274 q 556 350 557 332 q 557 425 557 333 l 557 431 l 544 443 l 528 443 q 479 468 478 468 q 456 460 474 468 q 425 451 438 451 q 390 467 403 451 l 386 469 q 312 443 367 469 q 228 417 257 417 q 171 436 204 417 q 117 469 143 453 l 125 493 q 92 503 115 496 q 92 565 88 549 q 115 618 103 588 q 115 625 118 622 l 115 618 q 106 568 115 571 q 118 556 110 568 q 126 538 126 544 l 126 589 l 107 569 l 107 619 l 297 679 q 315 674 300 679 l 310 656 q 340 679 310 656 q 406 683 360 679 q 482 688 451 688 l 496 688 l 474 729 q 482 688 482 696 l 482 683 q 511 689 507 689 q 550 668 533 689 q 572 663 556 663 l 597 658 l 607 642 l 632 642 q 703 593 694 642 l 722 593 q 772 501 747 547 q 797 401 797 449 q 791 339 797 381 q 786 275 785 297 l 800 261 q 806 221 806 242 m 333 311 q 75 283 267 300 q 219 360 147 321 q 208 336 219 343 q 228 324 219 335 l 231 371 q 254 371 231 371 l 281 371 q 306 356 288 371 q 333 311 328 336 m 101 322 q 86 83 86 183 q 29 111 51 83 q 13 150 13 133 q 101 322 13 176 m 503 350 q 463 389 503 389 q 426 347 426 389 l 433 290 q 503 350 503 324 m 158 488 l 158 494 q 139 547 158 511 q 92 561 124 561 l 78 536 q 99 468 78 510 l 119 460 q 158 488 154 460 m 625 -12 l 564 -18 q 567 22 567 10 q 564 76 567 32 q 564 129 561 108 l 621 106 l 560 17 l 543 110 q 494 115 533 111 q 447 119 465 119 q 432 118 438 119 l 417 103 q 313 93 381 93 q 268 88 275 93 q 253 44 267 85 q 242 -3 242 11 q 288 -33 242 -12 q 338 -56 313 -44 q 374 -58 349 -56 l 392 -78 q 418 -79 400 -79 q 451 -78 440 -79 l 475 -54 q 529 -46 508 -42 l 533 -46 q 544 261 544 -8 l 625 -12 m 494 128 q 425 32 494 107 l 417 118 q 430 148 417 131 q 457 165 443 165 q 494 128 494 165 m 353 18 l 225 22 q 193 56 193 22 q 228 88 193 92 q 353 18 281 90 z "},"b":{"ha":885,"x_min":-6,"x_max":778,"o":"m 294 996 l 261 992 q 217 1039 217 992 q 294 1097 217 1090 l 294 996 m 303 989 q 294 765 303 990 l 231 767 q 239 990 231 769 l 303 989 m 778 378 q 772 344 778 365 q 767 313 767 324 q 769 267 767 297 q 771 224 771 238 q 756 163 771 206 q 774 140 761 157 q 776 106 776 124 q 749 -42 776 49 q 678 -169 717 -146 q 661 -178 678 -169 q 651 -182 657 -179 q 607 -225 656 -225 l 590 -249 q 518 -251 567 -256 l 503 -268 q 436 -278 464 -278 q 335 -254 385 -278 q 246 -200 310 -242 l 240 -200 q 221 -251 233 -214 q 89 -275 181 -275 q 25 -265 57 -275 q 17 -251 21 -254 q -3 -242 14 -249 q 3 -144 3 -192 q -1 -31 3 -107 q -6 82 -6 44 q 21 244 -6 196 q -1 310 -1 293 q 4 351 -1 324 q 10 393 10 379 q 4 536 10 411 q 7 678 1 622 q -3 706 -3 690 q 8 740 -3 718 q 6 790 8 751 q 3 842 3 822 q 18 914 3 894 l 0 919 q 8 1022 0 983 q 36 1119 13 1046 q 131 1101 85 1104 q 225 1101 178 1101 l 228 1047 l 224 1000 l 176 1000 l 200 1025 l 176 1049 l 247 1049 q 232 833 232 932 q 244 667 232 725 q 250 665 247 665 q 249 672 249 668 q 319 713 281 718 q 328 713 322 713 q 336 711 333 711 q 369 733 335 711 q 429 756 403 756 q 488 728 460 756 q 538 738 501 740 l 550 718 q 564 719 554 719 q 654 667 604 719 l 657 663 l 707 681 l 707 628 q 758 485 758 542 q 750 431 758 485 l 750 429 l 771 414 q 778 378 778 388 m 586 281 l 586 435 q 513 336 513 363 q 586 281 513 281 m 603 235 l 539 233 l 539 204 l 556 182 q 540 135 540 160 q 542 107 540 115 l 542 101 l 517 85 l 513 64 q 522 31 513 47 q 474 -4 499 13 q 432 -47 446 -25 q 359 -28 425 -47 q 292 -7 293 -8 q 242 89 242 79 q 243 94 242 90 q 251 158 253 143 q 235 174 246 165 q 243 199 235 182 q 239 250 244 217 q 233 300 233 283 q 242 348 233 324 q 250 390 250 372 q 246 431 250 407 q 274 443 256 435 l 231 474 q 231 450 231 450 q 299 390 235 418 l 306 454 l 304 471 q 442 493 346 493 l 457 554 l 438 536 q 426 538 435 538 q 431 515 426 526 q 451 482 438 490 q 488 471 460 476 q 506 438 493 468 q 521 399 519 400 l 553 375 l 546 386 l 532 354 l 547 250 q 563 254 551 250 q 574 260 574 258 q 603 235 579 235 m 307 389 q 293 415 307 403 q 267 428 279 428 q 229 383 229 428 l 236 324 q 307 389 307 364 m 581 296 q 514 169 581 276 l 504 285 q 515 318 503 299 q 543 338 526 338 q 581 296 581 338 m 490 194 q 456 78 490 176 q 429 132 443 104 q 407 199 407 182 q 443 235 407 243 q 454 236 446 236 q 480 222 469 236 q 490 194 490 208 m 315 335 q 246 238 315 314 l 238 326 q 251 356 238 339 q 276 374 264 374 q 315 335 315 374 m 571 38 l 408 40 l 410 107 q 571 38 489 111 z "},"c":{"ha":894,"x_min":-4,"x_max":857,"o":"m 857 -99 q 696 -251 792 -211 q 496 -285 631 -278 l 488 -268 l 485 -268 q 453 -275 468 -275 q 357 -253 421 -275 l 350 -236 q 317 -233 333 -235 q 281 -214 301 -232 q 208 -150 267 -201 l 204 -150 q 188 -94 188 -117 q 164 -56 185 -79 q 142 8 143 -32 q 119 38 138 11 q 104 188 104 104 q 118 276 104 218 q 132 364 132 335 q 158 443 132 386 q 197 524 178 483 q 236 547 213 540 q 258 553 247 550 q 261 576 260 561 q 328 626 275 626 q 343 635 335 626 l 349 642 q 394 664 371 664 q 417 657 407 664 q 489 689 438 689 q 549 681 508 689 q 608 672 589 672 l 657 671 l 654 633 q 651 639 651 636 l 654 600 l 638 583 l 617 636 l 611 636 q 642 668 624 651 q 754 608 661 660 l 754 600 l 758 600 q 813 578 790 600 q 836 522 836 557 q 797 465 836 485 l 781 465 l 811 492 l 811 494 q 813 493 811 493 q 813 492 813 493 q 824 460 824 472 q 801 410 824 433 q 760 371 799 406 l 728 365 q 731 365 728 365 l 725 364 q 713 363 719 363 q 663 406 679 363 l 551 447 q 515 433 540 444 q 472 421 490 421 q 440 426 460 421 q 358 322 369 350 q 339 192 346 293 q 329 150 336 178 l 343 135 q 350 47 353 97 l 353 46 q 386 -6 376 33 q 424 -24 397 -15 q 461 -43 450 -32 l 463 -44 l 464 -43 q 515 -53 497 -42 q 542 -42 528 -42 q 572 -53 547 -42 q 597 -71 596 -65 l 572 -111 q 583 -93 575 -94 l 581 -75 q 578 -71 581 -74 l 568 -133 q 558 -124 564 -132 q 561 -131 561 -128 l 524 -111 q 539 -106 529 -110 l 543 -104 l 546 -104 q 543 -121 544 -118 q 558 -68 547 -79 q 613 -47 569 -57 q 644 -24 624 -40 q 675 0 664 -7 l 706 49 q 750 11 746 15 q 786 -33 775 -11 l 792 -42 l 814 -42 q 821 -93 824 -78 l 819 -100 q 813 -72 819 -93 l 811 -65 l 794 -72 q 804 -71 799 -71 q 857 -99 815 -71 m 176 424 q 106 363 176 400 l 99 419 q 136 463 99 463 q 176 424 176 463 m 83 272 q 14 147 83 251 l 7 258 q 17 292 6 272 q 46 311 29 311 q 83 272 83 311 m 75 207 q 7 142 75 182 l -1 203 q 35 244 -1 244 q 60 232 46 244 q 75 207 75 219 m 64 138 q -4 13 64 86 l 0 186 l 64 186 l 64 138 m 75 68 q 7 -47 75 47 q -3 38 -3 3 q 36 110 -3 110 q 75 68 75 110 m 93 4 q 22 -57 93 -21 l 15 1 q 51 43 15 43 q 93 4 93 43 m 125 -64 q 56 -126 125 -87 l 49 -65 q 85 -24 49 -24 q 125 -64 125 -24 m 568 -62 q 526 -24 568 -24 q 499 -38 510 -24 q 489 -68 489 -53 l 496 -124 q 568 -62 568 -89 z "},"d":{"ha":953,"x_min":0,"x_max":843,"o":"m 619 1008 q 617 897 619 967 q 613 786 613 815 l 549 788 q 556 1010 549 822 l 619 1008 m 503 1003 q 435 906 503 982 l 426 994 q 439 1024 426 1007 q 465 1042 451 1042 q 503 1003 503 1042 m 504 826 q 433 761 504 801 l 426 821 q 464 865 426 865 q 490 853 475 865 q 504 826 504 840 m 504 774 q 433 708 504 749 l 426 768 q 464 813 426 813 q 490 800 475 813 q 504 774 504 788 m 314 793 l 301 728 l 258 733 q 232 756 249 735 q 215 799 215 776 l 253 803 q 314 793 275 803 m 843 101 q 814 47 843 79 q 836 -31 836 25 q 822 -247 836 -121 q 721 -260 747 -260 q 613 -249 694 -260 l 601 -200 l 597 -208 q 501 -242 556 -207 q 408 -278 446 -278 q 229 -215 281 -278 l 210 -215 l 110 -135 q 96 -76 101 -118 l 81 -60 q 47 235 47 68 q 69 407 47 306 q 68 440 71 411 q 65 474 65 469 q 88 563 65 513 q 110 560 99 561 q 110 567 110 561 q 108 575 108 571 q 183 650 108 635 l 188 651 l 188 656 q 268 710 196 717 l 272 725 q 382 742 319 742 q 482 725 442 742 l 489 711 q 535 704 526 707 q 576 681 554 699 q 606 651 578 657 q 607 664 606 656 q 607 678 607 672 q 602 761 607 706 q 597 844 597 817 q 613 956 597 892 q 600 1089 597 985 l 640 1111 q 825 1086 744 1108 q 824 955 825 1033 q 822 843 822 876 q 829 731 822 806 q 836 621 836 657 q 826 575 836 604 q 817 532 817 546 q 829 421 817 494 q 842 311 842 347 q 831 225 842 263 l 818 210 q 831 158 819 193 q 843 101 843 122 m 128 668 q 60 604 128 640 l 50 663 q 88 707 50 707 q 128 668 128 707 m 94 607 q 21 540 94 579 l 15 601 q 26 631 15 617 q 53 646 36 646 q 80 633 65 646 q 94 607 94 621 m 85 569 q 15 507 85 544 l 7 568 q 44 610 7 610 q 85 569 85 610 m 85 514 q 17 388 85 493 l 7 504 q 17 538 6 518 q 46 557 29 557 q 85 514 85 557 m 74 469 q 68 383 74 472 l 67 361 l 46 285 l 1 351 l 0 371 l 0 379 q 10 472 0 401 l 74 469 m 93 235 q 22 107 93 215 l 15 219 q 27 253 14 232 q 54 275 40 275 q 93 235 93 275 m 624 668 q 611 695 624 683 q 583 707 599 707 q 546 665 546 707 l 556 601 q 624 668 624 643 m 504 713 q 490 739 504 726 q 464 751 476 751 q 435 736 446 751 q 426 706 425 721 l 432 644 q 504 713 504 686 m 619 294 l 619 450 q 546 351 546 378 q 563 317 546 333 q 619 294 582 294 m 624 282 l 590 300 q 588 378 590 333 q 567 363 582 374 q 556 438 553 426 l 556 440 l 549 444 q 526 476 533 469 q 494 486 515 485 l 490 488 q 440 425 485 465 q 415 496 415 483 l 415 500 q 275 246 275 493 q 285 191 275 226 q 296 138 296 156 q 288 79 296 138 l 286 76 l 290 74 q 321 24 321 53 l 328 22 q 358 2 346 18 q 383 -31 371 -14 q 419 -31 383 -31 q 518 -19 506 -31 l 522 -12 q 568 19 542 10 q 593 143 581 92 l 607 157 q 601 179 606 163 q 596 207 596 196 q 602 257 596 224 q 607 310 608 290 l 624 282 m 632 179 q 594 221 632 221 q 569 200 582 221 q 556 169 556 179 q 532 -117 556 128 q 632 179 632 153 m 504 457 q 433 390 504 431 l 426 451 q 464 494 426 494 q 490 482 475 494 q 504 457 504 469 m 632 307 q 560 243 632 279 l 554 301 q 592 346 554 346 q 632 307 632 346 m 496 415 q 425 224 496 397 l 418 400 q 431 437 418 414 q 458 460 443 460 q 485 444 475 460 q 496 415 496 429 m 624 225 q 556 131 624 204 l 546 218 q 558 250 546 235 q 586 265 571 265 q 624 225 624 265 m 488 297 q 418 232 488 272 l 410 292 q 447 336 410 336 q 473 324 458 336 q 488 297 488 311 m 632 94 q 560 31 632 68 l 554 90 q 592 133 554 133 q 632 94 632 133 m 478 263 q 408 165 478 242 l 400 253 q 413 283 400 265 q 439 301 426 301 q 478 263 478 301 m 503 76 q 435 -21 503 56 l 426 68 q 439 98 426 81 q 465 115 451 115 q 503 76 503 115 m 504 350 q 490 376 504 364 q 464 389 475 389 q 426 344 426 389 l 433 285 q 504 350 504 325 z "},"e":{"ha":856,"x_min":3,"x_max":746,"o":"m 669 79 q 601 15 669 54 l 593 75 q 629 117 593 117 q 655 104 640 117 q 669 79 669 92 m 676 46 q 610 -43 676 24 l 601 39 q 614 68 601 53 q 639 83 626 83 q 676 46 676 83 m 746 186 q 699 88 717 101 q 593 74 681 74 q 451 78 546 74 q 310 83 357 83 q 229 72 282 83 q 251 -19 240 22 q 261 -32 257 -24 q 235 -18 244 -32 q 213 -25 233 -25 q 251 94 213 -25 q 281 -47 283 -31 q 372 -71 326 -67 l 379 -87 q 549 -14 475 -92 q 607 -19 572 -12 q 611 -21 608 -19 q 614 -21 613 -21 q 675 -62 640 -21 q 721 -126 697 -94 q 618 -222 672 -193 q 515 -283 536 -267 q 378 -299 463 -299 q 313 -292 338 -299 q 253 -265 296 -278 q 196 -231 215 -256 q 107 -156 157 -206 q 38 -64 49 -97 q 36 -18 36 -60 q 24 8 36 -15 q 11 47 11 31 q 15 75 11 54 q 7 101 10 83 l 11 108 q 36 142 33 136 q 13 129 24 129 l 13 146 l 10 188 l 8 193 q 71 136 71 172 q 43 111 71 111 q 22 133 38 111 q 3 163 6 154 q 10 188 6 172 l 10 190 l 11 193 q 4 219 4 204 q 25 340 4 261 q 68 460 46 419 l 92 475 q 126 550 97 485 l 144 550 l 149 554 l 151 560 q 175 578 157 569 q 186 582 178 578 l 196 599 q 332 625 276 632 l 335 604 q 388 639 340 639 q 538 610 478 639 q 568 579 550 604 q 603 581 575 581 l 603 549 q 646 525 635 543 q 661 478 654 514 q 708 438 678 469 q 742 288 742 385 q 738 213 742 254 q 746 186 740 204 m 539 54 l 367 58 l 368 122 q 407 124 382 124 q 539 54 442 124 m 406 -46 q 339 -40 367 -46 l 324 -39 q 293 -6 293 -36 q 332 28 293 28 q 369 24 344 28 q 406 19 394 19 l 406 -46 m 438 -335 q 375 -329 425 -335 l 363 -328 q 332 -294 332 -325 q 367 -262 332 -261 q 401 -266 378 -262 q 438 -269 425 -269 l 438 -335 m 518 288 q 471 390 504 357 q 368 422 438 422 l 356 422 q 322 404 333 407 q 292 404 322 404 q 254 361 282 404 q 226 294 226 318 q 264 268 226 268 q 294 276 274 268 q 326 283 315 283 q 360 274 339 283 q 396 264 382 264 q 453 272 419 264 q 510 285 482 278 l 518 288 m 401 338 q 146 313 335 325 l 292 386 q 279 363 292 369 q 300 349 293 361 l 304 396 q 325 397 297 397 l 350 397 q 374 382 357 397 q 401 338 396 361 z "},"f":{"ha":632,"x_min":0,"x_max":735,"o":"m 576 831 q 507 707 576 810 l 501 815 q 513 849 501 828 q 539 871 525 871 q 576 831 576 871 m 568 526 q 501 432 568 507 l 493 519 q 505 551 493 536 q 532 567 517 567 q 568 526 568 567 m 735 588 l 479 547 q 440 526 450 526 q 401 535 438 526 q 390 521 399 529 q 328 510 361 513 q 326 357 322 450 q 331 203 331 224 q 326 61 331 156 q 322 -81 322 -33 q 332 -251 322 -146 q 296 -261 303 -260 l 296 -269 q 235 -282 256 -282 q 175 -276 211 -282 q 115 -267 125 -268 q 83 -143 111 -236 l 111 -147 l 113 -131 l 149 -131 l 121 -179 q 100 -136 115 -167 q 121 -72 100 -93 l 125 -68 q 126 -71 126 -69 q 149 -39 133 -39 q 179 -61 161 -39 q 179 -51 178 -58 q 118 -53 139 -51 l 118 -51 l 119 -50 l 110 -46 q 114 65 114 67 q 111 114 114 97 l 92 133 q 107 225 92 167 l 107 226 l 100 235 q 101 319 100 278 q 118 400 103 372 q 94 524 107 433 q 13 539 64 532 q 8 589 8 572 q 11 588 10 589 l 0 610 q 13 715 3 638 q 86 731 75 722 q 100 793 104 743 q 96 865 96 849 q 128 953 96 929 l 132 957 q 142 1028 143 964 q 240 1085 192 1057 q 347 1115 296 1115 q 461 1101 336 1115 l 489 1076 q 468 1176 489 1083 q 510 1015 510 1046 q 485 903 510 950 l 467 903 l 453 882 q 401 871 426 871 q 386 872 397 871 q 371 872 376 872 q 363 871 365 872 l 356 857 q 319 826 324 839 q 318 778 318 824 q 333 732 318 740 q 379 726 344 726 q 474 725 422 728 q 494 621 485 685 l 500 621 q 515 620 510 621 q 735 588 519 619 m 446 456 q 439 222 439 324 q 383 251 406 222 q 367 290 367 274 q 446 456 367 317 m 435 242 q 368 176 435 217 l 358 239 q 394 282 358 282 q 435 242 435 282 m 442 207 q 375 140 442 182 l 367 200 q 403 246 367 246 q 428 234 415 246 q 442 207 442 222 m 442 81 q 375 -12 442 60 l 367 72 q 379 102 367 85 q 404 119 392 119 q 442 81 442 119 m 433 35 q 375 -53 433 13 q 358 31 358 19 q 369 61 358 47 q 397 75 381 75 q 433 35 433 75 m 435 -28 q 368 -92 435 -53 l 358 -31 q 394 14 358 14 q 435 -28 435 14 m 442 -89 q 374 -185 442 -114 l 367 -99 q 377 -67 365 -85 q 403 -49 389 -49 q 442 -89 442 -49 m 474 -165 l 292 -161 l 292 -96 q 313 -96 299 -96 q 333 -94 326 -94 q 474 -165 371 -94 m 431 453 l 368 453 q 365 407 368 438 q 361 361 361 376 l 361 353 l 363 335 l 406 256 l 425 343 l 426 365 q 431 453 431 432 z "},"g":{"ha":981,"x_min":-7,"x_max":867,"o":"m 861 500 q 854 274 854 371 q 796 301 819 274 q 779 342 779 324 q 861 500 779 368 m 857 264 q 760 22 857 239 q 781 243 781 217 q 819 306 781 306 q 857 264 857 306 m 867 138 q 797 72 867 113 l 788 131 q 826 176 788 176 q 852 164 838 176 q 867 138 867 151 m 854 -4 q 794 17 815 -4 q 779 51 779 33 q 854 147 779 78 l 854 -4 m 844 -64 q 786 -43 806 -64 q 771 -10 771 -28 q 844 90 771 17 l 844 -64 m 854 -117 q 794 -96 815 -117 q 779 -61 779 -79 q 854 35 779 -35 l 854 -117 m 858 -112 q 785 -175 858 -140 l 779 -118 q 817 -74 779 -74 q 843 -87 828 -74 q 858 -112 858 -100 m 849 -185 q 779 -278 849 -206 l 771 -190 q 783 -160 771 -175 q 811 -144 796 -144 q 849 -185 849 -144 m 840 -229 q 740 -525 840 -256 q 764 -240 764 -281 q 777 -208 764 -229 q 803 -187 790 -187 q 840 -229 840 -187 m 771 197 q 761 144 771 179 q 751 89 751 108 q 756 -11 751 74 q 754 -110 757 -72 q 761 -124 761 -119 q 763 -204 763 -110 q 760 -243 763 -225 l 743 -267 q 743 -342 743 -267 q 731 -419 743 -378 l 713 -426 q 701 -472 704 -465 q 668 -503 693 -493 l 668 -507 q 598 -576 668 -514 q 514 -642 528 -637 q 472 -648 496 -647 q 425 -650 447 -649 l 410 -667 q 381 -671 393 -671 q 291 -660 353 -671 q 204 -640 229 -650 q 162 -608 185 -633 q 115 -574 139 -582 q 53 -525 67 -556 q 39 -439 46 -507 q 69 -415 51 -429 l 76 -407 q 126 -379 94 -386 l 136 -356 l 181 -339 q 175 -336 178 -339 q 186 -335 179 -336 q 196 -333 193 -333 q 236 -369 225 -333 q 242 -369 238 -369 q 249 -368 246 -368 l 269 -371 l 290 -404 l 307 -415 q 353 -474 332 -432 l 335 -467 l 344 -504 q 307 -468 307 -499 l 307 -464 q 308 -469 307 -461 q 322 -486 315 -474 l 339 -422 q 365 -429 344 -424 q 390 -433 381 -433 q 411 -411 411 -433 q 469 -381 433 -401 q 451 -326 467 -382 l 518 -326 q 538 -269 538 -310 q 526 -203 538 -262 q 524 -201 525 -201 q 528 -208 522 -201 q 531 -225 533 -215 q 476 -243 501 -243 q 415 -267 450 -243 q 344 -290 379 -290 q 115 -201 217 -290 q 7 25 7 -108 q 14 65 7 42 l 11 67 q -7 213 -7 167 q 21 351 -7 258 q 24 361 22 356 q 14 405 24 375 q 6 451 4 435 l 8 481 l 33 497 q 33 504 33 500 q 32 510 32 508 q 74 592 32 533 q 140 658 117 650 q 168 660 153 663 l 172 658 q 194 685 176 665 q 235 679 226 685 q 313 719 268 719 q 382 711 332 719 q 446 696 438 703 q 465 657 461 683 l 465 654 l 467 654 l 494 663 l 525 632 l 529 632 q 560 689 542 675 q 625 703 578 703 q 678 699 640 703 q 751 693 721 694 q 749 644 753 663 q 763 542 763 615 q 758 412 763 499 q 753 281 753 325 q 762 240 753 267 q 771 197 771 213 m 857 179 q 817 219 857 219 q 790 200 801 219 q 779 168 778 181 l 786 82 q 857 179 857 158 m 550 417 q 429 360 521 414 l 518 342 q 524 342 519 342 q 531 340 528 340 q 535 338 533 340 q 538 328 536 335 q 521 258 521 307 l 539 238 q 533 192 540 222 q 526 147 526 163 q 519 35 526 50 q 472 -24 503 22 q 438 -32 457 -21 q 407 -53 424 -53 q 299 -15 361 -53 q 238 56 238 24 q 232 174 238 96 q 226 292 226 253 q 232 369 226 353 q 248 388 235 381 q 272 417 261 394 q 317 457 285 426 q 361 475 336 475 q 374 475 365 475 q 386 474 382 474 l 386 461 q 451 447 411 456 q 482 433 472 443 q 504 403 483 431 q 535 382 518 394 l 533 385 l 550 417 m 336 -11 q 297 28 336 28 q 271 12 283 28 q 258 -18 258 -4 l 267 -103 q 336 -11 336 -32 m 450 263 q 442 72 450 264 l 378 72 q 386 264 378 72 l 450 263 m 336 310 q 267 217 336 289 l 258 301 q 271 332 258 315 q 297 349 283 349 q 336 310 336 349 m 317 211 q 313 135 315 186 q 296 100 311 119 q 276 81 281 81 q 257 95 271 81 q 243 124 243 110 q 251 215 243 124 l 317 211 m 328 86 q 265 24 328 60 q 250 85 250 74 q 288 124 250 124 q 313 111 299 124 q 328 86 328 99 m 336 50 q 267 -47 336 29 l 258 42 q 271 72 258 54 q 297 89 283 89 q 336 50 336 89 m 326 232 q 289 271 326 271 q 263 254 276 271 q 250 224 250 238 l 260 136 q 326 232 326 211 z "},"h":{"ha":1064,"x_min":-14,"x_max":968,"o":"m 210 860 q 138 799 210 833 l 132 854 q 169 900 132 900 q 210 860 210 900 m 618 440 q 549 346 618 421 l 540 433 q 552 465 540 450 q 581 481 564 481 q 618 440 618 481 m 968 -36 l 950 -50 l 951 -51 l 954 -71 q 945 -108 954 -92 q 936 -129 936 -124 q 947 -231 936 -131 q 910 -244 931 -237 l 907 -253 l 886 -274 q 839 -282 861 -282 q 778 -275 815 -282 q 715 -265 728 -267 q 724 -141 715 -214 q 732 -40 732 -68 q 765 -7 732 -7 q 779 -10 774 -7 q 776 -10 778 -10 q 774 -8 775 -8 q 771 -10 772 -8 q 768 -10 769 -10 q 744 -39 768 -33 q 746 -46 746 -42 l 742 -40 q 718 107 718 -8 q 728 189 718 156 l 740 201 l 732 203 l 733 210 q 738 213 735 210 l 724 218 q 733 331 733 350 l 733 338 q 696 418 721 358 q 668 454 683 449 q 628 468 649 461 l 621 482 q 572 488 600 488 q 468 447 485 488 q 424 394 454 415 q 425 382 424 392 q 425 365 425 372 l 422 343 l 403 324 q 403 318 403 322 q 401 313 401 315 q 408 267 401 300 q 414 208 415 235 l 401 183 l 404 200 q 378 182 394 182 q 353 194 364 182 q 350 178 353 183 l 414 181 q 410 49 414 138 q 406 -82 406 -39 q 414 -214 406 -150 l 404 -236 q 400 -246 404 -239 l 400 -244 q 404 -236 400 -239 l 406 -235 q 388 -265 400 -246 q 296 -286 347 -286 q 193 -275 268 -286 q 188 -256 190 -267 l 168 -250 q 188 -172 182 -206 l 199 -178 q 178 -144 178 -165 q 186 -128 178 -139 q 194 -110 188 -121 q 175 61 175 -32 q 183 183 175 103 l 183 188 q 176 279 176 264 q 192 314 176 293 l 192 318 l 167 369 q 181 428 168 393 q 193 474 193 463 l 204 464 q 175 521 181 494 q 186 650 186 551 q 176 683 186 658 q 167 725 167 707 q 176 799 167 750 q 186 872 186 847 q 180 924 186 890 q 174 975 174 958 q 178 1014 174 983 l 194 1031 q 193 1057 193 1039 q 229 1099 193 1079 q 282 1114 260 1114 q 331 1108 293 1114 q 403 1101 369 1101 q 413 915 413 1007 q 409 797 413 875 q 406 679 406 718 q 408 658 406 672 l 408 654 l 410 654 q 425 671 415 661 q 457 676 446 679 q 460 690 457 683 q 543 718 482 706 q 626 729 596 729 q 685 708 654 729 q 721 685 715 686 l 724 686 q 757 696 743 696 l 786 692 l 796 669 l 806 668 q 842 657 810 668 q 839 604 839 593 q 936 535 874 581 l 938 425 q 932 403 938 411 l 931 400 q 964 322 964 363 q 947 254 964 288 l 944 249 q 956 197 956 211 q 949 148 956 181 q 943 99 943 115 q 968 -36 943 56 m 215 829 q 206 597 215 779 l 142 599 q 150 831 142 601 l 215 829 m 636 315 q 538 68 636 292 q 558 308 558 271 q 571 340 558 321 q 597 358 583 358 q 636 315 636 358 m 626 221 q 557 126 626 199 l 549 213 q 561 242 549 225 q 588 260 574 260 q 626 221 626 260 m 506 318 q 433 193 506 296 l 426 301 q 438 336 425 314 q 467 358 451 358 q 494 346 483 358 q 506 318 506 333 m 88 821 q -14 522 88 794 q 11 803 7 739 q 26 845 13 828 q 50 863 40 863 q 88 821 88 863 m 506 249 q 432 181 506 222 l 426 243 q 437 273 426 258 q 464 288 447 288 q 506 249 506 288 m 514 222 q 443 154 514 194 l 435 215 q 474 261 435 261 q 514 222 514 261 m 501 190 q 492 64 501 210 l 428 65 q 432 131 428 89 q 436 192 436 174 l 501 190 m 88 679 q -14 381 88 653 q 11 661 7 597 q 26 703 13 686 q 50 721 40 721 q 88 679 88 721 m 626 8 q 554 -60 626 -18 l 549 1 q 558 32 547 17 q 586 47 568 47 q 613 35 599 47 q 626 8 626 22 m 226 371 q 158 275 226 350 l 149 364 q 161 396 149 381 q 189 411 174 411 q 226 371 226 411 m 618 -21 q 549 -117 618 -42 l 540 -28 q 553 4 540 -11 q 581 19 565 19 q 618 -21 618 19 m 89 408 q 15 342 89 381 l 10 403 q 20 433 10 418 q 47 447 31 447 q 74 435 60 447 q 89 408 89 422 m 218 256 q 149 158 218 235 l 140 247 q 153 279 140 263 q 181 296 165 296 q 218 256 218 296 m 547 -97 l 535 -162 l 492 -157 q 464 -134 481 -156 q 447 -90 447 -112 q 547 -97 499 -86 m 79 369 q 10 242 79 351 l 1 358 q 12 392 0 372 q 40 411 24 411 q 79 369 79 411 m 504 13 q 407 -235 504 -12 q 426 -4 426 -47 q 467 54 426 54 q 504 13 504 54 m 496 -61 q 425 -287 496 -85 l 419 -81 q 433 -42 419 -68 q 458 -15 446 -15 q 496 -61 496 -15 m 88 282 q 17 189 88 260 l 10 274 q 22 304 8 286 q 49 322 35 322 q 88 282 88 322 m 79 238 q 10 176 79 213 l 0 235 q 38 278 0 278 q 79 238 79 278 m 208 122 q 139 -7 208 100 l 131 108 q 141 143 129 124 q 171 163 153 163 q 208 122 208 163 m 82 299 q 75 68 75 169 q 17 97 40 68 q 0 136 0 119 q 82 299 0 164 m 208 51 q 139 -46 208 31 l 131 43 q 144 73 131 56 q 171 90 157 90 q 208 51 208 90 m 88 79 q 15 17 88 51 l 10 74 q 47 118 10 118 q 73 105 58 118 q 88 79 88 92 m 208 -21 q 139 -146 208 -43 q 129 -60 129 -94 q 171 19 129 19 q 208 -21 208 19 m 218 -74 q 149 -169 218 -94 l 140 -82 q 153 -51 140 -69 q 179 -33 165 -33 q 218 -74 218 -33 m 79 42 q 8 -22 79 17 l 1 40 q 39 82 1 82 q 79 42 79 82 m 206 246 l 206 400 q 131 301 131 328 q 146 267 131 282 q 206 246 167 246 m 218 192 q 207 219 218 206 q 181 233 196 233 q 153 209 165 233 q 140 171 140 185 l 146 0 q 218 192 218 165 m 88 203 q 73 228 88 215 q 47 242 58 242 q 10 199 10 242 l 15 140 q 88 203 88 175 z "},"i":{"ha":518,"x_min":-3,"x_max":408,"o":"m 401 1007 q 397 947 401 975 q 383 867 394 929 q 319 864 358 867 q 272 863 288 863 q 186 869 243 863 q 181 936 185 899 q 176 981 176 967 q 194 1053 176 1018 q 233 1115 196 1056 q 368 1101 281 1104 l 382 1072 q 401 1007 401 1051 m 182 883 q 119 789 182 863 l 111 878 q 122 909 111 894 q 147 924 133 924 q 182 883 182 924 m 68 821 q -1 876 -1 821 q 68 976 -1 904 l 68 821 m 190 660 q 125 535 190 639 l 119 646 q 131 679 119 658 q 156 700 142 700 q 190 660 190 700 m 76 599 q 28 613 49 599 q 7 653 7 626 q 76 753 7 681 l 76 599 m 183 492 q 117 428 183 465 l 111 488 q 122 517 111 503 q 146 532 132 532 q 183 492 183 532 m 71 607 q 6 482 71 586 q -3 567 -3 528 q 35 647 -3 647 q 71 607 71 647 m 199 436 q 135 307 199 417 l 126 424 q 136 458 125 439 q 163 478 147 478 q 199 436 199 478 m 71 529 q 6 461 71 503 l -1 522 q 33 568 -1 568 q 71 529 71 568 m 192 394 q 126 329 192 368 l 118 389 q 153 433 118 433 q 176 419 161 433 q 192 394 192 406 m 408 361 q 401 292 408 339 q 393 221 393 246 q 397 113 393 185 q 400 7 400 42 q 385 -287 400 -96 q 299 -278 353 -278 l 293 -264 l 289 -267 q 247 -278 261 -278 q 215 -268 242 -278 q 188 -112 188 -193 q 176 200 188 33 l 194 232 q 190 229 192 229 q 197 247 192 232 q 182 258 193 250 q 200 314 188 293 l 201 403 l 200 424 q 175 525 175 472 q 183 608 175 553 q 193 707 192 669 l 236 728 q 293 715 278 715 q 385 732 297 715 q 389 599 390 672 q 386 467 386 457 q 388 422 386 438 l 401 408 q 408 361 408 381 m 183 331 q 118 271 183 304 l 111 328 q 146 371 111 371 q 183 331 183 371 m 79 463 q 13 272 79 438 l 7 443 q 19 481 7 457 q 44 504 31 504 q 69 490 58 504 q 79 463 79 476 m 94 340 q 29 274 94 314 l 22 335 q 57 381 22 381 q 94 340 94 381 m 199 171 q 135 106 199 144 l 126 165 q 161 210 126 210 q 186 198 174 210 q 199 171 199 186 m 190 292 q 97 -12 190 268 q 119 271 119 236 q 156 333 119 333 q 190 292 190 333 m 71 286 q 6 189 71 265 l -1 276 q 10 307 -3 289 q 35 325 22 325 q 71 286 71 325 m 194 206 q 188 -28 188 74 q 135 1 156 -28 q 118 42 118 24 q 194 206 118 67 m 139 147 l 79 75 q 26 106 53 83 q -1 150 0 129 q 53 174 28 174 q 139 147 67 174 m 79 60 q 13 -129 79 36 l 7 40 q 19 76 7 51 q 43 101 32 101 q 79 60 79 101 m 183 214 q 146 254 183 254 q 111 211 111 254 l 118 154 q 183 214 183 188 m 190 133 q 156 174 190 174 q 131 152 142 174 q 119 118 119 131 l 125 10 q 190 133 190 111 z "},"j":{"ha":479,"x_min":-4,"x_max":360,"o":"m 357 1047 q 358 1019 357 1040 q 358 983 358 997 q 303 868 358 868 q 264 879 279 868 q 193 878 240 878 l 151 879 q 142 964 149 908 q 136 1026 136 1004 q 144 1082 136 1051 q 190 1138 169 1108 q 257 1122 224 1129 q 317 1097 306 1110 q 329 1072 324 1090 l 357 1047 m 296 806 q 200 897 201 843 q 240 908 244 908 q 283 872 278 908 q 296 806 283 871 m 171 624 q 82 372 171 599 l 101 615 q 112 647 101 629 q 136 665 122 665 q 171 624 171 665 m 171 393 q 106 326 171 367 l 100 388 q 109 417 99 403 q 135 432 119 432 q 158 419 144 432 q 171 393 171 407 m 171 192 q 106 65 171 171 l 100 176 q 110 212 99 190 q 136 233 122 233 q 171 192 171 233 m 167 10 l 110 8 q 108 72 108 40 q 110 138 108 106 l 167 133 q 167 10 167 133 m 360 288 q 354 202 360 258 q 349 118 349 146 q 347 97 349 106 q 358 18 360 74 l 356 -126 l 340 -154 q 347 -265 339 -194 q 357 -375 357 -342 q 342 -479 357 -437 q 297 -567 340 -479 q 240 -600 289 -583 l 233 -625 q 197 -637 214 -637 l 176 -660 q 100 -671 146 -669 q 24 -674 63 -672 l 0 -600 l 0 -496 q -4 -449 0 -482 q 101 -435 39 -446 l 101 -432 q 132 -389 107 -401 l 132 -379 l 133 -362 l 150 -343 q 140 -292 150 -326 q 132 -237 131 -258 l 133 -212 l 146 -204 q 146 -183 146 -197 q 144 -161 144 -168 q 149 -69 144 -131 q 153 22 153 -8 q 132 121 153 65 q 156 271 132 215 q 149 317 146 310 l 149 322 q 149 338 149 322 l 149 383 l 136 397 q 131 428 131 415 q 142 467 131 438 q 154 518 154 497 q 148 601 154 543 q 140 700 142 660 q 196 724 168 713 q 254 738 231 738 q 301 725 279 738 q 313 728 307 728 q 357 700 329 728 q 342 410 357 561 l 342 407 q 360 288 360 303 m 183 -39 q 164 -67 183 -50 q 135 -86 144 -83 l 114 -25 q 108 -32 111 -31 q 110 -31 108 -31 q 110 -28 110 -29 q 146 -3 119 -3 q 169 -15 154 -3 q 183 -39 183 -28 m 163 -78 q 100 -174 163 -100 l 93 -85 q 103 -53 92 -68 q 129 -37 114 -37 q 163 -78 163 -37 m 163 -178 q 100 -274 163 -199 l 93 -183 q 103 -151 92 -167 q 129 -136 114 -136 q 163 -178 163 -136 m 97 -353 l 49 -368 q 10 -390 47 -369 l 0 -344 q -4 -319 -4 -328 q 36 -272 -4 -272 l 54 -275 l 97 -353 m 171 -122 q 136 -82 171 -82 q 110 -103 122 -82 q 100 -137 99 -124 l 106 -247 q 171 -122 171 -146 z "},"k":{"ha":901,"x_min":-4,"x_max":861,"o":"m 861 583 q 792 519 861 558 l 783 582 q 821 625 783 625 q 861 583 861 625 m 828 675 l 747 503 q 679 560 679 531 q 714 600 679 581 l 726 607 q 828 675 729 608 m 439 788 q 369 658 439 768 l 361 774 q 372 808 360 789 q 400 828 383 828 q 439 788 439 828 m 318 779 q 249 654 318 760 l 240 765 q 251 799 239 779 q 279 819 263 819 q 318 779 318 819 m 447 676 q 376 460 447 651 l 371 657 q 384 693 369 665 q 408 721 399 721 q 447 676 447 721 m 326 694 q 257 501 326 672 l 250 685 q 263 718 250 697 q 289 739 275 739 q 316 724 306 739 q 326 694 326 708 m 674 247 q 660 215 674 229 q 629 201 647 200 q 593 250 597 229 q 606 285 593 265 q 638 304 618 304 l 660 297 q 674 247 674 264 m 824 -187 q 789 -269 824 -269 q 754 -254 775 -269 l 801 -243 l 786 -274 q 750 -279 765 -279 q 688 -261 717 -279 q 663 -269 683 -262 q 635 -275 647 -275 q 585 -258 614 -275 l 579 -242 l 564 -242 q 553 -207 556 -225 l 540 -203 q 499 -128 515 -178 q 472 -44 486 -86 q 439 19 439 -19 q 397 59 417 39 q 370 117 376 79 q 356 156 364 156 q 283 91 339 156 q 226 6 226 26 q 231 -16 226 -1 q 236 -36 236 -31 l 172 -46 q 233 -56 231 -49 l 231 -71 l 242 -119 q 228 -133 231 -126 q 226 -147 225 -139 q 229 -162 229 -160 q 228 -261 229 -192 l 183 -260 q 139 -265 168 -260 q 96 -269 110 -269 q 0 -239 60 -269 q 4 -85 0 -251 q -1 69 7 8 l 8 96 q -1 174 -1 154 q 8 222 -1 190 q 17 271 17 254 q -3 350 -3 310 q 3 426 -3 376 q 8 501 8 476 q 2 571 8 525 q -4 639 -4 617 q 29 732 -4 699 q 17 778 19 758 q 15 815 14 793 q 17 863 17 850 q 8 921 17 883 q -3 979 -1 967 l 24 997 q 7 1054 7 1036 l 11 1076 l 46 1113 q 242 1100 79 1108 q 217 1035 235 1053 l 217 1028 q 228 922 217 993 q 239 815 239 851 q 233 660 239 836 q 240 476 231 560 l 236 476 q 240 336 236 397 l 242 336 l 242 346 q 276 371 257 363 l 276 389 q 371 472 318 443 q 375 499 375 475 q 381 532 375 488 q 443 563 394 551 q 440 579 440 571 q 481 635 440 608 q 522 661 522 661 q 546 721 522 683 q 593 700 581 704 q 635 721 604 721 q 657 716 643 721 q 676 711 671 711 l 696 724 l 697 715 q 761 739 729 738 l 785 671 q 746 642 774 658 q 704 581 726 599 q 660 542 667 550 l 660 521 q 624 478 649 496 q 593 456 594 457 q 585 424 589 431 q 557 403 578 408 q 504 340 553 379 q 524 276 521 299 l 546 278 q 599 163 574 204 l 618 151 q 625 117 625 131 q 660 67 650 108 q 692 33 686 51 q 693 -10 693 28 q 801 -139 693 -21 q 793 -164 801 -139 l 792 -174 q 824 -187 803 -178 m 315 571 q 306 446 315 592 l 242 447 q 246 512 242 469 q 250 574 250 554 l 315 571 m 447 -11 q 378 -75 447 -36 l 369 -12 q 407 29 369 29 q 447 -11 447 29 m 436 -144 q 361 -89 361 -144 q 436 7 361 -62 l 436 -144 m 315 83 q 311 -1 315 50 q 306 -86 307 -71 l 242 -85 q 250 86 242 -85 l 315 83 m 646 479 q 631 504 646 492 q 606 517 617 517 q 568 472 568 517 l 576 414 q 646 479 646 453 m 447 569 q 436 599 447 583 q 410 614 425 614 q 383 589 396 614 q 371 550 371 564 l 376 349 q 447 569 447 546 m 318 407 q 279 446 318 446 q 253 428 267 446 q 240 399 240 411 l 249 314 q 318 407 318 385 m 326 363 q 286 403 326 403 q 249 360 249 403 l 258 301 q 326 363 326 336 z "},"l":{"ha":507,"x_min":0,"x_max":433,"o":"m 336 647 q 269 579 336 622 l 264 642 q 273 672 263 657 q 299 686 283 686 q 336 647 336 686 m 342 521 q 271 576 271 521 q 342 676 271 603 l 342 521 m 344 471 q 279 404 344 444 l 272 464 q 307 510 272 510 q 332 498 319 510 q 344 471 344 486 m 356 -153 q 289 -167 317 -183 l 307 -151 q 297 -126 300 -149 l 322 -151 l 339 -169 q 333 -249 333 -182 q 301 -264 319 -256 q 306 -257 304 -258 l 275 -278 q 182 -272 228 -275 q 104 -229 121 -264 q 99 -212 101 -221 q 83 -212 97 -212 q 40 -187 64 -212 l 40 -156 l 22 -143 q 8 -85 10 -112 q 10 -28 10 -111 q 0 361 10 272 l 8 390 q 1 557 1 460 q 8 821 1 638 q 0 839 0 833 l 0 1015 q 81 1111 0 1111 q 135 1106 96 1111 q 192 1106 163 1101 q 207 1068 203 1082 q 201 1071 204 1068 l 221 1043 q 222 917 221 1000 q 224 792 224 833 q 218 660 224 704 l 222 624 q 222 553 222 600 q 221 482 221 506 l 160 483 l 160 538 l 186 508 l 213 539 l 214 519 l 214 504 l 228 496 q 228 399 231 440 q 236 294 226 369 l 214 307 q 208 300 213 304 q 82 176 206 267 l 242 449 q 218 104 218 199 q 221 19 218 42 q 226 -10 224 -3 q 253 -36 233 -26 l 253 -40 l 260 -42 q 314 -43 285 -42 q 329 -99 329 -78 l 331 -108 q 356 -153 353 -122 m 344 369 q 254 128 344 343 q 272 363 272 324 q 283 393 272 375 q 308 411 294 411 q 344 369 344 411 m 344 256 q 279 135 344 232 l 272 242 q 282 276 271 256 q 308 296 293 296 q 344 256 344 296 m 344 196 q 279 129 344 169 l 272 189 q 307 233 272 233 q 332 222 319 233 q 344 196 344 211 m 344 149 q 279 24 344 128 q 271 110 271 75 q 308 189 271 189 q 344 149 344 189 m 344 60 q 279 -62 344 36 q 271 21 271 -12 q 308 100 271 100 q 344 60 344 100 m 433 -37 q 368 -162 433 -61 q 360 -76 360 -114 q 397 3 360 3 q 433 -37 433 3 m 336 97 q 299 136 336 136 q 273 122 283 136 q 264 92 263 107 l 269 29 q 336 97 336 72 z "}}}
